<?xml version="1.0" encoding="UTF-8" standalone="no"?>
<!DOCTYPE svg PUBLIC "-//W3C//DTD SVG 1.1//EN"
 "http://www.w3.org/Graphics/SVG/1.1/DTD/svg11.dtd">
<!-- Generated by graphviz version 2.40.1 (20161225.0304)
 -->
<!-- Title: snakemake_dag Pages: 1 -->
<svg width="431pt" height="764pt"
 viewBox="0.00 0.00 431.00 764.00" xmlns="http://www.w3.org/2000/svg" xmlns:xlink="http://www.w3.org/1999/xlink">
<g id="graph0" class="graph" transform="scale(1 1) rotate(0) translate(4 760)">
<title>snakemake_dag</title>
<polygon fill="#ffffff" stroke="transparent" points="-4,4 -4,-760 427,-760 427,4 -4,4"/>
<!-- 0 -->
<g id="node1" class="node">
<title>0</title>
<path fill="none" stroke="#56d863" stroke-width="2" d="M205,-36C205,-36 175,-36 175,-36 169,-36 163,-30 163,-24 163,-24 163,-12 163,-12 163,-6 169,0 175,0 175,0 205,0 205,0 211,0 217,-6 217,-12 217,-12 217,-24 217,-24 217,-30 211,-36 205,-36"/>
<text text-anchor="middle" x="190" y="-15.5" font-family="sans" font-size="10.00" fill="#000000">target</text>
</g>
<!-- 1 -->
<g id="node2" class="node">
<title>1</title>
<path fill="none" stroke="#d6d856" stroke-width="2" d="M99,-252C99,-252 59,-252 59,-252 53,-252 47,-246 47,-240 47,-240 47,-228 47,-228 47,-222 53,-216 59,-216 59,-216 99,-216 99,-216 105,-216 111,-222 111,-228 111,-228 111,-240 111,-240 111,-246 105,-252 99,-252"/>
<text text-anchor="middle" x="79" y="-231.5" font-family="sans" font-size="10.00" fill="#000000">index_vcf</text>
</g>
<!-- 1&#45;&gt;0 -->
<g id="edge6" class="edge">
<title>1&#45;&gt;0</title>
<path fill="none" stroke="#c0c0c0" stroke-width="2" d="M69.2368,-215.9167C53.4488,-183.947 26.9613,-116.6164 57,-72 78.195,-40.5192 121.2375,-27.3834 152.6348,-21.9069"/>
<polygon fill="#c0c0c0" stroke="#c0c0c0" stroke-width="2" points="153.4444,-25.3231 162.7877,-20.3279 152.3686,-18.4063 153.4444,-25.3231"/>
</g>
<!-- 9 -->
<g id="node10" class="node">
<title>9</title>
<path fill="none" stroke="#d88556" stroke-width="2" d="M150.5,-180C150.5,-180 113.5,-180 113.5,-180 107.5,-180 101.5,-174 101.5,-168 101.5,-168 101.5,-156 101.5,-156 101.5,-150 107.5,-144 113.5,-144 113.5,-144 150.5,-144 150.5,-144 156.5,-144 162.5,-150 162.5,-156 162.5,-156 162.5,-168 162.5,-168 162.5,-174 156.5,-180 150.5,-180"/>
<text text-anchor="middle" x="132" y="-159.5" font-family="sans" font-size="10.00" fill="#000000">vcf_stats</text>
</g>
<!-- 1&#45;&gt;9 -->
<g id="edge14" class="edge">
<title>1&#45;&gt;9</title>
<path fill="none" stroke="#c0c0c0" stroke-width="2" d="M92.3741,-215.8314C98.4162,-207.6232 105.6763,-197.7606 112.3221,-188.7323"/>
<polygon fill="#c0c0c0" stroke="#c0c0c0" stroke-width="2" points="115.3363,-190.5415 118.4458,-180.4133 109.6989,-186.3918 115.3363,-190.5415"/>
</g>
<!-- 2 -->
<g id="node3" class="node">
<title>2</title>
<path fill="none" stroke="#5682d8" stroke-width="2" d="M369.5,-180C369.5,-180 318.5,-180 318.5,-180 312.5,-180 306.5,-174 306.5,-168 306.5,-168 306.5,-156 306.5,-156 306.5,-150 312.5,-144 318.5,-144 318.5,-144 369.5,-144 369.5,-144 375.5,-144 381.5,-150 381.5,-156 381.5,-156 381.5,-168 381.5,-168 381.5,-174 375.5,-180 369.5,-180"/>
<text text-anchor="middle" x="344" y="-159.5" font-family="sans" font-size="10.00" fill="#000000">merge_bam</text>
</g>
<!-- 2&#45;&gt;0 -->
<g id="edge3" class="edge">
<title>2&#45;&gt;0</title>
<path fill="none" stroke="#c0c0c0" stroke-width="2" d="M336.6204,-143.8428C327.8854,-124.1561 311.7357,-92.773 290,-72 271.7755,-54.5827 246.8336,-41.1002 226.4189,-31.9633"/>
<polygon fill="#c0c0c0" stroke="#c0c0c0" stroke-width="2" points="227.6737,-28.693 217.1049,-27.9509 224.9041,-35.1218 227.6737,-28.693"/>
</g>
<!-- 3 -->
<g id="node4" class="node">
<title>3</title>
<path fill="none" stroke="#d8c356" stroke-width="2" d="M411,-108C411,-108 349,-108 349,-108 343,-108 337,-102 337,-96 337,-96 337,-84 337,-84 337,-78 343,-72 349,-72 349,-72 411,-72 411,-72 417,-72 423,-78 423,-84 423,-84 423,-96 423,-96 423,-102 417,-108 411,-108"/>
<text text-anchor="middle" x="380" y="-87.5" font-family="sans" font-size="10.00" fill="#000000">index_bamfile</text>
</g>
<!-- 2&#45;&gt;3 -->
<g id="edge9" class="edge">
<title>2&#45;&gt;3</title>
<path fill="none" stroke="#c0c0c0" stroke-width="2" d="M353.0843,-143.8314C357.0615,-135.8771 361.8155,-126.369 366.2139,-117.5723"/>
<polygon fill="#c0c0c0" stroke="#c0c0c0" stroke-width="2" points="369.4517,-118.9228 370.7934,-108.4133 363.1907,-115.7923 369.4517,-118.9228"/>
</g>
<!-- 3&#45;&gt;0 -->
<g id="edge5" class="edge">
<title>3&#45;&gt;0</title>
<path fill="none" stroke="#c0c0c0" stroke-width="2" d="M336.8861,-73.6621C303.6906,-61.0828 258.3028,-43.8831 226.8025,-31.9462"/>
<polygon fill="#c0c0c0" stroke="#c0c0c0" stroke-width="2" points="227.6876,-28.5388 217.0962,-28.268 225.207,-35.0846 227.6876,-28.5388"/>
</g>
<!-- 4 -->
<g id="node5" class="node">
<title>4</title>
<path fill="none" stroke="#78d856" stroke-width="2" d="M185.5,-108C185.5,-108 78.5,-108 78.5,-108 72.5,-108 66.5,-102 66.5,-96 66.5,-96 66.5,-84 66.5,-84 66.5,-78 72.5,-72 78.5,-72 78.5,-72 185.5,-72 185.5,-72 191.5,-72 197.5,-78 197.5,-84 197.5,-84 197.5,-96 197.5,-96 197.5,-102 191.5,-108 185.5,-108"/>
<text text-anchor="middle" x="132" y="-87.5" font-family="sans" font-size="10.00" fill="#000000">calculate_ldepth_cutoff</text>
</g>
<!-- 4&#45;&gt;0 -->
<g id="edge2" class="edge">
<title>4&#45;&gt;0</title>
<path fill="none" stroke="#c0c0c0" stroke-width="2" d="M146.6358,-71.8314C153.3161,-63.5386 161.3568,-53.557 168.6904,-44.4533"/>
<polygon fill="#c0c0c0" stroke="#c0c0c0" stroke-width="2" points="171.6194,-46.3965 175.1671,-36.4133 166.1681,-42.0052 171.6194,-46.3965"/>
</g>
<!-- 5 -->
<g id="node6" class="node">
<title>5</title>
<path fill="none" stroke="#a7d856" stroke-width="2" d="M268.5,-108C268.5,-108 227.5,-108 227.5,-108 221.5,-108 215.5,-102 215.5,-96 215.5,-96 215.5,-84 215.5,-84 215.5,-78 221.5,-72 227.5,-72 227.5,-72 268.5,-72 268.5,-72 274.5,-72 280.5,-78 280.5,-84 280.5,-84 280.5,-96 280.5,-96 280.5,-102 274.5,-108 268.5,-108"/>
<text text-anchor="middle" x="248" y="-87.5" font-family="sans" font-size="10.00" fill="#000000">plot_stats</text>
</g>
<!-- 5&#45;&gt;0 -->
<g id="edge1" class="edge">
<title>5&#45;&gt;0</title>
<path fill="none" stroke="#c0c0c0" stroke-width="2" d="M233.3642,-71.8314C226.6839,-63.5386 218.6432,-53.557 211.3096,-44.4533"/>
<polygon fill="#c0c0c0" stroke="#c0c0c0" stroke-width="2" points="213.8319,-42.0052 204.8329,-36.4133 208.3806,-46.3965 213.8319,-42.0052"/>
</g>
<!-- 6 -->
<g id="node7" class="node">
<title>6</title>
<path fill="none" stroke="#56d8d0" stroke-width="2" d="M57.5,-684C57.5,-684 22.5,-684 22.5,-684 16.5,-684 10.5,-678 10.5,-672 10.5,-672 10.5,-660 10.5,-660 10.5,-654 16.5,-648 22.5,-648 22.5,-648 57.5,-648 57.5,-648 63.5,-648 69.5,-654 69.5,-660 69.5,-660 69.5,-672 69.5,-672 69.5,-678 63.5,-684 57.5,-684"/>
<text text-anchor="middle" x="40" y="-663.5" font-family="sans" font-size="10.00" fill="#000000">fa_index</text>
</g>
<!-- 6&#45;&gt;0 -->
<g id="edge4" class="edge">
<title>6&#45;&gt;0</title>
<path fill="none" stroke="#c0c0c0" stroke-width="2" d="M31.517,-647.81C19.7754,-620.9218 0,-568.7039 0,-522 0,-522 0,-522 0,-162 0,-118.0449 8.7044,-101.8169 41,-72 72.1022,-43.2849 119.6356,-29.5807 152.6175,-23.2161"/>
<polygon fill="#c0c0c0" stroke="#c0c0c0" stroke-width="2" points="153.5485,-26.6051 162.7753,-21.3978 152.315,-19.7147 153.5485,-26.6051"/>
</g>
<!-- 16 -->
<g id="node17" class="node">
<title>16</title>
<path fill="none" stroke="#61d856" stroke-width="2" d="M117.5,-612C117.5,-612 40.5,-612 40.5,-612 34.5,-612 28.5,-606 28.5,-600 28.5,-600 28.5,-588 28.5,-588 28.5,-582 34.5,-576 40.5,-576 40.5,-576 117.5,-576 117.5,-576 123.5,-576 129.5,-582 129.5,-588 129.5,-588 129.5,-600 129.5,-600 129.5,-606 123.5,-612 117.5,-612"/>
<text text-anchor="middle" x="79" y="-591.5" font-family="sans" font-size="10.00" fill="#000000">generate_regions</text>
</g>
<!-- 6&#45;&gt;16 -->
<g id="edge22" class="edge">
<title>6&#45;&gt;16</title>
<path fill="none" stroke="#c0c0c0" stroke-width="2" d="M49.8413,-647.8314C54.1957,-639.7925 59.4098,-630.1666 64.2169,-621.2918"/>
<polygon fill="#c0c0c0" stroke="#c0c0c0" stroke-width="2" points="67.3408,-622.8732 69.0261,-612.4133 61.1857,-619.5392 67.3408,-622.8732"/>
</g>
<!-- 7 -->
<g id="node8" class="node">
<title>7</title>
<path fill="none" stroke="#569ad8" stroke-width="2" d="M94,-324C94,-324 64,-324 64,-324 58,-324 52,-318 52,-312 52,-312 52,-300 52,-300 52,-294 58,-288 64,-288 64,-288 94,-288 94,-288 100,-288 106,-294 106,-300 106,-300 106,-312 106,-312 106,-318 100,-324 94,-324"/>
<text text-anchor="middle" x="79" y="-303.5" font-family="sans" font-size="10.00" fill="#000000">vcfuniq</text>
</g>
<!-- 7&#45;&gt;1 -->
<g id="edge7" class="edge">
<title>7&#45;&gt;1</title>
<path fill="none" stroke="#c0c0c0" stroke-width="2" d="M79,-287.8314C79,-280.131 79,-270.9743 79,-262.4166"/>
<polygon fill="#c0c0c0" stroke="#c0c0c0" stroke-width="2" points="82.5001,-262.4132 79,-252.4133 75.5001,-262.4133 82.5001,-262.4132"/>
</g>
<!-- 8 -->
<g id="node9" class="node">
<title>8</title>
<path fill="none" stroke="#d8b456" stroke-width="2" d="M362,-252C362,-252 326,-252 326,-252 320,-252 314,-246 314,-240 314,-240 314,-228 314,-228 314,-222 320,-216 326,-216 326,-216 362,-216 362,-216 368,-216 374,-222 374,-228 374,-228 374,-240 374,-240 374,-246 368,-252 362,-252"/>
<text text-anchor="middle" x="344" y="-231.5" font-family="sans" font-size="10.00" fill="#000000">markdup</text>
</g>
<!-- 8&#45;&gt;2 -->
<g id="edge8" class="edge">
<title>8&#45;&gt;2</title>
<path fill="none" stroke="#c0c0c0" stroke-width="2" d="M344,-215.8314C344,-208.131 344,-198.9743 344,-190.4166"/>
<polygon fill="#c0c0c0" stroke="#c0c0c0" stroke-width="2" points="347.5001,-190.4132 344,-180.4133 340.5001,-190.4133 347.5001,-190.4132"/>
</g>
<!-- 9&#45;&gt;4 -->
<g id="edge10" class="edge">
<title>9&#45;&gt;4</title>
<path fill="none" stroke="#c0c0c0" stroke-width="2" d="M132,-143.8314C132,-136.131 132,-126.9743 132,-118.4166"/>
<polygon fill="#c0c0c0" stroke="#c0c0c0" stroke-width="2" points="135.5001,-118.4132 132,-108.4133 128.5001,-118.4133 135.5001,-118.4132"/>
</g>
<!-- 9&#45;&gt;5 -->
<g id="edge11" class="edge">
<title>9&#45;&gt;5</title>
<path fill="none" stroke="#c0c0c0" stroke-width="2" d="M161.2717,-143.8314C176.1088,-134.6221 194.3015,-123.3301 210.1862,-113.4706"/>
<polygon fill="#c0c0c0" stroke="#c0c0c0" stroke-width="2" points="212.087,-116.4102 218.7377,-108.1628 208.3955,-110.4628 212.087,-116.4102"/>
</g>
<!-- 10 -->
<g id="node11" class="node">
<title>10</title>
<path fill="none" stroke="#56c9d8" stroke-width="2" d="M109.5,-396C109.5,-396 48.5,-396 48.5,-396 42.5,-396 36.5,-390 36.5,-384 36.5,-384 36.5,-372 36.5,-372 36.5,-366 42.5,-360 48.5,-360 48.5,-360 109.5,-360 109.5,-360 115.5,-360 121.5,-366 121.5,-372 121.5,-372 121.5,-384 121.5,-384 121.5,-390 115.5,-396 109.5,-396"/>
<text text-anchor="middle" x="79" y="-375.5" font-family="sans" font-size="10.00" fill="#000000">vcfstreamsort</text>
</g>
<!-- 10&#45;&gt;7 -->
<g id="edge12" class="edge">
<title>10&#45;&gt;7</title>
<path fill="none" stroke="#c0c0c0" stroke-width="2" d="M79,-359.8314C79,-352.131 79,-342.9743 79,-334.4166"/>
<polygon fill="#c0c0c0" stroke="#c0c0c0" stroke-width="2" points="82.5001,-334.4132 79,-324.4133 75.5001,-334.4133 82.5001,-334.4132"/>
</g>
<!-- 11 -->
<g id="node12" class="node">
<title>11</title>
<path fill="none" stroke="#56d87b" stroke-width="2" d="M359,-324C359,-324 329,-324 329,-324 323,-324 317,-318 317,-312 317,-312 317,-300 317,-300 317,-294 323,-288 329,-288 329,-288 359,-288 359,-288 365,-288 371,-294 371,-300 371,-300 371,-312 371,-312 371,-318 365,-324 359,-324"/>
<text text-anchor="middle" x="344" y="-303.5" font-family="sans" font-size="10.00" fill="#000000">sort</text>
</g>
<!-- 11&#45;&gt;8 -->
<g id="edge13" class="edge">
<title>11&#45;&gt;8</title>
<path fill="none" stroke="#c0c0c0" stroke-width="2" d="M344,-287.8314C344,-280.131 344,-270.9743 344,-262.4166"/>
<polygon fill="#c0c0c0" stroke="#c0c0c0" stroke-width="2" points="347.5001,-262.4132 344,-252.4133 340.5001,-262.4133 347.5001,-262.4132"/>
</g>
<!-- 12 -->
<g id="node13" class="node">
<title>12</title>
<path fill="none" stroke="#56d892" stroke-width="2" d="M109.5,-468C109.5,-468 48.5,-468 48.5,-468 42.5,-468 36.5,-462 36.5,-456 36.5,-456 36.5,-444 36.5,-444 36.5,-438 42.5,-432 48.5,-432 48.5,-432 109.5,-432 109.5,-432 115.5,-432 121.5,-438 121.5,-444 121.5,-444 121.5,-456 121.5,-456 121.5,-462 115.5,-468 109.5,-468"/>
<text text-anchor="middle" x="79" y="-447.5" font-family="sans" font-size="10.00" fill="#000000">vcffirstheader</text>
</g>
<!-- 12&#45;&gt;10 -->
<g id="edge15" class="edge">
<title>12&#45;&gt;10</title>
<path fill="none" stroke="#c0c0c0" stroke-width="2" d="M79,-431.8314C79,-424.131 79,-414.9743 79,-406.4166"/>
<polygon fill="#c0c0c0" stroke="#c0c0c0" stroke-width="2" points="82.5001,-406.4132 79,-396.4133 75.5001,-406.4133 82.5001,-406.4132"/>
</g>
<!-- 13 -->
<g id="node14" class="node">
<title>13</title>
<path fill="none" stroke="#566bd8" stroke-width="2" d="M359.5,-396C359.5,-396 328.5,-396 328.5,-396 322.5,-396 316.5,-390 316.5,-384 316.5,-384 316.5,-372 316.5,-372 316.5,-366 322.5,-360 328.5,-360 328.5,-360 359.5,-360 359.5,-360 365.5,-360 371.5,-366 371.5,-372 371.5,-372 371.5,-384 371.5,-384 371.5,-390 365.5,-396 359.5,-396"/>
<text text-anchor="middle" x="344" y="-375.5" font-family="sans" font-size="10.00" fill="#000000">fixmate</text>
</g>
<!-- 13&#45;&gt;11 -->
<g id="edge16" class="edge">
<title>13&#45;&gt;11</title>
<path fill="none" stroke="#c0c0c0" stroke-width="2" d="M344,-359.8314C344,-352.131 344,-342.9743 344,-334.4166"/>
<polygon fill="#c0c0c0" stroke="#c0c0c0" stroke-width="2" points="347.5001,-334.4132 344,-324.4133 340.5001,-334.4133 347.5001,-334.4132"/>
</g>
<!-- 14 -->
<g id="node15" class="node">
<title>14</title>
<path fill="none" stroke="#d85656" stroke-width="2" d="M106.5,-540C106.5,-540 51.5,-540 51.5,-540 45.5,-540 39.5,-534 39.5,-528 39.5,-528 39.5,-516 39.5,-516 39.5,-510 45.5,-504 51.5,-504 51.5,-504 106.5,-504 106.5,-504 112.5,-504 118.5,-510 118.5,-516 118.5,-516 118.5,-528 118.5,-528 118.5,-534 112.5,-540 106.5,-540"/>
<text text-anchor="middle" x="79" y="-519.5" font-family="sans" font-size="10.00" fill="#000000">combine_vcf</text>
</g>
<!-- 14&#45;&gt;12 -->
<g id="edge17" class="edge">
<title>14&#45;&gt;12</title>
<path fill="none" stroke="#c0c0c0" stroke-width="2" d="M79,-503.8314C79,-496.131 79,-486.9743 79,-478.4166"/>
<polygon fill="#c0c0c0" stroke="#c0c0c0" stroke-width="2" points="82.5001,-478.4132 79,-468.4133 75.5001,-478.4133 82.5001,-478.4132"/>
</g>
<!-- 15 -->
<g id="node16" class="node">
<title>15</title>
<path fill="none" stroke="#bed856" stroke-width="2" d="M364,-468C364,-468 324,-468 324,-468 318,-468 312,-462 312,-456 312,-456 312,-444 312,-444 312,-438 318,-432 324,-432 324,-432 364,-432 364,-432 370,-432 376,-438 376,-444 376,-444 376,-456 376,-456 376,-462 370,-468 364,-468"/>
<text text-anchor="middle" x="344" y="-447.5" font-family="sans" font-size="10.00" fill="#000000">bwa_map</text>
</g>
<!-- 15&#45;&gt;13 -->
<g id="edge18" class="edge">
<title>15&#45;&gt;13</title>
<path fill="none" stroke="#c0c0c0" stroke-width="2" d="M344,-431.8314C344,-424.131 344,-414.9743 344,-406.4166"/>
<polygon fill="#c0c0c0" stroke="#c0c0c0" stroke-width="2" points="347.5001,-406.4132 344,-396.4133 340.5001,-406.4133 347.5001,-406.4132"/>
</g>
<!-- 16&#45;&gt;14 -->
<g id="edge19" class="edge">
<title>16&#45;&gt;14</title>
<path fill="none" stroke="#c0c0c0" stroke-width="2" d="M79,-575.8314C79,-568.131 79,-558.9743 79,-550.4166"/>
<polygon fill="#c0c0c0" stroke="#c0c0c0" stroke-width="2" points="82.5001,-550.4132 79,-540.4133 75.5001,-550.4133 82.5001,-550.4132"/>
</g>
<!-- 17 -->
<g id="node18" class="node">
<title>17</title>
<path fill="none" stroke="#56b1d8" stroke-width="2" d="M319,-540C319,-540 289,-540 289,-540 283,-540 277,-534 277,-528 277,-528 277,-516 277,-516 277,-510 283,-504 289,-504 289,-504 319,-504 319,-504 325,-504 331,-510 331,-516 331,-516 331,-528 331,-528 331,-534 325,-540 319,-540"/>
<text text-anchor="middle" x="304" y="-519.5" font-family="sans" font-size="10.00" fill="#000000">trim</text>
</g>
<!-- 17&#45;&gt;15 -->
<g id="edge21" class="edge">
<title>17&#45;&gt;15</title>
<path fill="none" stroke="#c0c0c0" stroke-width="2" d="M314.0937,-503.8314C318.5597,-495.7925 323.9075,-486.1666 328.8379,-477.2918"/>
<polygon fill="#c0c0c0" stroke="#c0c0c0" stroke-width="2" points="331.9735,-478.8546 333.7704,-468.4133 325.8544,-475.4551 331.9735,-478.8546"/>
</g>
<!-- 18 -->
<g id="node19" class="node">
<title>18</title>
<path fill="none" stroke="#56d8b9" stroke-width="2" d="M406.5,-540C406.5,-540 361.5,-540 361.5,-540 355.5,-540 349.5,-534 349.5,-528 349.5,-528 349.5,-516 349.5,-516 349.5,-510 355.5,-504 361.5,-504 361.5,-504 406.5,-504 406.5,-504 412.5,-504 418.5,-510 418.5,-516 418.5,-516 418.5,-528 418.5,-528 418.5,-534 412.5,-540 406.5,-540"/>
<text text-anchor="middle" x="384" y="-519.5" font-family="sans" font-size="10.00" fill="#000000">bwa_index</text>
</g>
<!-- 18&#45;&gt;15 -->
<g id="edge20" class="edge">
<title>18&#45;&gt;15</title>
<path fill="none" stroke="#c0c0c0" stroke-width="2" d="M373.9063,-503.8314C369.4403,-495.7925 364.0925,-486.1666 359.1621,-477.2918"/>
<polygon fill="#c0c0c0" stroke="#c0c0c0" stroke-width="2" points="362.1456,-475.4551 354.2296,-468.4133 356.0265,-478.8546 362.1456,-475.4551"/>
</g>
<!-- 19 -->
<g id="node20" class="node">
<title>19</title>
<path fill="none" stroke="#56d8a2" stroke-width="2" d="M319,-612C319,-612 289,-612 289,-612 283,-612 277,-606 277,-600 277,-600 277,-588 277,-588 277,-582 283,-576 289,-576 289,-576 319,-576 319,-576 325,-576 331,-582 331,-588 331,-588 331,-600 331,-600 331,-606 325,-612 319,-612"/>
<text text-anchor="middle" x="304" y="-591.5" font-family="sans" font-size="10.00" fill="#000000">filter</text>
</g>
<!-- 19&#45;&gt;17 -->
<g id="edge23" class="edge">
<title>19&#45;&gt;17</title>
<path fill="none" stroke="#c0c0c0" stroke-width="2" d="M304,-575.8314C304,-568.131 304,-558.9743 304,-550.4166"/>
<polygon fill="#c0c0c0" stroke="#c0c0c0" stroke-width="2" points="307.5001,-550.4132 304,-540.4133 300.5001,-550.4133 307.5001,-550.4132"/>
</g>
<!-- 20 -->
<g id="node21" class="node">
<title>20</title>
<path fill="none" stroke="#d89c56" stroke-width="2" d="M339.5,-684C339.5,-684 268.5,-684 268.5,-684 262.5,-684 256.5,-678 256.5,-672 256.5,-672 256.5,-660 256.5,-660 256.5,-654 262.5,-648 268.5,-648 268.5,-648 339.5,-648 339.5,-648 345.5,-648 351.5,-654 351.5,-660 351.5,-660 351.5,-672 351.5,-672 351.5,-678 345.5,-684 339.5,-684"/>
<text text-anchor="middle" x="304" y="-663.5" font-family="sans" font-size="10.00" fill="#000000">check_barcodes</text>
</g>
<!-- 20&#45;&gt;19 -->
<g id="edge24" class="edge">
<title>20&#45;&gt;19</title>
<path fill="none" stroke="#c0c0c0" stroke-width="2" d="M304,-647.8314C304,-640.131 304,-630.9743 304,-622.4166"/>
<polygon fill="#c0c0c0" stroke="#c0c0c0" stroke-width="2" points="307.5001,-622.4132 304,-612.4133 300.5001,-622.4133 307.5001,-622.4132"/>
</g>
<!-- 21 -->
<g id="node22" class="node">
<title>21</title>
<path fill="none" stroke="#d86e56" stroke-width="2" d="M334,-756C334,-756 274,-756 274,-756 268,-756 262,-750 262,-744 262,-744 262,-732 262,-732 262,-726 268,-720 274,-720 274,-720 334,-720 334,-720 340,-720 346,-726 346,-732 346,-732 346,-744 346,-744 346,-750 340,-756 334,-756"/>
<text text-anchor="middle" x="304" y="-735.5" font-family="sans" font-size="10.00" fill="#000000">check_pairing</text>
</g>
<!-- 21&#45;&gt;20 -->
<g id="edge25" class="edge">
<title>21&#45;&gt;20</title>
<path fill="none" stroke="#c0c0c0" stroke-width="2" d="M304,-719.8314C304,-712.131 304,-702.9743 304,-694.4166"/>
<polygon fill="#c0c0c0" stroke="#c0c0c0" stroke-width="2" points="307.5001,-694.4132 304,-684.4133 300.5001,-694.4133 307.5001,-694.4132"/>
</g>
</g>
</svg>
