<?xml version="1.0" encoding="UTF-8" standalone="no"?>
<!DOCTYPE svg PUBLIC "-//W3C//DTD SVG 1.1//EN"
 "http://www.w3.org/Graphics/SVG/1.1/DTD/svg11.dtd">
<!-- Generated by graphviz version 2.40.1 (20161225.0304)
 -->
<!-- Title: snakemake_dag Pages: 1 -->
<svg width="1016pt" height="846pt"
 viewBox="0.00 0.00 1015.83 846.00" xmlns="http://www.w3.org/2000/svg" xmlns:xlink="http://www.w3.org/1999/xlink">
<g id="graph0" class="graph" transform="scale(1 1) rotate(0) translate(4 842)">
<title>snakemake_dag</title>
<polygon fill="#ffffff" stroke="transparent" points="-4,4 -4,-842 1011.8265,-842 1011.8265,4 -4,4"/>
<!-- 0 -->
<g id="node1" class="node">
<title>0</title>
<path fill="none" stroke="#56d8c1" stroke-width="2" d="M541.5,-36C541.5,-36 511.5,-36 511.5,-36 505.5,-36 499.5,-30 499.5,-24 499.5,-24 499.5,-12 499.5,-12 499.5,-6 505.5,0 511.5,0 511.5,0 541.5,0 541.5,0 547.5,0 553.5,-6 553.5,-12 553.5,-12 553.5,-24 553.5,-24 553.5,-30 547.5,-36 541.5,-36"/>
<text text-anchor="middle" x="526.5" y="-15.5" font-family="sans" font-size="10.00" fill="#000000">target</text>
</g>
<!-- 1 -->
<g id="node2" class="node">
<title>1</title>
<path fill="none" stroke="#566bd8" stroke-width="2" d="M756,-262C756,-262 713,-262 713,-262 707,-262 701,-256 701,-250 701,-250 701,-233 701,-233 701,-227 707,-221 713,-221 713,-221 756,-221 756,-221 762,-221 768,-227 768,-233 768,-233 768,-250 768,-250 768,-256 762,-262 756,-262"/>
<text text-anchor="middle" x="734.5" y="-250" font-family="sans" font-size="10.00" fill="#000000">index_vcf</text>
<text text-anchor="middle" x="734.5" y="-239" font-family="sans" font-size="10.00" fill="#000000">file: calls</text>
<text text-anchor="middle" x="734.5" y="-228" font-family="sans" font-size="10.00" fill="#000000">folder: out</text>
</g>
<!-- 1&#45;&gt;0 -->
<g id="edge1" class="edge">
<title>1&#45;&gt;0</title>
<path fill="none" stroke="#c0c0c0" stroke-width="2" d="M768.4274,-238.907C830.1607,-233.4082 956.9463,-218.2539 983.5,-185 1014.838,-145.7546 1016.8639,-109.5383 983.5,-72 955.7273,-40.7524 667.8618,-24.5029 563.7856,-19.6152"/>
<polygon fill="#c0c0c0" stroke="#c0c0c0" stroke-width="2" points="563.8815,-16.116 553.7309,-19.1517 563.5591,-23.1086 563.8815,-16.116"/>
</g>
<!-- 16 -->
<g id="node17" class="node">
<title>16</title>
<path fill="none" stroke="#d8ac56" stroke-width="2" d="M548.5,-185C548.5,-185 472.5,-185 472.5,-185 466.5,-185 460.5,-179 460.5,-173 460.5,-173 460.5,-161 460.5,-161 460.5,-155 466.5,-149 472.5,-149 472.5,-149 548.5,-149 548.5,-149 554.5,-149 560.5,-155 560.5,-161 560.5,-161 560.5,-173 560.5,-173 560.5,-179 554.5,-185 548.5,-185"/>
<text text-anchor="middle" x="510.5" y="-170" font-family="sans" font-size="10.00" fill="#000000">vcf_stats</text>
<text text-anchor="middle" x="510.5" y="-159" font-family="sans" font-size="10.00" fill="#000000">ext: ldepth.mean</text>
</g>
<!-- 1&#45;&gt;16 -->
<g id="edge28" class="edge">
<title>1&#45;&gt;16</title>
<path fill="none" stroke="#c0c0c0" stroke-width="2" d="M700.9649,-230.3466C666.5436,-218.8984 612.2515,-200.8415 570.4243,-186.9302"/>
<polygon fill="#c0c0c0" stroke="#c0c0c0" stroke-width="2" points="571.4857,-183.5947 560.8921,-183.7599 569.2765,-190.237 571.4857,-183.5947"/>
</g>
<!-- 17 -->
<g id="node18" class="node">
<title>17</title>
<path fill="none" stroke="#d8ac56" stroke-width="2" d="M628,-185C628,-185 591,-185 591,-185 585,-185 579,-179 579,-173 579,-173 579,-161 579,-161 579,-155 585,-149 591,-149 591,-149 628,-149 628,-149 634,-149 640,-155 640,-161 640,-161 640,-173 640,-173 640,-179 634,-185 628,-185"/>
<text text-anchor="middle" x="609.5" y="-170" font-family="sans" font-size="10.00" fill="#000000">vcf_stats</text>
<text text-anchor="middle" x="609.5" y="-159" font-family="sans" font-size="10.00" fill="#000000">ext: frq</text>
</g>
<!-- 1&#45;&gt;17 -->
<g id="edge29" class="edge">
<title>1&#45;&gt;17</title>
<path fill="none" stroke="#c0c0c0" stroke-width="2" d="M700.6732,-221.3392C684.6897,-211.813 665.5119,-200.3831 648.8778,-190.4692"/>
<polygon fill="#c0c0c0" stroke="#c0c0c0" stroke-width="2" points="650.3168,-187.2523 639.9348,-185.1392 646.733,-193.2654 650.3168,-187.2523"/>
</g>
<!-- 18 -->
<g id="node19" class="node">
<title>18</title>
<path fill="none" stroke="#d8ac56" stroke-width="2" d="M715,-185C715,-185 670,-185 670,-185 664,-185 658,-179 658,-173 658,-173 658,-161 658,-161 658,-155 664,-149 670,-149 670,-149 715,-149 715,-149 721,-149 727,-155 727,-161 727,-161 727,-173 727,-173 727,-179 721,-185 715,-185"/>
<text text-anchor="middle" x="692.5" y="-170" font-family="sans" font-size="10.00" fill="#000000">vcf_stats</text>
<text text-anchor="middle" x="692.5" y="-159" font-family="sans" font-size="10.00" fill="#000000">ext: idepth</text>
</g>
<!-- 1&#45;&gt;18 -->
<g id="edge30" class="edge">
<title>1&#45;&gt;18</title>
<path fill="none" stroke="#c0c0c0" stroke-width="2" d="M722.8007,-220.7476C718.1168,-212.4394 712.6595,-202.7591 707.677,-193.9211"/>
<polygon fill="#c0c0c0" stroke="#c0c0c0" stroke-width="2" points="710.6688,-192.1009 702.7089,-185.1087 704.571,-195.5386 710.6688,-192.1009"/>
</g>
<!-- 19 -->
<g id="node20" class="node">
<title>19</title>
<path fill="none" stroke="#d8ac56" stroke-width="2" d="M795.5,-185C795.5,-185 757.5,-185 757.5,-185 751.5,-185 745.5,-179 745.5,-173 745.5,-173 745.5,-161 745.5,-161 745.5,-155 751.5,-149 757.5,-149 757.5,-149 795.5,-149 795.5,-149 801.5,-149 807.5,-155 807.5,-161 807.5,-161 807.5,-173 807.5,-173 807.5,-179 801.5,-185 795.5,-185"/>
<text text-anchor="middle" x="776.5" y="-170" font-family="sans" font-size="10.00" fill="#000000">vcf_stats</text>
<text text-anchor="middle" x="776.5" y="-159" font-family="sans" font-size="10.00" fill="#000000">ext: lqual</text>
</g>
<!-- 1&#45;&gt;19 -->
<g id="edge31" class="edge">
<title>1&#45;&gt;19</title>
<path fill="none" stroke="#c0c0c0" stroke-width="2" d="M746.1993,-220.7476C750.8832,-212.4394 756.3405,-202.7591 761.323,-193.9211"/>
<polygon fill="#c0c0c0" stroke="#c0c0c0" stroke-width="2" points="764.429,-195.5386 766.2911,-185.1087 758.3312,-192.1009 764.429,-195.5386"/>
</g>
<!-- 20 -->
<g id="node21" class="node">
<title>20</title>
<path fill="none" stroke="#d8ac56" stroke-width="2" d="M879,-185C879,-185 838,-185 838,-185 832,-185 826,-179 826,-173 826,-173 826,-161 826,-161 826,-155 832,-149 838,-149 838,-149 879,-149 879,-149 885,-149 891,-155 891,-161 891,-161 891,-173 891,-173 891,-179 885,-185 879,-185"/>
<text text-anchor="middle" x="858.5" y="-170" font-family="sans" font-size="10.00" fill="#000000">vcf_stats</text>
<text text-anchor="middle" x="858.5" y="-159" font-family="sans" font-size="10.00" fill="#000000">ext: imiss</text>
</g>
<!-- 1&#45;&gt;20 -->
<g id="edge32" class="edge">
<title>1&#45;&gt;20</title>
<path fill="none" stroke="#c0c0c0" stroke-width="2" d="M768.0562,-221.3392C783.9119,-211.813 802.9362,-200.3831 819.4372,-190.4692"/>
<polygon fill="#c0c0c0" stroke="#c0c0c0" stroke-width="2" points="821.5393,-193.2894 828.3087,-185.1392 817.9342,-187.2891 821.5393,-193.2894"/>
</g>
<!-- 21 -->
<g id="node22" class="node">
<title>21</title>
<path fill="none" stroke="#d8ac56" stroke-width="2" d="M962,-185C962,-185 921,-185 921,-185 915,-185 909,-179 909,-173 909,-173 909,-161 909,-161 909,-155 915,-149 921,-149 921,-149 962,-149 962,-149 968,-149 974,-155 974,-161 974,-161 974,-173 974,-173 974,-179 968,-185 962,-185"/>
<text text-anchor="middle" x="941.5" y="-170" font-family="sans" font-size="10.00" fill="#000000">vcf_stats</text>
<text text-anchor="middle" x="941.5" y="-159" font-family="sans" font-size="10.00" fill="#000000">ext: lmiss</text>
</g>
<!-- 1&#45;&gt;21 -->
<g id="edge33" class="edge">
<title>1&#45;&gt;21</title>
<path fill="none" stroke="#c0c0c0" stroke-width="2" d="M768.1884,-230.9696C799.9649,-220.8312 849.0655,-204.6377 899.5022,-185.2544"/>
<polygon fill="#c0c0c0" stroke="#c0c0c0" stroke-width="2" points="900.8729,-188.4769 908.9315,-181.5988 898.3425,-181.9503 900.8729,-188.4769"/>
</g>
<!-- 2 -->
<g id="node3" class="node">
<title>2</title>
<path fill="none" stroke="#d85656" stroke-width="2" d="M247,-185C247,-185 196,-185 196,-185 190,-185 184,-179 184,-173 184,-173 184,-161 184,-161 184,-155 190,-149 196,-149 196,-149 247,-149 247,-149 253,-149 259,-155 259,-161 259,-161 259,-173 259,-173 259,-179 253,-185 247,-185"/>
<text text-anchor="middle" x="221.5" y="-164.5" font-family="sans" font-size="10.00" fill="#000000">merge_bam</text>
</g>
<!-- 2&#45;&gt;0 -->
<g id="edge2" class="edge">
<title>2&#45;&gt;0</title>
<path fill="none" stroke="#c0c0c0" stroke-width="2" d="M234.8983,-148.7275C253.3225,-124.0795 286.0614,-82.0937 302.5,-72 361.2898,-35.9017 442.5262,-23.9332 489.2865,-19.966"/>
<polygon fill="#c0c0c0" stroke="#c0c0c0" stroke-width="2" points="489.5781,-23.454 499.2798,-19.1962 489.0404,-16.4747 489.5781,-23.454"/>
</g>
<!-- 3 -->
<g id="node4" class="node">
<title>3</title>
<path fill="none" stroke="#56a9d8" stroke-width="2" d="M238.5,-113C238.5,-113 176.5,-113 176.5,-113 170.5,-113 164.5,-107 164.5,-101 164.5,-101 164.5,-84 164.5,-84 164.5,-78 170.5,-72 176.5,-72 176.5,-72 238.5,-72 238.5,-72 244.5,-72 250.5,-78 250.5,-84 250.5,-84 250.5,-101 250.5,-101 250.5,-107 244.5,-113 238.5,-113"/>
<text text-anchor="middle" x="207.5" y="-101" font-family="sans" font-size="10.00" fill="#000000">index_bamfile</text>
<text text-anchor="middle" x="207.5" y="-90" font-family="sans" font-size="10.00" fill="#000000">file: merged</text>
<text text-anchor="middle" x="207.5" y="-79" font-family="sans" font-size="10.00" fill="#000000">folder: out</text>
</g>
<!-- 2&#45;&gt;3 -->
<g id="edge16" class="edge">
<title>2&#45;&gt;3</title>
<path fill="none" stroke="#c0c0c0" stroke-width="2" d="M218.111,-148.9656C216.6569,-141.2277 214.9165,-131.9663 213.2699,-123.2038"/>
<polygon fill="#c0c0c0" stroke="#c0c0c0" stroke-width="2" points="216.6894,-122.4494 211.4027,-113.2679 209.8098,-123.7423 216.6894,-122.4494"/>
</g>
<!-- 3&#45;&gt;0 -->
<g id="edge3" class="edge">
<title>3&#45;&gt;0</title>
<path fill="none" stroke="#c0c0c0" stroke-width="2" d="M250.5513,-76.2896C255.2293,-74.7462 259.9445,-73.2817 264.5,-72 343.5494,-49.7601 438.3907,-32.4809 489.4976,-23.9195"/>
<polygon fill="#c0c0c0" stroke="#c0c0c0" stroke-width="2" points="490.1251,-27.3634 499.4182,-22.2754 488.9805,-20.4576 490.1251,-27.3634"/>
</g>
<!-- 4 -->
<g id="node5" class="node">
<title>4</title>
<path fill="none" stroke="#97d856" stroke-width="2" d="M464,-110.5C464,-110.5 357,-110.5 357,-110.5 351,-110.5 345,-104.5 345,-98.5 345,-98.5 345,-86.5 345,-86.5 345,-80.5 351,-74.5 357,-74.5 357,-74.5 464,-74.5 464,-74.5 470,-74.5 476,-80.5 476,-86.5 476,-86.5 476,-98.5 476,-98.5 476,-104.5 470,-110.5 464,-110.5"/>
<text text-anchor="middle" x="410.5" y="-90" font-family="sans" font-size="10.00" fill="#000000">calculate_ldepth_cutoff</text>
</g>
<!-- 4&#45;&gt;0 -->
<g id="edge4" class="edge">
<title>4&#45;&gt;0</title>
<path fill="none" stroke="#c0c0c0" stroke-width="2" d="M438.5804,-74.4656C454.3396,-64.3444 474.1571,-51.6168 490.9862,-40.8084"/>
<polygon fill="#c0c0c0" stroke="#c0c0c0" stroke-width="2" points="492.9542,-43.7042 499.477,-35.3553 489.1714,-37.8143 492.9542,-43.7042"/>
</g>
<!-- 5 -->
<g id="node6" class="node">
<title>5</title>
<path fill="none" stroke="#afd856" stroke-width="2" d="M630,-110.5C630,-110.5 589,-110.5 589,-110.5 583,-110.5 577,-104.5 577,-98.5 577,-98.5 577,-86.5 577,-86.5 577,-80.5 583,-74.5 589,-74.5 589,-74.5 630,-74.5 630,-74.5 636,-74.5 642,-80.5 642,-86.5 642,-86.5 642,-98.5 642,-98.5 642,-104.5 636,-110.5 630,-110.5"/>
<text text-anchor="middle" x="609.5" y="-90" font-family="sans" font-size="10.00" fill="#000000">plot_stats</text>
</g>
<!-- 5&#45;&gt;0 -->
<g id="edge5" class="edge">
<title>5&#45;&gt;0</title>
<path fill="none" stroke="#c0c0c0" stroke-width="2" d="M589.408,-74.4656C578.8831,-65.0186 565.8285,-53.3009 554.3441,-42.9926"/>
<polygon fill="#c0c0c0" stroke="#c0c0c0" stroke-width="2" points="556.4744,-40.2016 546.6946,-36.1265 551.7986,-45.4109 556.4744,-40.2016"/>
</g>
<!-- 6 -->
<g id="node7" class="node">
<title>6</title>
<path fill="none" stroke="#afd856" stroke-width="2" d="M713,-110.5C713,-110.5 672,-110.5 672,-110.5 666,-110.5 660,-104.5 660,-98.5 660,-98.5 660,-86.5 660,-86.5 660,-80.5 666,-74.5 672,-74.5 672,-74.5 713,-74.5 713,-74.5 719,-74.5 725,-80.5 725,-86.5 725,-86.5 725,-98.5 725,-98.5 725,-104.5 719,-110.5 713,-110.5"/>
<text text-anchor="middle" x="692.5" y="-90" font-family="sans" font-size="10.00" fill="#000000">plot_stats</text>
</g>
<!-- 6&#45;&gt;0 -->
<g id="edge6" class="edge">
<title>6&#45;&gt;0</title>
<path fill="none" stroke="#c0c0c0" stroke-width="2" d="M659.9062,-75.9977C657.0726,-74.6255 654.2416,-73.2764 651.5,-72 621.9854,-58.2592 588.0507,-43.6747 562.9933,-33.1308"/>
<polygon fill="#c0c0c0" stroke="#c0c0c0" stroke-width="2" points="564.0907,-29.7958 553.5151,-29.157 561.3841,-36.2513 564.0907,-29.7958"/>
</g>
<!-- 7 -->
<g id="node8" class="node">
<title>7</title>
<path fill="none" stroke="#afd856" stroke-width="2" d="M547,-110.5C547,-110.5 506,-110.5 506,-110.5 500,-110.5 494,-104.5 494,-98.5 494,-98.5 494,-86.5 494,-86.5 494,-80.5 500,-74.5 506,-74.5 506,-74.5 547,-74.5 547,-74.5 553,-74.5 559,-80.5 559,-86.5 559,-86.5 559,-98.5 559,-98.5 559,-104.5 553,-110.5 547,-110.5"/>
<text text-anchor="middle" x="526.5" y="-90" font-family="sans" font-size="10.00" fill="#000000">plot_stats</text>
</g>
<!-- 7&#45;&gt;0 -->
<g id="edge7" class="edge">
<title>7&#45;&gt;0</title>
<path fill="none" stroke="#c0c0c0" stroke-width="2" d="M526.5,-74.4656C526.5,-66.0178 526.5,-55.7542 526.5,-46.3064"/>
<polygon fill="#c0c0c0" stroke="#c0c0c0" stroke-width="2" points="530.0001,-46.1265 526.5,-36.1265 523.0001,-46.1265 530.0001,-46.1265"/>
</g>
<!-- 8 -->
<g id="node9" class="node">
<title>8</title>
<path fill="none" stroke="#afd856" stroke-width="2" d="M796,-110.5C796,-110.5 755,-110.5 755,-110.5 749,-110.5 743,-104.5 743,-98.5 743,-98.5 743,-86.5 743,-86.5 743,-80.5 749,-74.5 755,-74.5 755,-74.5 796,-74.5 796,-74.5 802,-74.5 808,-80.5 808,-86.5 808,-86.5 808,-98.5 808,-98.5 808,-104.5 802,-110.5 796,-110.5"/>
<text text-anchor="middle" x="775.5" y="-90" font-family="sans" font-size="10.00" fill="#000000">plot_stats</text>
</g>
<!-- 8&#45;&gt;0 -->
<g id="edge8" class="edge">
<title>8&#45;&gt;0</title>
<path fill="none" stroke="#c0c0c0" stroke-width="2" d="M742.6476,-75.3313C739.9213,-74.1346 737.1825,-73.0061 734.5,-72 676.2505,-50.1527 605.634,-33.8554 563.4758,-25.1474"/>
<polygon fill="#c0c0c0" stroke="#c0c0c0" stroke-width="2" points="564.1479,-21.7125 553.651,-23.1494 562.7528,-28.5721 564.1479,-21.7125"/>
</g>
<!-- 9 -->
<g id="node10" class="node">
<title>9</title>
<path fill="none" stroke="#afd856" stroke-width="2" d="M879,-110.5C879,-110.5 838,-110.5 838,-110.5 832,-110.5 826,-104.5 826,-98.5 826,-98.5 826,-86.5 826,-86.5 826,-80.5 832,-74.5 838,-74.5 838,-74.5 879,-74.5 879,-74.5 885,-74.5 891,-80.5 891,-86.5 891,-86.5 891,-98.5 891,-98.5 891,-104.5 885,-110.5 879,-110.5"/>
<text text-anchor="middle" x="858.5" y="-90" font-family="sans" font-size="10.00" fill="#000000">plot_stats</text>
</g>
<!-- 9&#45;&gt;0 -->
<g id="edge9" class="edge">
<title>9&#45;&gt;0</title>
<path fill="none" stroke="#c0c0c0" stroke-width="2" d="M825.7225,-75.1204C822.9794,-73.971 820.2163,-72.9109 817.5,-72 729.1691,-42.3783 619.9858,-27.6282 563.7975,-21.543"/>
<polygon fill="#c0c0c0" stroke="#c0c0c0" stroke-width="2" points="563.9249,-18.0372 553.6138,-20.4727 563.1932,-24.9988 563.9249,-18.0372"/>
</g>
<!-- 10 -->
<g id="node11" class="node">
<title>10</title>
<path fill="none" stroke="#afd856" stroke-width="2" d="M962,-110.5C962,-110.5 921,-110.5 921,-110.5 915,-110.5 909,-104.5 909,-98.5 909,-98.5 909,-86.5 909,-86.5 909,-80.5 915,-74.5 921,-74.5 921,-74.5 962,-74.5 962,-74.5 968,-74.5 974,-80.5 974,-86.5 974,-86.5 974,-98.5 974,-98.5 974,-104.5 968,-110.5 962,-110.5"/>
<text text-anchor="middle" x="941.5" y="-90" font-family="sans" font-size="10.00" fill="#000000">plot_stats</text>
</g>
<!-- 10&#45;&gt;0 -->
<g id="edge10" class="edge">
<title>10&#45;&gt;0</title>
<path fill="none" stroke="#c0c0c0" stroke-width="2" d="M908.7617,-74.9993C906.0099,-73.8771 903.234,-72.8563 900.5,-72 781.351,-34.6827 632.6541,-23.0059 564.1955,-19.4705"/>
<polygon fill="#c0c0c0" stroke="#c0c0c0" stroke-width="2" points="564.0723,-15.9605 553.914,-18.9703 563.7321,-22.9522 564.0723,-15.9605"/>
</g>
<!-- 11 -->
<g id="node12" class="node">
<title>11</title>
<path fill="none" stroke="#56d882" stroke-width="2" d="M334,-694C334,-694 299,-694 299,-694 293,-694 287,-688 287,-682 287,-682 287,-670 287,-670 287,-664 293,-658 299,-658 299,-658 334,-658 334,-658 340,-658 346,-664 346,-670 346,-670 346,-682 346,-682 346,-688 340,-694 334,-694"/>
<text text-anchor="middle" x="316.5" y="-673.5" font-family="sans" font-size="10.00" fill="#000000">fa_index</text>
</g>
<!-- 11&#45;&gt;0 -->
<g id="edge11" class="edge">
<title>11&#45;&gt;0</title>
<path fill="none" stroke="#c0c0c0" stroke-width="2" d="M316.5,-657.8146C316.5,-630.4983 316.5,-577.25 316.5,-532 316.5,-532 316.5,-532 316.5,-167 316.5,-123.8522 307.067,-103.5504 336.5,-72 357.1925,-49.8189 440.0266,-32.5058 489.2305,-23.9257"/>
<polygon fill="#c0c0c0" stroke="#c0c0c0" stroke-width="2" points="489.9155,-27.3595 499.1851,-22.2288 488.7391,-20.4591 489.9155,-27.3595"/>
</g>
<!-- 22 -->
<g id="node23" class="node">
<title>22</title>
<path fill="none" stroke="#56c1d8" stroke-width="2" d="M154,-185C154,-185 91,-185 91,-185 85,-185 79,-179 79,-173 79,-173 79,-161 79,-161 79,-155 85,-149 91,-149 91,-149 154,-149 154,-149 160,-149 166,-155 166,-161 166,-161 166,-173 166,-173 166,-179 160,-185 154,-185"/>
<text text-anchor="middle" x="122.5" y="-164.5" font-family="sans" font-size="10.00" fill="#000000">freebayes_csd</text>
</g>
<!-- 11&#45;&gt;22 -->
<g id="edge36" class="edge">
<title>11&#45;&gt;22</title>
<path fill="none" stroke="#c0c0c0" stroke-width="2" d="M306.9567,-657.9269C293.7473,-631.1844 271.5,-579.1461 271.5,-532 271.5,-532 271.5,-532 271.5,-316 271.5,-257.8174 213.9911,-214.4191 170.4294,-189.8918"/>
<polygon fill="#c0c0c0" stroke="#c0c0c0" stroke-width="2" points="172.1015,-186.8171 161.648,-185.0925 168.7445,-192.9596 172.1015,-186.8171"/>
</g>
<!-- 29 -->
<g id="node30" class="node">
<title>29</title>
<path fill="none" stroke="#d88556" stroke-width="2" d="M582,-622C582,-622 505,-622 505,-622 499,-622 493,-616 493,-610 493,-610 493,-598 493,-598 493,-592 499,-586 505,-586 505,-586 582,-586 582,-586 588,-586 594,-592 594,-598 594,-598 594,-610 594,-610 594,-616 588,-622 582,-622"/>
<text text-anchor="middle" x="543.5" y="-601.5" font-family="sans" font-size="10.00" fill="#000000">generate_regions</text>
</g>
<!-- 11&#45;&gt;29 -->
<g id="edge44" class="edge">
<title>11&#45;&gt;29</title>
<path fill="none" stroke="#c0c0c0" stroke-width="2" d="M346.1763,-666.5873C380.8119,-655.6015 438.9775,-637.1525 483.2088,-623.1232"/>
<polygon fill="#c0c0c0" stroke="#c0c0c0" stroke-width="2" points="484.5154,-626.3807 492.9892,-620.021 482.399,-619.7083 484.5154,-626.3807"/>
</g>
<!-- 12 -->
<g id="node13" class="node">
<title>12</title>
<path fill="none" stroke="#56a9d8" stroke-width="2" d="M103,-262C103,-262 12,-262 12,-262 6,-262 0,-256 0,-250 0,-250 0,-233 0,-233 0,-227 6,-221 12,-221 12,-221 103,-221 103,-221 109,-221 115,-227 115,-233 115,-233 115,-250 115,-250 115,-256 109,-262 103,-262"/>
<text text-anchor="middle" x="57.5" y="-250" font-family="sans" font-size="10.00" fill="#000000">index_bamfile</text>
<text text-anchor="middle" x="57.5" y="-239" font-family="sans" font-size="10.00" fill="#000000">file: my_sample</text>
<text text-anchor="middle" x="57.5" y="-228" font-family="sans" font-size="10.00" fill="#000000">folder: out/020_map</text>
</g>
<!-- 12&#45;&gt;0 -->
<g id="edge12" class="edge">
<title>12&#45;&gt;0</title>
<path fill="none" stroke="#c0c0c0" stroke-width="2" d="M51.5564,-220.7533C42.7503,-185.1162 31.1122,-112.2333 69.5,-72 98.3594,-41.7532 385.5345,-24.868 489.3228,-19.715"/>
<polygon fill="#c0c0c0" stroke="#c0c0c0" stroke-width="2" points="489.532,-23.2091 499.3494,-19.2256 489.1906,-16.2174 489.532,-23.2091"/>
</g>
<!-- 12&#45;&gt;22 -->
<g id="edge35" class="edge">
<title>12&#45;&gt;22</title>
<path fill="none" stroke="#c0c0c0" stroke-width="2" d="M75.6061,-220.7476C83.1601,-212.0896 92.0142,-201.9415 99.9818,-192.8093"/>
<polygon fill="#c0c0c0" stroke="#c0c0c0" stroke-width="2" points="102.7635,-194.9449 106.7005,-185.1087 97.4888,-190.3428 102.7635,-194.9449"/>
</g>
<!-- 13 -->
<g id="node14" class="node">
<title>13</title>
<path fill="none" stroke="#566bd8" stroke-width="2" d="M134,-113C134,-113 91,-113 91,-113 85,-113 79,-107 79,-101 79,-101 79,-84 79,-84 79,-78 85,-72 91,-72 91,-72 134,-72 134,-72 140,-72 146,-78 146,-84 146,-84 146,-101 146,-101 146,-107 140,-113 134,-113"/>
<text text-anchor="middle" x="112.5" y="-101" font-family="sans" font-size="10.00" fill="#000000">index_vcf</text>
<text text-anchor="middle" x="112.5" y="-90" font-family="sans" font-size="10.00" fill="#000000">file: csd</text>
<text text-anchor="middle" x="112.5" y="-79" font-family="sans" font-size="10.00" fill="#000000">folder: out</text>
</g>
<!-- 13&#45;&gt;0 -->
<g id="edge13" class="edge">
<title>13&#45;&gt;0</title>
<path fill="none" stroke="#c0c0c0" stroke-width="2" d="M146.3968,-75.2068C149.4309,-74.0063 152.4928,-72.9128 155.5,-72 274.0347,-36.0196 421.3726,-23.6919 489.1743,-19.7345"/>
<polygon fill="#c0c0c0" stroke="#c0c0c0" stroke-width="2" points="489.5661,-23.2182 499.3566,-19.1689 489.1778,-16.229 489.5661,-23.2182"/>
</g>
<!-- 14 -->
<g id="node15" class="node">
<title>14</title>
<path fill="none" stroke="#d86e56" stroke-width="2" d="M734.5,-334C734.5,-334 704.5,-334 704.5,-334 698.5,-334 692.5,-328 692.5,-322 692.5,-322 692.5,-310 692.5,-310 692.5,-304 698.5,-298 704.5,-298 704.5,-298 734.5,-298 734.5,-298 740.5,-298 746.5,-304 746.5,-310 746.5,-310 746.5,-322 746.5,-322 746.5,-328 740.5,-334 734.5,-334"/>
<text text-anchor="middle" x="719.5" y="-313.5" font-family="sans" font-size="10.00" fill="#000000">vcfuniq</text>
</g>
<!-- 14&#45;&gt;1 -->
<g id="edge14" class="edge">
<title>14&#45;&gt;1</title>
<path fill="none" stroke="#c0c0c0" stroke-width="2" d="M723.1311,-297.9656C724.6891,-290.2277 726.5538,-280.9663 728.318,-272.2038"/>
<polygon fill="#c0c0c0" stroke="#c0c0c0" stroke-width="2" points="731.7758,-272.762 730.3185,-262.2679 724.9135,-271.3803 731.7758,-272.762"/>
</g>
<!-- 15 -->
<g id="node16" class="node">
<title>15</title>
<path fill="none" stroke="#56d8a9" stroke-width="2" d="M161.5,-334C161.5,-334 125.5,-334 125.5,-334 119.5,-334 113.5,-328 113.5,-322 113.5,-322 113.5,-310 113.5,-310 113.5,-304 119.5,-298 125.5,-298 125.5,-298 161.5,-298 161.5,-298 167.5,-298 173.5,-304 173.5,-310 173.5,-310 173.5,-322 173.5,-322 173.5,-328 167.5,-334 161.5,-334"/>
<text text-anchor="middle" x="143.5" y="-313.5" font-family="sans" font-size="10.00" fill="#000000">markdup</text>
</g>
<!-- 15&#45;&gt;2 -->
<g id="edge15" class="edge">
<title>15&#45;&gt;2</title>
<path fill="none" stroke="#c0c0c0" stroke-width="2" d="M153.0643,-297.7297C166.5727,-271.9252 191.3452,-224.6035 207.0888,-194.529"/>
<polygon fill="#c0c0c0" stroke="#c0c0c0" stroke-width="2" points="210.3204,-195.9025 211.8574,-185.4198 204.1187,-192.656 210.3204,-195.9025"/>
</g>
<!-- 15&#45;&gt;12 -->
<g id="edge24" class="edge">
<title>15&#45;&gt;12</title>
<path fill="none" stroke="#c0c0c0" stroke-width="2" d="M122.6818,-297.9656C112.6814,-289.3025 100.4767,-278.7298 89.3438,-269.0857"/>
<polygon fill="#c0c0c0" stroke="#c0c0c0" stroke-width="2" points="91.3237,-266.1701 81.4737,-262.2679 86.7403,-271.461 91.3237,-266.1701"/>
</g>
<!-- 15&#45;&gt;22 -->
<g id="edge34" class="edge">
<title>15&#45;&gt;22</title>
<path fill="none" stroke="#c0c0c0" stroke-width="2" d="M140.925,-297.7297C137.3354,-272.2604 130.7913,-225.829 126.5463,-195.7094"/>
<polygon fill="#c0c0c0" stroke="#c0c0c0" stroke-width="2" points="129.9575,-194.8334 125.0961,-185.4198 123.026,-195.8104 129.9575,-194.8334"/>
</g>
<!-- 16&#45;&gt;4 -->
<g id="edge17" class="edge">
<title>16&#45;&gt;4</title>
<path fill="none" stroke="#c0c0c0" stroke-width="2" d="M486.2928,-148.9656C473.2464,-139.2461 456.9738,-127.1229 442.8545,-116.6041"/>
<polygon fill="#c0c0c0" stroke="#c0c0c0" stroke-width="2" points="444.9411,-113.7941 434.8309,-110.6265 440.7591,-119.4076 444.9411,-113.7941"/>
</g>
<!-- 16&#45;&gt;7 -->
<g id="edge20" class="edge">
<title>16&#45;&gt;7</title>
<path fill="none" stroke="#c0c0c0" stroke-width="2" d="M514.3732,-148.9656C516.207,-140.427 518.4392,-130.0333 520.4862,-120.502"/>
<polygon fill="#c0c0c0" stroke="#c0c0c0" stroke-width="2" points="523.9292,-121.1385 522.6071,-110.6265 517.0852,-119.6686 523.9292,-121.1385"/>
</g>
<!-- 17&#45;&gt;5 -->
<g id="edge18" class="edge">
<title>17&#45;&gt;5</title>
<path fill="none" stroke="#c0c0c0" stroke-width="2" d="M609.5,-148.9656C609.5,-140.5178 609.5,-130.2542 609.5,-120.8064"/>
<polygon fill="#c0c0c0" stroke="#c0c0c0" stroke-width="2" points="613.0001,-120.6265 609.5,-110.6265 606.0001,-120.6265 613.0001,-120.6265"/>
</g>
<!-- 18&#45;&gt;6 -->
<g id="edge19" class="edge">
<title>18&#45;&gt;6</title>
<path fill="none" stroke="#c0c0c0" stroke-width="2" d="M692.5,-148.9656C692.5,-140.5178 692.5,-130.2542 692.5,-120.8064"/>
<polygon fill="#c0c0c0" stroke="#c0c0c0" stroke-width="2" points="696.0001,-120.6265 692.5,-110.6265 689.0001,-120.6265 696.0001,-120.6265"/>
</g>
<!-- 19&#45;&gt;8 -->
<g id="edge21" class="edge">
<title>19&#45;&gt;8</title>
<path fill="none" stroke="#c0c0c0" stroke-width="2" d="M776.2579,-148.9656C776.1445,-140.5178 776.0068,-130.2542 775.88,-120.8064"/>
<polygon fill="#c0c0c0" stroke="#c0c0c0" stroke-width="2" points="779.3773,-120.5786 775.7433,-110.6265 772.3779,-120.6726 779.3773,-120.5786"/>
</g>
<!-- 20&#45;&gt;9 -->
<g id="edge22" class="edge">
<title>20&#45;&gt;9</title>
<path fill="none" stroke="#c0c0c0" stroke-width="2" d="M858.5,-148.9656C858.5,-140.5178 858.5,-130.2542 858.5,-120.8064"/>
<polygon fill="#c0c0c0" stroke="#c0c0c0" stroke-width="2" points="862.0001,-120.6265 858.5,-110.6265 855.0001,-120.6265 862.0001,-120.6265"/>
</g>
<!-- 21&#45;&gt;10 -->
<g id="edge23" class="edge">
<title>21&#45;&gt;10</title>
<path fill="none" stroke="#c0c0c0" stroke-width="2" d="M941.5,-148.9656C941.5,-140.5178 941.5,-130.2542 941.5,-120.8064"/>
<polygon fill="#c0c0c0" stroke="#c0c0c0" stroke-width="2" points="945.0001,-120.6265 941.5,-110.6265 938.0001,-120.6265 945.0001,-120.6265"/>
</g>
<!-- 22&#45;&gt;13 -->
<g id="edge25" class="edge">
<title>22&#45;&gt;13</title>
<path fill="none" stroke="#c0c0c0" stroke-width="2" d="M120.0793,-148.9656C119.0406,-141.2277 117.7975,-131.9663 116.6213,-123.2038"/>
<polygon fill="#c0c0c0" stroke="#c0c0c0" stroke-width="2" points="120.087,-122.7133 115.2876,-113.2679 113.1492,-123.6446 120.087,-122.7133"/>
</g>
<!-- 23 -->
<g id="node24" class="node">
<title>23</title>
<path fill="none" stroke="#569ad8" stroke-width="2" d="M692,-406C692,-406 631,-406 631,-406 625,-406 619,-400 619,-394 619,-394 619,-382 619,-382 619,-376 625,-370 631,-370 631,-370 692,-370 692,-370 698,-370 704,-376 704,-382 704,-382 704,-394 704,-394 704,-400 698,-406 692,-406"/>
<text text-anchor="middle" x="661.5" y="-385.5" font-family="sans" font-size="10.00" fill="#000000">vcfstreamsort</text>
</g>
<!-- 23&#45;&gt;14 -->
<g id="edge26" class="edge">
<title>23&#45;&gt;14</title>
<path fill="none" stroke="#c0c0c0" stroke-width="2" d="M676.1358,-369.8314C682.8161,-361.5386 690.8568,-351.557 698.1904,-342.4533"/>
<polygon fill="#c0c0c0" stroke="#c0c0c0" stroke-width="2" points="701.1194,-344.3965 704.6671,-334.4133 695.6681,-340.0052 701.1194,-344.3965"/>
</g>
<!-- 24 -->
<g id="node25" class="node">
<title>24</title>
<path fill="none" stroke="#68d856" stroke-width="2" d="M158.5,-406C158.5,-406 128.5,-406 128.5,-406 122.5,-406 116.5,-400 116.5,-394 116.5,-394 116.5,-382 116.5,-382 116.5,-376 122.5,-370 128.5,-370 128.5,-370 158.5,-370 158.5,-370 164.5,-370 170.5,-376 170.5,-382 170.5,-382 170.5,-394 170.5,-394 170.5,-400 164.5,-406 158.5,-406"/>
<text text-anchor="middle" x="143.5" y="-385.5" font-family="sans" font-size="10.00" fill="#000000">sort</text>
</g>
<!-- 24&#45;&gt;15 -->
<g id="edge27" class="edge">
<title>24&#45;&gt;15</title>
<path fill="none" stroke="#c0c0c0" stroke-width="2" d="M143.5,-369.8314C143.5,-362.131 143.5,-352.9743 143.5,-344.4166"/>
<polygon fill="#c0c0c0" stroke="#c0c0c0" stroke-width="2" points="147.0001,-344.4132 143.5,-334.4133 140.0001,-344.4133 147.0001,-344.4132"/>
</g>
<!-- 25 -->
<g id="node26" class="node">
<title>25</title>
<path fill="none" stroke="#d6d856" stroke-width="2" d="M618,-478C618,-478 557,-478 557,-478 551,-478 545,-472 545,-466 545,-466 545,-454 545,-454 545,-448 551,-442 557,-442 557,-442 618,-442 618,-442 624,-442 630,-448 630,-454 630,-454 630,-466 630,-466 630,-472 624,-478 618,-478"/>
<text text-anchor="middle" x="587.5" y="-457.5" font-family="sans" font-size="10.00" fill="#000000">vcffirstheader</text>
</g>
<!-- 25&#45;&gt;23 -->
<g id="edge37" class="edge">
<title>25&#45;&gt;23</title>
<path fill="none" stroke="#c0c0c0" stroke-width="2" d="M606.1733,-441.8314C615.0249,-433.219 625.7486,-422.7851 635.3895,-413.4048"/>
<polygon fill="#c0c0c0" stroke="#c0c0c0" stroke-width="2" points="638.1061,-415.645 642.8326,-406.1628 633.2246,-410.6279 638.1061,-415.645"/>
</g>
<!-- 26 -->
<g id="node27" class="node">
<title>26</title>
<path fill="none" stroke="#56d8d8" stroke-width="2" d="M159,-478C159,-478 128,-478 128,-478 122,-478 116,-472 116,-466 116,-466 116,-454 116,-454 116,-448 122,-442 128,-442 128,-442 159,-442 159,-442 165,-442 171,-448 171,-454 171,-454 171,-466 171,-466 171,-472 165,-478 159,-478"/>
<text text-anchor="middle" x="143.5" y="-457.5" font-family="sans" font-size="10.00" fill="#000000">fixmate</text>
</g>
<!-- 26&#45;&gt;24 -->
<g id="edge38" class="edge">
<title>26&#45;&gt;24</title>
<path fill="none" stroke="#c0c0c0" stroke-width="2" d="M143.5,-441.8314C143.5,-434.131 143.5,-424.9743 143.5,-416.4166"/>
<polygon fill="#c0c0c0" stroke="#c0c0c0" stroke-width="2" points="147.0001,-416.4132 143.5,-406.4133 140.0001,-416.4133 147.0001,-416.4132"/>
</g>
<!-- 27 -->
<g id="node28" class="node">
<title>27</title>
<path fill="none" stroke="#59d856" stroke-width="2" d="M586,-550C586,-550 531,-550 531,-550 525,-550 519,-544 519,-538 519,-538 519,-526 519,-526 519,-520 525,-514 531,-514 531,-514 586,-514 586,-514 592,-514 598,-520 598,-526 598,-526 598,-538 598,-538 598,-544 592,-550 586,-550"/>
<text text-anchor="middle" x="558.5" y="-529.5" font-family="sans" font-size="10.00" fill="#000000">combine_vcf</text>
</g>
<!-- 27&#45;&gt;25 -->
<g id="edge39" class="edge">
<title>27&#45;&gt;25</title>
<path fill="none" stroke="#c0c0c0" stroke-width="2" d="M565.8179,-513.8314C568.9876,-505.9617 572.77,-496.5712 576.2813,-487.8533"/>
<polygon fill="#c0c0c0" stroke="#c0c0c0" stroke-width="2" points="579.5939,-488.9968 580.0835,-478.4133 573.1008,-486.3815 579.5939,-488.9968"/>
</g>
<!-- 28 -->
<g id="node29" class="node">
<title>28</title>
<path fill="none" stroke="#d8c356" stroke-width="2" d="M163.5,-550C163.5,-550 123.5,-550 123.5,-550 117.5,-550 111.5,-544 111.5,-538 111.5,-538 111.5,-526 111.5,-526 111.5,-520 117.5,-514 123.5,-514 123.5,-514 163.5,-514 163.5,-514 169.5,-514 175.5,-520 175.5,-526 175.5,-526 175.5,-538 175.5,-538 175.5,-544 169.5,-550 163.5,-550"/>
<text text-anchor="middle" x="143.5" y="-529.5" font-family="sans" font-size="10.00" fill="#000000">bwa_map</text>
</g>
<!-- 28&#45;&gt;26 -->
<g id="edge40" class="edge">
<title>28&#45;&gt;26</title>
<path fill="none" stroke="#c0c0c0" stroke-width="2" d="M143.5,-513.8314C143.5,-506.131 143.5,-496.9743 143.5,-488.4166"/>
<polygon fill="#c0c0c0" stroke="#c0c0c0" stroke-width="2" points="147.0001,-488.4132 143.5,-478.4133 140.0001,-488.4133 147.0001,-488.4132"/>
</g>
<!-- 29&#45;&gt;27 -->
<g id="edge41" class="edge">
<title>29&#45;&gt;27</title>
<path fill="none" stroke="#c0c0c0" stroke-width="2" d="M547.2851,-585.8314C548.8894,-578.131 550.797,-568.9743 552.5799,-560.4166"/>
<polygon fill="#c0c0c0" stroke="#c0c0c0" stroke-width="2" points="556.0507,-560.9169 554.6639,-550.4133 549.1979,-559.4892 556.0507,-560.9169"/>
</g>
<!-- 30 -->
<g id="node31" class="node">
<title>30</title>
<path fill="none" stroke="#5682d8" stroke-width="2" d="M218.5,-622C218.5,-622 188.5,-622 188.5,-622 182.5,-622 176.5,-616 176.5,-610 176.5,-610 176.5,-598 176.5,-598 176.5,-592 182.5,-586 188.5,-586 188.5,-586 218.5,-586 218.5,-586 224.5,-586 230.5,-592 230.5,-598 230.5,-598 230.5,-610 230.5,-610 230.5,-616 224.5,-622 218.5,-622"/>
<text text-anchor="middle" x="203.5" y="-601.5" font-family="sans" font-size="10.00" fill="#000000">trim</text>
</g>
<!-- 30&#45;&gt;28 -->
<g id="edge42" class="edge">
<title>30&#45;&gt;28</title>
<path fill="none" stroke="#c0c0c0" stroke-width="2" d="M188.3595,-585.8314C181.3783,-577.454 172.9609,-567.3531 165.3124,-558.1749"/>
<polygon fill="#c0c0c0" stroke="#c0c0c0" stroke-width="2" points="167.9351,-555.8548 158.8444,-550.4133 162.5575,-560.3362 167.9351,-555.8548"/>
</g>
<!-- 31 -->
<g id="node32" class="node">
<title>31</title>
<path fill="none" stroke="#56d89a" stroke-width="2" d="M146,-622C146,-622 101,-622 101,-622 95,-622 89,-616 89,-610 89,-610 89,-598 89,-598 89,-592 95,-586 101,-586 101,-586 146,-586 146,-586 152,-586 158,-592 158,-598 158,-598 158,-610 158,-610 158,-616 152,-622 146,-622"/>
<text text-anchor="middle" x="123.5" y="-601.5" font-family="sans" font-size="10.00" fill="#000000">bwa_index</text>
</g>
<!-- 31&#45;&gt;28 -->
<g id="edge43" class="edge">
<title>31&#45;&gt;28</title>
<path fill="none" stroke="#c0c0c0" stroke-width="2" d="M128.5468,-585.8314C130.7094,-578.0463 133.2853,-568.7729 135.6848,-560.1347"/>
<polygon fill="#c0c0c0" stroke="#c0c0c0" stroke-width="2" points="139.081,-560.9852 138.3852,-550.4133 132.3364,-559.1117 139.081,-560.9852"/>
</g>
<!-- 32 -->
<g id="node33" class="node">
<title>32</title>
<path fill="none" stroke="#c6d856" stroke-width="2" d="M218.5,-694C218.5,-694 188.5,-694 188.5,-694 182.5,-694 176.5,-688 176.5,-682 176.5,-682 176.5,-670 176.5,-670 176.5,-664 182.5,-658 188.5,-658 188.5,-658 218.5,-658 218.5,-658 224.5,-658 230.5,-664 230.5,-670 230.5,-670 230.5,-682 230.5,-682 230.5,-688 224.5,-694 218.5,-694"/>
<text text-anchor="middle" x="203.5" y="-673.5" font-family="sans" font-size="10.00" fill="#000000">filter</text>
</g>
<!-- 32&#45;&gt;30 -->
<g id="edge45" class="edge">
<title>32&#45;&gt;30</title>
<path fill="none" stroke="#c0c0c0" stroke-width="2" d="M203.5,-657.8314C203.5,-650.131 203.5,-640.9743 203.5,-632.4166"/>
<polygon fill="#c0c0c0" stroke="#c0c0c0" stroke-width="2" points="207.0001,-632.4132 203.5,-622.4133 200.0001,-632.4133 207.0001,-632.4132"/>
</g>
<!-- 33 -->
<g id="node34" class="node">
<title>33</title>
<path fill="none" stroke="#56d86b" stroke-width="2" d="M239,-766C239,-766 168,-766 168,-766 162,-766 156,-760 156,-754 156,-754 156,-742 156,-742 156,-736 162,-730 168,-730 168,-730 239,-730 239,-730 245,-730 251,-736 251,-742 251,-742 251,-754 251,-754 251,-760 245,-766 239,-766"/>
<text text-anchor="middle" x="203.5" y="-745.5" font-family="sans" font-size="10.00" fill="#000000">check_barcodes</text>
</g>
<!-- 33&#45;&gt;32 -->
<g id="edge46" class="edge">
<title>33&#45;&gt;32</title>
<path fill="none" stroke="#c0c0c0" stroke-width="2" d="M203.5,-729.8314C203.5,-722.131 203.5,-712.9743 203.5,-704.4166"/>
<polygon fill="#c0c0c0" stroke="#c0c0c0" stroke-width="2" points="207.0001,-704.4132 203.5,-694.4133 200.0001,-704.4133 207.0001,-704.4132"/>
</g>
<!-- 34 -->
<g id="node35" class="node">
<title>34</title>
<path fill="none" stroke="#d89556" stroke-width="2" d="M266,-838C266,-838 141,-838 141,-838 135,-838 129,-832 129,-826 129,-826 129,-814 129,-814 129,-808 135,-802 141,-802 141,-802 266,-802 266,-802 272,-802 278,-808 278,-814 278,-814 278,-826 278,-826 278,-832 272,-838 266,-838"/>
<text text-anchor="middle" x="203.5" y="-823" font-family="sans" font-size="10.00" fill="#000000">check_pairing</text>
<text text-anchor="middle" x="203.5" y="-812" font-family="sans" font-size="10.00" fill="#000000">sample_name: my_sample</text>
</g>
<!-- 34&#45;&gt;33 -->
<g id="edge47" class="edge">
<title>34&#45;&gt;33</title>
<path fill="none" stroke="#c0c0c0" stroke-width="2" d="M203.5,-801.8314C203.5,-794.131 203.5,-784.9743 203.5,-776.4166"/>
<polygon fill="#c0c0c0" stroke="#c0c0c0" stroke-width="2" points="207.0001,-776.4132 203.5,-766.4133 200.0001,-776.4133 207.0001,-776.4132"/>
</g>
</g>
</svg>
