<?xml version="1.0" encoding="UTF-8" standalone="no"?>
<!DOCTYPE svg PUBLIC "-//W3C//DTD SVG 1.1//EN"
 "http://www.w3.org/Graphics/SVG/1.1/DTD/svg11.dtd">
<!-- Generated by graphviz version 2.40.1 (20161225.0304)
 -->
<!-- Title: snakemake_dag Pages: 1 -->
<svg width="362pt" height="764pt"
 viewBox="0.00 0.00 362.00 764.00" xmlns="http://www.w3.org/2000/svg" xmlns:xlink="http://www.w3.org/1999/xlink">
<g id="graph0" class="graph" transform="scale(1 1) rotate(0) translate(4 760)">
<title>snakemake_dag</title>
<polygon fill="#ffffff" stroke="transparent" points="-4,4 -4,-760 358,-760 358,4 -4,4"/>
<!-- 0 -->
<g id="node1" class="node">
<title>0</title>
<path fill="none" stroke="#569ad8" stroke-width="2" d="M220.5,-36C220.5,-36 190.5,-36 190.5,-36 184.5,-36 178.5,-30 178.5,-24 178.5,-24 178.5,-12 178.5,-12 178.5,-6 184.5,0 190.5,0 190.5,0 220.5,0 220.5,0 226.5,0 232.5,-6 232.5,-12 232.5,-12 232.5,-24 232.5,-24 232.5,-30 226.5,-36 220.5,-36"/>
<text text-anchor="middle" x="205.5" y="-15.5" font-family="sans" font-size="10.00" fill="#000000">target</text>
</g>
<!-- 1 -->
<g id="node2" class="node">
<title>1</title>
<path fill="none" stroke="#afd856" stroke-width="2" d="M109.5,-108C109.5,-108 47.5,-108 47.5,-108 41.5,-108 35.5,-102 35.5,-96 35.5,-96 35.5,-84 35.5,-84 35.5,-78 41.5,-72 47.5,-72 47.5,-72 109.5,-72 109.5,-72 115.5,-72 121.5,-78 121.5,-84 121.5,-84 121.5,-96 121.5,-96 121.5,-102 115.5,-108 109.5,-108"/>
<text text-anchor="middle" x="78.5" y="-87.5" font-family="sans" font-size="10.00" fill="#000000">index_bamfile</text>
</g>
<!-- 1&#45;&gt;0 -->
<g id="edge2" class="edge">
<title>1&#45;&gt;0</title>
<path fill="none" stroke="#c0c0c0" stroke-width="2" d="M110.5475,-71.8314C128.4816,-61.664 150.8938,-48.9578 169.4396,-38.4437"/>
<polygon fill="#c0c0c0" stroke="#c0c0c0" stroke-width="2" points="171.2237,-41.4556 178.1968,-33.479 167.7714,-35.3661 171.2237,-41.4556"/>
</g>
<!-- 2 -->
<g id="node3" class="node">
<title>2</title>
<path fill="none" stroke="#68d856" stroke-width="2" d="M259,-108C259,-108 152,-108 152,-108 146,-108 140,-102 140,-96 140,-96 140,-84 140,-84 140,-78 146,-72 152,-72 152,-72 259,-72 259,-72 265,-72 271,-78 271,-84 271,-84 271,-96 271,-96 271,-102 265,-108 259,-108"/>
<text text-anchor="middle" x="205.5" y="-87.5" font-family="sans" font-size="10.00" fill="#000000">calculate_ldepth_cutoff</text>
</g>
<!-- 2&#45;&gt;0 -->
<g id="edge3" class="edge">
<title>2&#45;&gt;0</title>
<path fill="none" stroke="#c0c0c0" stroke-width="2" d="M205.5,-71.8314C205.5,-64.131 205.5,-54.9743 205.5,-46.4166"/>
<polygon fill="#c0c0c0" stroke="#c0c0c0" stroke-width="2" points="209.0001,-46.4132 205.5,-36.4133 202.0001,-46.4133 209.0001,-46.4132"/>
</g>
<!-- 3 -->
<g id="node4" class="node">
<title>3</title>
<path fill="none" stroke="#56d8c1" stroke-width="2" d="M342,-108C342,-108 301,-108 301,-108 295,-108 289,-102 289,-96 289,-96 289,-84 289,-84 289,-78 295,-72 301,-72 301,-72 342,-72 342,-72 348,-72 354,-78 354,-84 354,-84 354,-96 354,-96 354,-102 348,-108 342,-108"/>
<text text-anchor="middle" x="321.5" y="-87.5" font-family="sans" font-size="10.00" fill="#000000">plot_stats</text>
</g>
<!-- 3&#45;&gt;0 -->
<g id="edge1" class="edge">
<title>3&#45;&gt;0</title>
<path fill="none" stroke="#c0c0c0" stroke-width="2" d="M292.2283,-71.8314C276.8249,-62.2706 257.8049,-50.4651 241.5053,-40.3481"/>
<polygon fill="#c0c0c0" stroke="#c0c0c0" stroke-width="2" points="243.1123,-37.2262 232.7701,-34.9263 239.4208,-43.1737 243.1123,-37.2262"/>
</g>
<!-- 4 -->
<g id="node5" class="node">
<title>4</title>
<path fill="none" stroke="#5682d8" stroke-width="2" d="M104,-180C104,-180 53,-180 53,-180 47,-180 41,-174 41,-168 41,-168 41,-156 41,-156 41,-150 47,-144 53,-144 53,-144 104,-144 104,-144 110,-144 116,-150 116,-156 116,-156 116,-168 116,-168 116,-174 110,-180 104,-180"/>
<text text-anchor="middle" x="78.5" y="-159.5" font-family="sans" font-size="10.00" fill="#000000">merge_bam</text>
</g>
<!-- 4&#45;&gt;1 -->
<g id="edge4" class="edge">
<title>4&#45;&gt;1</title>
<path fill="none" stroke="#c0c0c0" stroke-width="2" d="M78.5,-143.8314C78.5,-136.131 78.5,-126.9743 78.5,-118.4166"/>
<polygon fill="#c0c0c0" stroke="#c0c0c0" stroke-width="2" points="82.0001,-118.4132 78.5,-108.4133 75.0001,-118.4133 82.0001,-118.4132"/>
</g>
<!-- 5 -->
<g id="node6" class="node">
<title>5</title>
<path fill="none" stroke="#566bd8" stroke-width="2" d="M255,-180C255,-180 218,-180 218,-180 212,-180 206,-174 206,-168 206,-168 206,-156 206,-156 206,-150 212,-144 218,-144 218,-144 255,-144 255,-144 261,-144 267,-150 267,-156 267,-156 267,-168 267,-168 267,-174 261,-180 255,-180"/>
<text text-anchor="middle" x="236.5" y="-159.5" font-family="sans" font-size="10.00" fill="#000000">vcf_stats</text>
</g>
<!-- 5&#45;&gt;2 -->
<g id="edge5" class="edge">
<title>5&#45;&gt;2</title>
<path fill="none" stroke="#c0c0c0" stroke-width="2" d="M228.6774,-143.8314C225.2891,-135.9617 221.2459,-126.5712 217.4924,-117.8533"/>
<polygon fill="#c0c0c0" stroke="#c0c0c0" stroke-width="2" points="220.5973,-116.214 213.4279,-108.4133 214.1679,-118.9822 220.5973,-116.214"/>
</g>
<!-- 5&#45;&gt;3 -->
<g id="edge6" class="edge">
<title>5&#45;&gt;3</title>
<path fill="none" stroke="#c0c0c0" stroke-width="2" d="M257.9491,-143.8314C268.3178,-135.0485 280.9229,-124.3712 292.1646,-114.8489"/>
<polygon fill="#c0c0c0" stroke="#c0c0c0" stroke-width="2" points="294.6895,-117.297 300.0578,-108.1628 290.1651,-111.9556 294.6895,-117.297"/>
</g>
<!-- 6 -->
<g id="node7" class="node">
<title>6</title>
<path fill="none" stroke="#56d8d8" stroke-width="2" d="M96.5,-252C96.5,-252 60.5,-252 60.5,-252 54.5,-252 48.5,-246 48.5,-240 48.5,-240 48.5,-228 48.5,-228 48.5,-222 54.5,-216 60.5,-216 60.5,-216 96.5,-216 96.5,-216 102.5,-216 108.5,-222 108.5,-228 108.5,-228 108.5,-240 108.5,-240 108.5,-246 102.5,-252 96.5,-252"/>
<text text-anchor="middle" x="78.5" y="-231.5" font-family="sans" font-size="10.00" fill="#000000">markdup</text>
</g>
<!-- 6&#45;&gt;4 -->
<g id="edge7" class="edge">
<title>6&#45;&gt;4</title>
<path fill="none" stroke="#c0c0c0" stroke-width="2" d="M78.5,-215.8314C78.5,-208.131 78.5,-198.9743 78.5,-190.4166"/>
<polygon fill="#c0c0c0" stroke="#c0c0c0" stroke-width="2" points="82.0001,-190.4132 78.5,-180.4133 75.0001,-190.4133 82.0001,-190.4132"/>
</g>
<!-- 7 -->
<g id="node8" class="node">
<title>7</title>
<path fill="none" stroke="#c6d856" stroke-width="2" d="M256.5,-252C256.5,-252 216.5,-252 216.5,-252 210.5,-252 204.5,-246 204.5,-240 204.5,-240 204.5,-228 204.5,-228 204.5,-222 210.5,-216 216.5,-216 216.5,-216 256.5,-216 256.5,-216 262.5,-216 268.5,-222 268.5,-228 268.5,-228 268.5,-240 268.5,-240 268.5,-246 262.5,-252 256.5,-252"/>
<text text-anchor="middle" x="236.5" y="-231.5" font-family="sans" font-size="10.00" fill="#000000">index_vcf</text>
</g>
<!-- 7&#45;&gt;5 -->
<g id="edge8" class="edge">
<title>7&#45;&gt;5</title>
<path fill="none" stroke="#c0c0c0" stroke-width="2" d="M236.5,-215.8314C236.5,-208.131 236.5,-198.9743 236.5,-190.4166"/>
<polygon fill="#c0c0c0" stroke="#c0c0c0" stroke-width="2" points="240.0001,-190.4132 236.5,-180.4133 233.0001,-190.4133 240.0001,-190.4132"/>
</g>
<!-- 8 -->
<g id="node9" class="node">
<title>8</title>
<path fill="none" stroke="#56d8a9" stroke-width="2" d="M93.5,-324C93.5,-324 63.5,-324 63.5,-324 57.5,-324 51.5,-318 51.5,-312 51.5,-312 51.5,-300 51.5,-300 51.5,-294 57.5,-288 63.5,-288 63.5,-288 93.5,-288 93.5,-288 99.5,-288 105.5,-294 105.5,-300 105.5,-300 105.5,-312 105.5,-312 105.5,-318 99.5,-324 93.5,-324"/>
<text text-anchor="middle" x="78.5" y="-303.5" font-family="sans" font-size="10.00" fill="#000000">sort</text>
</g>
<!-- 8&#45;&gt;6 -->
<g id="edge9" class="edge">
<title>8&#45;&gt;6</title>
<path fill="none" stroke="#c0c0c0" stroke-width="2" d="M78.5,-287.8314C78.5,-280.131 78.5,-270.9743 78.5,-262.4166"/>
<polygon fill="#c0c0c0" stroke="#c0c0c0" stroke-width="2" points="82.0001,-262.4132 78.5,-252.4133 75.0001,-262.4133 82.0001,-262.4132"/>
</g>
<!-- 9 -->
<g id="node10" class="node">
<title>9</title>
<path fill="none" stroke="#d85656" stroke-width="2" d="M251.5,-324C251.5,-324 221.5,-324 221.5,-324 215.5,-324 209.5,-318 209.5,-312 209.5,-312 209.5,-300 209.5,-300 209.5,-294 215.5,-288 221.5,-288 221.5,-288 251.5,-288 251.5,-288 257.5,-288 263.5,-294 263.5,-300 263.5,-300 263.5,-312 263.5,-312 263.5,-318 257.5,-324 251.5,-324"/>
<text text-anchor="middle" x="236.5" y="-303.5" font-family="sans" font-size="10.00" fill="#000000">vcfuniq</text>
</g>
<!-- 9&#45;&gt;7 -->
<g id="edge10" class="edge">
<title>9&#45;&gt;7</title>
<path fill="none" stroke="#c0c0c0" stroke-width="2" d="M236.5,-287.8314C236.5,-280.131 236.5,-270.9743 236.5,-262.4166"/>
<polygon fill="#c0c0c0" stroke="#c0c0c0" stroke-width="2" points="240.0001,-262.4132 236.5,-252.4133 233.0001,-262.4133 240.0001,-262.4132"/>
</g>
<!-- 10 -->
<g id="node11" class="node">
<title>10</title>
<path fill="none" stroke="#d8ac56" stroke-width="2" d="M94,-396C94,-396 63,-396 63,-396 57,-396 51,-390 51,-384 51,-384 51,-372 51,-372 51,-366 57,-360 63,-360 63,-360 94,-360 94,-360 100,-360 106,-366 106,-372 106,-372 106,-384 106,-384 106,-390 100,-396 94,-396"/>
<text text-anchor="middle" x="78.5" y="-375.5" font-family="sans" font-size="10.00" fill="#000000">fixmate</text>
</g>
<!-- 10&#45;&gt;8 -->
<g id="edge11" class="edge">
<title>10&#45;&gt;8</title>
<path fill="none" stroke="#c0c0c0" stroke-width="2" d="M78.5,-359.8314C78.5,-352.131 78.5,-342.9743 78.5,-334.4166"/>
<polygon fill="#c0c0c0" stroke="#c0c0c0" stroke-width="2" points="82.0001,-334.4132 78.5,-324.4133 75.0001,-334.4133 82.0001,-334.4132"/>
</g>
<!-- 11 -->
<g id="node12" class="node">
<title>11</title>
<path fill="none" stroke="#97d856" stroke-width="2" d="M267,-396C267,-396 206,-396 206,-396 200,-396 194,-390 194,-384 194,-384 194,-372 194,-372 194,-366 200,-360 206,-360 206,-360 267,-360 267,-360 273,-360 279,-366 279,-372 279,-372 279,-384 279,-384 279,-390 273,-396 267,-396"/>
<text text-anchor="middle" x="236.5" y="-375.5" font-family="sans" font-size="10.00" fill="#000000">vcfstreamsort</text>
</g>
<!-- 11&#45;&gt;9 -->
<g id="edge12" class="edge">
<title>11&#45;&gt;9</title>
<path fill="none" stroke="#c0c0c0" stroke-width="2" d="M236.5,-359.8314C236.5,-352.131 236.5,-342.9743 236.5,-334.4166"/>
<polygon fill="#c0c0c0" stroke="#c0c0c0" stroke-width="2" points="240.0001,-334.4132 236.5,-324.4133 233.0001,-334.4133 240.0001,-334.4132"/>
</g>
<!-- 12 -->
<g id="node13" class="node">
<title>12</title>
<path fill="none" stroke="#d89556" stroke-width="2" d="M98.5,-468C98.5,-468 58.5,-468 58.5,-468 52.5,-468 46.5,-462 46.5,-456 46.5,-456 46.5,-444 46.5,-444 46.5,-438 52.5,-432 58.5,-432 58.5,-432 98.5,-432 98.5,-432 104.5,-432 110.5,-438 110.5,-444 110.5,-444 110.5,-456 110.5,-456 110.5,-462 104.5,-468 98.5,-468"/>
<text text-anchor="middle" x="78.5" y="-447.5" font-family="sans" font-size="10.00" fill="#000000">bwa_map</text>
</g>
<!-- 12&#45;&gt;10 -->
<g id="edge13" class="edge">
<title>12&#45;&gt;10</title>
<path fill="none" stroke="#c0c0c0" stroke-width="2" d="M78.5,-431.8314C78.5,-424.131 78.5,-414.9743 78.5,-406.4166"/>
<polygon fill="#c0c0c0" stroke="#c0c0c0" stroke-width="2" points="82.0001,-406.4132 78.5,-396.4133 75.0001,-406.4133 82.0001,-406.4132"/>
</g>
<!-- 13 -->
<g id="node14" class="node">
<title>13</title>
<path fill="none" stroke="#56d86b" stroke-width="2" d="M267,-468C267,-468 206,-468 206,-468 200,-468 194,-462 194,-456 194,-456 194,-444 194,-444 194,-438 200,-432 206,-432 206,-432 267,-432 267,-432 273,-432 279,-438 279,-444 279,-444 279,-456 279,-456 279,-462 273,-468 267,-468"/>
<text text-anchor="middle" x="236.5" y="-447.5" font-family="sans" font-size="10.00" fill="#000000">vcffirstheader</text>
</g>
<!-- 13&#45;&gt;11 -->
<g id="edge14" class="edge">
<title>13&#45;&gt;11</title>
<path fill="none" stroke="#c0c0c0" stroke-width="2" d="M236.5,-431.8314C236.5,-424.131 236.5,-414.9743 236.5,-406.4166"/>
<polygon fill="#c0c0c0" stroke="#c0c0c0" stroke-width="2" points="240.0001,-406.4132 236.5,-396.4133 233.0001,-406.4133 240.0001,-406.4132"/>
</g>
<!-- 14 -->
<g id="node15" class="node">
<title>14</title>
<path fill="none" stroke="#59d856" stroke-width="2" d="M62.5,-540C62.5,-540 32.5,-540 32.5,-540 26.5,-540 20.5,-534 20.5,-528 20.5,-528 20.5,-516 20.5,-516 20.5,-510 26.5,-504 32.5,-504 32.5,-504 62.5,-504 62.5,-504 68.5,-504 74.5,-510 74.5,-516 74.5,-516 74.5,-528 74.5,-528 74.5,-534 68.5,-540 62.5,-540"/>
<text text-anchor="middle" x="47.5" y="-519.5" font-family="sans" font-size="10.00" fill="#000000">trim</text>
</g>
<!-- 14&#45;&gt;12 -->
<g id="edge15" class="edge">
<title>14&#45;&gt;12</title>
<path fill="none" stroke="#c0c0c0" stroke-width="2" d="M55.3226,-503.8314C58.7109,-495.9617 62.7541,-486.5712 66.5076,-477.8533"/>
<polygon fill="#c0c0c0" stroke="#c0c0c0" stroke-width="2" points="69.8321,-478.9822 70.5721,-468.4133 63.4027,-476.214 69.8321,-478.9822"/>
</g>
<!-- 15 -->
<g id="node16" class="node">
<title>15</title>
<path fill="none" stroke="#56a9d8" stroke-width="2" d="M150,-540C150,-540 105,-540 105,-540 99,-540 93,-534 93,-528 93,-528 93,-516 93,-516 93,-510 99,-504 105,-504 105,-504 150,-504 150,-504 156,-504 162,-510 162,-516 162,-516 162,-528 162,-528 162,-534 156,-540 150,-540"/>
<text text-anchor="middle" x="127.5" y="-519.5" font-family="sans" font-size="10.00" fill="#000000">bwa_index</text>
</g>
<!-- 15&#45;&gt;12 -->
<g id="edge16" class="edge">
<title>15&#45;&gt;12</title>
<path fill="none" stroke="#c0c0c0" stroke-width="2" d="M115.1352,-503.8314C109.5491,-495.6232 102.837,-485.7606 96.6928,-476.7323"/>
<polygon fill="#c0c0c0" stroke="#c0c0c0" stroke-width="2" points="99.551,-474.7112 91.0313,-468.4133 93.764,-478.6496 99.551,-474.7112"/>
</g>
<!-- 16 -->
<g id="node17" class="node">
<title>16</title>
<path fill="none" stroke="#56d882" stroke-width="2" d="M264,-540C264,-540 209,-540 209,-540 203,-540 197,-534 197,-528 197,-528 197,-516 197,-516 197,-510 203,-504 209,-504 209,-504 264,-504 264,-504 270,-504 276,-510 276,-516 276,-516 276,-528 276,-528 276,-534 270,-540 264,-540"/>
<text text-anchor="middle" x="236.5" y="-519.5" font-family="sans" font-size="10.00" fill="#000000">combine_vcf</text>
</g>
<!-- 16&#45;&gt;13 -->
<g id="edge17" class="edge">
<title>16&#45;&gt;13</title>
<path fill="none" stroke="#c0c0c0" stroke-width="2" d="M236.5,-503.8314C236.5,-496.131 236.5,-486.9743 236.5,-478.4166"/>
<polygon fill="#c0c0c0" stroke="#c0c0c0" stroke-width="2" points="240.0001,-478.4132 236.5,-468.4133 233.0001,-478.4133 240.0001,-478.4132"/>
</g>
<!-- 17 -->
<g id="node18" class="node">
<title>17</title>
<path fill="none" stroke="#56c1d8" stroke-width="2" d="M62.5,-612C62.5,-612 32.5,-612 32.5,-612 26.5,-612 20.5,-606 20.5,-600 20.5,-600 20.5,-588 20.5,-588 20.5,-582 26.5,-576 32.5,-576 32.5,-576 62.5,-576 62.5,-576 68.5,-576 74.5,-582 74.5,-588 74.5,-588 74.5,-600 74.5,-600 74.5,-606 68.5,-612 62.5,-612"/>
<text text-anchor="middle" x="47.5" y="-591.5" font-family="sans" font-size="10.00" fill="#000000">filter</text>
</g>
<!-- 17&#45;&gt;14 -->
<g id="edge18" class="edge">
<title>17&#45;&gt;14</title>
<path fill="none" stroke="#c0c0c0" stroke-width="2" d="M47.5,-575.8314C47.5,-568.131 47.5,-558.9743 47.5,-550.4166"/>
<polygon fill="#c0c0c0" stroke="#c0c0c0" stroke-width="2" points="51.0001,-550.4132 47.5,-540.4133 44.0001,-550.4133 51.0001,-550.4132"/>
</g>
<!-- 18 -->
<g id="node19" class="node">
<title>18</title>
<path fill="none" stroke="#56d89a" stroke-width="2" d="M275,-612C275,-612 198,-612 198,-612 192,-612 186,-606 186,-600 186,-600 186,-588 186,-588 186,-582 192,-576 198,-576 198,-576 275,-576 275,-576 281,-576 287,-582 287,-588 287,-588 287,-600 287,-600 287,-606 281,-612 275,-612"/>
<text text-anchor="middle" x="236.5" y="-591.5" font-family="sans" font-size="10.00" fill="#000000">generate_regions</text>
</g>
<!-- 18&#45;&gt;16 -->
<g id="edge19" class="edge">
<title>18&#45;&gt;16</title>
<path fill="none" stroke="#c0c0c0" stroke-width="2" d="M236.5,-575.8314C236.5,-568.131 236.5,-558.9743 236.5,-550.4166"/>
<polygon fill="#c0c0c0" stroke="#c0c0c0" stroke-width="2" points="240.0001,-550.4132 236.5,-540.4133 233.0001,-550.4133 240.0001,-550.4132"/>
</g>
<!-- 19 -->
<g id="node20" class="node">
<title>19</title>
<path fill="none" stroke="#d88556" stroke-width="2" d="M83,-684C83,-684 12,-684 12,-684 6,-684 0,-678 0,-672 0,-672 0,-660 0,-660 0,-654 6,-648 12,-648 12,-648 83,-648 83,-648 89,-648 95,-654 95,-660 95,-660 95,-672 95,-672 95,-678 89,-684 83,-684"/>
<text text-anchor="middle" x="47.5" y="-663.5" font-family="sans" font-size="10.00" fill="#000000">check_barcodes</text>
</g>
<!-- 19&#45;&gt;17 -->
<g id="edge20" class="edge">
<title>19&#45;&gt;17</title>
<path fill="none" stroke="#c0c0c0" stroke-width="2" d="M47.5,-647.8314C47.5,-640.131 47.5,-630.9743 47.5,-622.4166"/>
<polygon fill="#c0c0c0" stroke="#c0c0c0" stroke-width="2" points="51.0001,-622.4132 47.5,-612.4133 44.0001,-622.4133 51.0001,-622.4132"/>
</g>
<!-- 20 -->
<g id="node21" class="node">
<title>20</title>
<path fill="none" stroke="#d6d856" stroke-width="2" d="M254,-684C254,-684 219,-684 219,-684 213,-684 207,-678 207,-672 207,-672 207,-660 207,-660 207,-654 213,-648 219,-648 219,-648 254,-648 254,-648 260,-648 266,-654 266,-660 266,-660 266,-672 266,-672 266,-678 260,-684 254,-684"/>
<text text-anchor="middle" x="236.5" y="-663.5" font-family="sans" font-size="10.00" fill="#000000">fa_index</text>
</g>
<!-- 20&#45;&gt;18 -->
<g id="edge21" class="edge">
<title>20&#45;&gt;18</title>
<path fill="none" stroke="#c0c0c0" stroke-width="2" d="M236.5,-647.8314C236.5,-640.131 236.5,-630.9743 236.5,-622.4166"/>
<polygon fill="#c0c0c0" stroke="#c0c0c0" stroke-width="2" points="240.0001,-622.4132 236.5,-612.4133 233.0001,-622.4133 240.0001,-622.4132"/>
</g>
<!-- 21 -->
<g id="node22" class="node">
<title>21</title>
<path fill="none" stroke="#d86e56" stroke-width="2" d="M77.5,-756C77.5,-756 17.5,-756 17.5,-756 11.5,-756 5.5,-750 5.5,-744 5.5,-744 5.5,-732 5.5,-732 5.5,-726 11.5,-720 17.5,-720 17.5,-720 77.5,-720 77.5,-720 83.5,-720 89.5,-726 89.5,-732 89.5,-732 89.5,-744 89.5,-744 89.5,-750 83.5,-756 77.5,-756"/>
<text text-anchor="middle" x="47.5" y="-735.5" font-family="sans" font-size="10.00" fill="#000000">check_pairing</text>
</g>
<!-- 21&#45;&gt;19 -->
<g id="edge22" class="edge">
<title>21&#45;&gt;19</title>
<path fill="none" stroke="#c0c0c0" stroke-width="2" d="M47.5,-719.8314C47.5,-712.131 47.5,-702.9743 47.5,-694.4166"/>
<polygon fill="#c0c0c0" stroke="#c0c0c0" stroke-width="2" points="51.0001,-694.4132 47.5,-684.4133 44.0001,-694.4133 51.0001,-694.4132"/>
</g>
</g>
</svg>
