<?xml version="1.0" encoding="UTF-8" standalone="no"?>
<!DOCTYPE svg PUBLIC "-//W3C//DTD SVG 1.1//EN"
 "http://www.w3.org/Graphics/SVG/1.1/DTD/svg11.dtd">
<!-- Generated by graphviz version 2.40.1 (20161225.0304)
 -->
<!-- Title: snakemake_dag Pages: 1 -->
<svg width="261pt" height="764pt"
 viewBox="0.00 0.00 261.00 764.00" xmlns="http://www.w3.org/2000/svg" xmlns:xlink="http://www.w3.org/1999/xlink">
<g id="graph0" class="graph" transform="scale(1 1) rotate(0) translate(4 760)">
<title>snakemake_dag</title>
<polygon fill="#ffffff" stroke="transparent" points="-4,4 -4,-760 257,-760 257,4 -4,4"/>
<!-- 0 -->
<g id="node1" class="node">
<title>0</title>
<path fill="none" stroke="#d86e56" stroke-width="2" d="M118.5,-36C118.5,-36 88.5,-36 88.5,-36 82.5,-36 76.5,-30 76.5,-24 76.5,-24 76.5,-12 76.5,-12 76.5,-6 82.5,0 88.5,0 88.5,0 118.5,0 118.5,0 124.5,0 130.5,-6 130.5,-12 130.5,-12 130.5,-24 130.5,-24 130.5,-30 124.5,-36 118.5,-36"/>
<text text-anchor="middle" x="103.5" y="-15.5" font-family="sans" font-size="10.00" fill="#000000">target</text>
</g>
<!-- 1 -->
<g id="node2" class="node">
<title>1</title>
<path fill="none" stroke="#61d856" stroke-width="2" d="M77.5,-108C77.5,-108 37.5,-108 37.5,-108 31.5,-108 25.5,-102 25.5,-96 25.5,-96 25.5,-84 25.5,-84 25.5,-78 31.5,-72 37.5,-72 37.5,-72 77.5,-72 77.5,-72 83.5,-72 89.5,-78 89.5,-84 89.5,-84 89.5,-96 89.5,-96 89.5,-102 83.5,-108 77.5,-108"/>
<text text-anchor="middle" x="57.5" y="-87.5" font-family="sans" font-size="10.00" fill="#000000">index_vcf</text>
</g>
<!-- 1&#45;&gt;0 -->
<g id="edge2" class="edge">
<title>1&#45;&gt;0</title>
<path fill="none" stroke="#c0c0c0" stroke-width="2" d="M69.1077,-71.8314C74.2978,-63.7079 80.5232,-53.9637 86.2425,-45.0118"/>
<polygon fill="#c0c0c0" stroke="#c0c0c0" stroke-width="2" points="89.3015,-46.7246 91.736,-36.4133 83.4026,-42.9559 89.3015,-46.7246"/>
</g>
<!-- 2 -->
<g id="node3" class="node">
<title>2</title>
<path fill="none" stroke="#56b9d8" stroke-width="2" d="M181.5,-108C181.5,-108 119.5,-108 119.5,-108 113.5,-108 107.5,-102 107.5,-96 107.5,-96 107.5,-84 107.5,-84 107.5,-78 113.5,-72 119.5,-72 119.5,-72 181.5,-72 181.5,-72 187.5,-72 193.5,-78 193.5,-84 193.5,-84 193.5,-96 193.5,-96 193.5,-102 187.5,-108 181.5,-108"/>
<text text-anchor="middle" x="150.5" y="-87.5" font-family="sans" font-size="10.00" fill="#000000">index_bamfile</text>
</g>
<!-- 2&#45;&gt;0 -->
<g id="edge1" class="edge">
<title>2&#45;&gt;0</title>
<path fill="none" stroke="#c0c0c0" stroke-width="2" d="M138.6399,-71.8314C133.3371,-63.7079 126.9763,-53.9637 121.1327,-45.0118"/>
<polygon fill="#c0c0c0" stroke="#c0c0c0" stroke-width="2" points="123.9169,-42.8739 115.5198,-36.4133 118.0552,-46.7003 123.9169,-42.8739"/>
</g>
<!-- 3 -->
<g id="node4" class="node">
<title>3</title>
<path fill="none" stroke="#78d856" stroke-width="2" d="M68.5,-180C68.5,-180 38.5,-180 38.5,-180 32.5,-180 26.5,-174 26.5,-168 26.5,-168 26.5,-156 26.5,-156 26.5,-150 32.5,-144 38.5,-144 38.5,-144 68.5,-144 68.5,-144 74.5,-144 80.5,-150 80.5,-156 80.5,-156 80.5,-168 80.5,-168 80.5,-174 74.5,-180 68.5,-180"/>
<text text-anchor="middle" x="53.5" y="-159.5" font-family="sans" font-size="10.00" fill="#000000">vcfuniq</text>
</g>
<!-- 3&#45;&gt;1 -->
<g id="edge3" class="edge">
<title>3&#45;&gt;1</title>
<path fill="none" stroke="#c0c0c0" stroke-width="2" d="M54.5094,-143.8314C54.9372,-136.131 55.4459,-126.9743 55.9213,-118.4166"/>
<polygon fill="#c0c0c0" stroke="#c0c0c0" stroke-width="2" points="59.4169,-118.592 56.477,-108.4133 52.4276,-118.2037 59.4169,-118.592"/>
</g>
<!-- 4 -->
<g id="node5" class="node">
<title>4</title>
<path fill="none" stroke="#d88556" stroke-width="2" d="M176,-180C176,-180 125,-180 125,-180 119,-180 113,-174 113,-168 113,-168 113,-156 113,-156 113,-150 119,-144 125,-144 125,-144 176,-144 176,-144 182,-144 188,-150 188,-156 188,-156 188,-168 188,-168 188,-174 182,-180 176,-180"/>
<text text-anchor="middle" x="150.5" y="-159.5" font-family="sans" font-size="10.00" fill="#000000">merge_bam</text>
</g>
<!-- 4&#45;&gt;2 -->
<g id="edge4" class="edge">
<title>4&#45;&gt;2</title>
<path fill="none" stroke="#c0c0c0" stroke-width="2" d="M150.5,-143.8314C150.5,-136.131 150.5,-126.9743 150.5,-118.4166"/>
<polygon fill="#c0c0c0" stroke="#c0c0c0" stroke-width="2" points="154.0001,-118.4132 150.5,-108.4133 147.0001,-118.4133 154.0001,-118.4132"/>
</g>
<!-- 5 -->
<g id="node6" class="node">
<title>5</title>
<path fill="none" stroke="#56d8c9" stroke-width="2" d="M82,-252C82,-252 21,-252 21,-252 15,-252 9,-246 9,-240 9,-240 9,-228 9,-228 9,-222 15,-216 21,-216 21,-216 82,-216 82,-216 88,-216 94,-222 94,-228 94,-228 94,-240 94,-240 94,-246 88,-252 82,-252"/>
<text text-anchor="middle" x="51.5" y="-231.5" font-family="sans" font-size="10.00" fill="#000000">vcfstreamsort</text>
</g>
<!-- 5&#45;&gt;3 -->
<g id="edge5" class="edge">
<title>5&#45;&gt;3</title>
<path fill="none" stroke="#c0c0c0" stroke-width="2" d="M52.0047,-215.8314C52.2186,-208.131 52.4729,-198.9743 52.7106,-190.4166"/>
<polygon fill="#c0c0c0" stroke="#c0c0c0" stroke-width="2" points="56.2094,-190.5066 52.9885,-180.4133 49.2121,-190.3122 56.2094,-190.5066"/>
</g>
<!-- 6 -->
<g id="node7" class="node">
<title>6</title>
<path fill="none" stroke="#568ad8" stroke-width="2" d="M168.5,-252C168.5,-252 132.5,-252 132.5,-252 126.5,-252 120.5,-246 120.5,-240 120.5,-240 120.5,-228 120.5,-228 120.5,-222 126.5,-216 132.5,-216 132.5,-216 168.5,-216 168.5,-216 174.5,-216 180.5,-222 180.5,-228 180.5,-228 180.5,-240 180.5,-240 180.5,-246 174.5,-252 168.5,-252"/>
<text text-anchor="middle" x="150.5" y="-231.5" font-family="sans" font-size="10.00" fill="#000000">markdup</text>
</g>
<!-- 6&#45;&gt;4 -->
<g id="edge6" class="edge">
<title>6&#45;&gt;4</title>
<path fill="none" stroke="#c0c0c0" stroke-width="2" d="M150.5,-215.8314C150.5,-208.131 150.5,-198.9743 150.5,-190.4166"/>
<polygon fill="#c0c0c0" stroke="#c0c0c0" stroke-width="2" points="154.0001,-190.4132 150.5,-180.4133 147.0001,-190.4133 154.0001,-190.4132"/>
</g>
<!-- 7 -->
<g id="node8" class="node">
<title>7</title>
<path fill="none" stroke="#56a2d8" stroke-width="2" d="M81,-324C81,-324 20,-324 20,-324 14,-324 8,-318 8,-312 8,-312 8,-300 8,-300 8,-294 14,-288 20,-288 20,-288 81,-288 81,-288 87,-288 93,-294 93,-300 93,-300 93,-312 93,-312 93,-318 87,-324 81,-324"/>
<text text-anchor="middle" x="50.5" y="-303.5" font-family="sans" font-size="10.00" fill="#000000">vcffirstheader</text>
</g>
<!-- 7&#45;&gt;5 -->
<g id="edge7" class="edge">
<title>7&#45;&gt;5</title>
<path fill="none" stroke="#c0c0c0" stroke-width="2" d="M50.7523,-287.8314C50.8593,-280.131 50.9865,-270.9743 51.1053,-262.4166"/>
<polygon fill="#c0c0c0" stroke="#c0c0c0" stroke-width="2" points="54.6049,-262.4609 51.2443,-252.4133 47.6056,-262.3637 54.6049,-262.4609"/>
</g>
<!-- 8 -->
<g id="node9" class="node">
<title>8</title>
<path fill="none" stroke="#d8bc56" stroke-width="2" d="M165.5,-324C165.5,-324 135.5,-324 135.5,-324 129.5,-324 123.5,-318 123.5,-312 123.5,-312 123.5,-300 123.5,-300 123.5,-294 129.5,-288 135.5,-288 135.5,-288 165.5,-288 165.5,-288 171.5,-288 177.5,-294 177.5,-300 177.5,-300 177.5,-312 177.5,-312 177.5,-318 171.5,-324 165.5,-324"/>
<text text-anchor="middle" x="150.5" y="-303.5" font-family="sans" font-size="10.00" fill="#000000">sort</text>
</g>
<!-- 8&#45;&gt;6 -->
<g id="edge8" class="edge">
<title>8&#45;&gt;6</title>
<path fill="none" stroke="#c0c0c0" stroke-width="2" d="M150.5,-287.8314C150.5,-280.131 150.5,-270.9743 150.5,-262.4166"/>
<polygon fill="#c0c0c0" stroke="#c0c0c0" stroke-width="2" points="154.0001,-262.4132 150.5,-252.4133 147.0001,-262.4133 154.0001,-262.4132"/>
</g>
<!-- 9 -->
<g id="node10" class="node">
<title>9</title>
<path fill="none" stroke="#56d863" stroke-width="2" d="M78,-396C78,-396 23,-396 23,-396 17,-396 11,-390 11,-384 11,-384 11,-372 11,-372 11,-366 17,-360 23,-360 23,-360 78,-360 78,-360 84,-360 90,-366 90,-372 90,-372 90,-384 90,-384 90,-390 84,-396 78,-396"/>
<text text-anchor="middle" x="50.5" y="-375.5" font-family="sans" font-size="10.00" fill="#000000">combine_vcf</text>
</g>
<!-- 9&#45;&gt;7 -->
<g id="edge9" class="edge">
<title>9&#45;&gt;7</title>
<path fill="none" stroke="#c0c0c0" stroke-width="2" d="M50.5,-359.8314C50.5,-352.131 50.5,-342.9743 50.5,-334.4166"/>
<polygon fill="#c0c0c0" stroke="#c0c0c0" stroke-width="2" points="54.0001,-334.4132 50.5,-324.4133 47.0001,-334.4133 54.0001,-334.4132"/>
</g>
<!-- 10 -->
<g id="node11" class="node">
<title>10</title>
<path fill="none" stroke="#afd856" stroke-width="2" d="M166,-396C166,-396 135,-396 135,-396 129,-396 123,-390 123,-384 123,-384 123,-372 123,-372 123,-366 129,-360 135,-360 135,-360 166,-360 166,-360 172,-360 178,-366 178,-372 178,-372 178,-384 178,-384 178,-390 172,-396 166,-396"/>
<text text-anchor="middle" x="150.5" y="-375.5" font-family="sans" font-size="10.00" fill="#000000">fixmate</text>
</g>
<!-- 10&#45;&gt;8 -->
<g id="edge10" class="edge">
<title>10&#45;&gt;8</title>
<path fill="none" stroke="#c0c0c0" stroke-width="2" d="M150.5,-359.8314C150.5,-352.131 150.5,-342.9743 150.5,-334.4166"/>
<polygon fill="#c0c0c0" stroke="#c0c0c0" stroke-width="2" points="154.0001,-334.4132 150.5,-324.4133 147.0001,-334.4133 154.0001,-334.4132"/>
</g>
<!-- 11 -->
<g id="node12" class="node">
<title>11</title>
<path fill="none" stroke="#97d856" stroke-width="2" d="M89,-468C89,-468 12,-468 12,-468 6,-468 0,-462 0,-456 0,-456 0,-444 0,-444 0,-438 6,-432 12,-432 12,-432 89,-432 89,-432 95,-432 101,-438 101,-444 101,-444 101,-456 101,-456 101,-462 95,-468 89,-468"/>
<text text-anchor="middle" x="50.5" y="-447.5" font-family="sans" font-size="10.00" fill="#000000">generate_regions</text>
</g>
<!-- 11&#45;&gt;9 -->
<g id="edge11" class="edge">
<title>11&#45;&gt;9</title>
<path fill="none" stroke="#c0c0c0" stroke-width="2" d="M50.5,-431.8314C50.5,-424.131 50.5,-414.9743 50.5,-406.4166"/>
<polygon fill="#c0c0c0" stroke="#c0c0c0" stroke-width="2" points="54.0001,-406.4132 50.5,-396.4133 47.0001,-406.4133 54.0001,-406.4132"/>
</g>
<!-- 12 -->
<g id="node13" class="node">
<title>12</title>
<path fill="none" stroke="#56d892" stroke-width="2" d="M171.5,-468C171.5,-468 131.5,-468 131.5,-468 125.5,-468 119.5,-462 119.5,-456 119.5,-456 119.5,-444 119.5,-444 119.5,-438 125.5,-432 131.5,-432 131.5,-432 171.5,-432 171.5,-432 177.5,-432 183.5,-438 183.5,-444 183.5,-444 183.5,-456 183.5,-456 183.5,-462 177.5,-468 171.5,-468"/>
<text text-anchor="middle" x="151.5" y="-447.5" font-family="sans" font-size="10.00" fill="#000000">bwa_map</text>
</g>
<!-- 12&#45;&gt;10 -->
<g id="edge12" class="edge">
<title>12&#45;&gt;10</title>
<path fill="none" stroke="#c0c0c0" stroke-width="2" d="M151.2477,-431.8314C151.1407,-424.131 151.0135,-414.9743 150.8947,-406.4166"/>
<polygon fill="#c0c0c0" stroke="#c0c0c0" stroke-width="2" points="154.3944,-406.3637 150.7557,-396.4133 147.3951,-406.4609 154.3944,-406.3637"/>
</g>
<!-- 13 -->
<g id="node14" class="node">
<title>13</title>
<path fill="none" stroke="#c6d856" stroke-width="2" d="M68,-540C68,-540 33,-540 33,-540 27,-540 21,-534 21,-528 21,-528 21,-516 21,-516 21,-510 27,-504 33,-504 33,-504 68,-504 68,-504 74,-504 80,-510 80,-516 80,-516 80,-528 80,-528 80,-534 74,-540 68,-540"/>
<text text-anchor="middle" x="50.5" y="-519.5" font-family="sans" font-size="10.00" fill="#000000">fa_index</text>
</g>
<!-- 13&#45;&gt;11 -->
<g id="edge13" class="edge">
<title>13&#45;&gt;11</title>
<path fill="none" stroke="#c0c0c0" stroke-width="2" d="M50.5,-503.8314C50.5,-496.131 50.5,-486.9743 50.5,-478.4166"/>
<polygon fill="#c0c0c0" stroke="#c0c0c0" stroke-width="2" points="54.0001,-478.4132 50.5,-468.4133 47.0001,-478.4133 54.0001,-478.4132"/>
</g>
<!-- 14 -->
<g id="node15" class="node">
<title>14</title>
<path fill="none" stroke="#d8d356" stroke-width="2" d="M153.5,-540C153.5,-540 123.5,-540 123.5,-540 117.5,-540 111.5,-534 111.5,-528 111.5,-528 111.5,-516 111.5,-516 111.5,-510 117.5,-504 123.5,-504 123.5,-504 153.5,-504 153.5,-504 159.5,-504 165.5,-510 165.5,-516 165.5,-516 165.5,-528 165.5,-528 165.5,-534 159.5,-540 153.5,-540"/>
<text text-anchor="middle" x="138.5" y="-519.5" font-family="sans" font-size="10.00" fill="#000000">trim</text>
</g>
<!-- 14&#45;&gt;12 -->
<g id="edge14" class="edge">
<title>14&#45;&gt;12</title>
<path fill="none" stroke="#c0c0c0" stroke-width="2" d="M141.7804,-503.8314C143.1708,-496.131 144.8241,-486.9743 146.3692,-478.4166"/>
<polygon fill="#c0c0c0" stroke="#c0c0c0" stroke-width="2" points="149.8428,-478.8761 148.1754,-468.4133 142.9542,-477.6322 149.8428,-478.8761"/>
</g>
<!-- 15 -->
<g id="node16" class="node">
<title>15</title>
<path fill="none" stroke="#d8a456" stroke-width="2" d="M241,-540C241,-540 196,-540 196,-540 190,-540 184,-534 184,-528 184,-528 184,-516 184,-516 184,-510 190,-504 196,-504 196,-504 241,-504 241,-504 247,-504 253,-510 253,-516 253,-516 253,-528 253,-528 253,-534 247,-540 241,-540"/>
<text text-anchor="middle" x="218.5" y="-519.5" font-family="sans" font-size="10.00" fill="#000000">bwa_index</text>
</g>
<!-- 15&#45;&gt;12 -->
<g id="edge15" class="edge">
<title>15&#45;&gt;12</title>
<path fill="none" stroke="#c0c0c0" stroke-width="2" d="M201.5931,-503.8314C193.7187,-495.3694 184.208,-485.1489 175.5987,-475.8971"/>
<polygon fill="#c0c0c0" stroke="#c0c0c0" stroke-width="2" points="178.0092,-473.3497 168.6346,-468.4133 172.8847,-478.1183 178.0092,-473.3497"/>
</g>
<!-- 16 -->
<g id="node17" class="node">
<title>16</title>
<path fill="none" stroke="#56d0d8" stroke-width="2" d="M153.5,-612C153.5,-612 123.5,-612 123.5,-612 117.5,-612 111.5,-606 111.5,-600 111.5,-600 111.5,-588 111.5,-588 111.5,-582 117.5,-576 123.5,-576 123.5,-576 153.5,-576 153.5,-576 159.5,-576 165.5,-582 165.5,-588 165.5,-588 165.5,-600 165.5,-600 165.5,-606 159.5,-612 153.5,-612"/>
<text text-anchor="middle" x="138.5" y="-591.5" font-family="sans" font-size="10.00" fill="#000000">filter</text>
</g>
<!-- 16&#45;&gt;14 -->
<g id="edge16" class="edge">
<title>16&#45;&gt;14</title>
<path fill="none" stroke="#c0c0c0" stroke-width="2" d="M138.5,-575.8314C138.5,-568.131 138.5,-558.9743 138.5,-550.4166"/>
<polygon fill="#c0c0c0" stroke="#c0c0c0" stroke-width="2" points="142.0001,-550.4132 138.5,-540.4133 135.0001,-550.4133 142.0001,-550.4132"/>
</g>
<!-- 17 -->
<g id="node18" class="node">
<title>17</title>
<path fill="none" stroke="#d85656" stroke-width="2" d="M174,-684C174,-684 103,-684 103,-684 97,-684 91,-678 91,-672 91,-672 91,-660 91,-660 91,-654 97,-648 103,-648 103,-648 174,-648 174,-648 180,-648 186,-654 186,-660 186,-660 186,-672 186,-672 186,-678 180,-684 174,-684"/>
<text text-anchor="middle" x="138.5" y="-663.5" font-family="sans" font-size="10.00" fill="#000000">check_barcodes</text>
</g>
<!-- 17&#45;&gt;16 -->
<g id="edge17" class="edge">
<title>17&#45;&gt;16</title>
<path fill="none" stroke="#c0c0c0" stroke-width="2" d="M138.5,-647.8314C138.5,-640.131 138.5,-630.9743 138.5,-622.4166"/>
<polygon fill="#c0c0c0" stroke="#c0c0c0" stroke-width="2" points="142.0001,-622.4132 138.5,-612.4133 135.0001,-622.4133 142.0001,-622.4132"/>
</g>
<!-- 18 -->
<g id="node19" class="node">
<title>18</title>
<path fill="none" stroke="#56d8a9" stroke-width="2" d="M168.5,-756C168.5,-756 108.5,-756 108.5,-756 102.5,-756 96.5,-750 96.5,-744 96.5,-744 96.5,-732 96.5,-732 96.5,-726 102.5,-720 108.5,-720 108.5,-720 168.5,-720 168.5,-720 174.5,-720 180.5,-726 180.5,-732 180.5,-732 180.5,-744 180.5,-744 180.5,-750 174.5,-756 168.5,-756"/>
<text text-anchor="middle" x="138.5" y="-735.5" font-family="sans" font-size="10.00" fill="#000000">check_pairing</text>
</g>
<!-- 18&#45;&gt;17 -->
<g id="edge18" class="edge">
<title>18&#45;&gt;17</title>
<path fill="none" stroke="#c0c0c0" stroke-width="2" d="M138.5,-719.8314C138.5,-712.131 138.5,-702.9743 138.5,-694.4166"/>
<polygon fill="#c0c0c0" stroke="#c0c0c0" stroke-width="2" points="142.0001,-694.4132 138.5,-684.4133 135.0001,-694.4133 142.0001,-694.4132"/>
</g>
</g>
</svg>
