<?xml version="1.0" encoding="UTF-8" standalone="no"?>
<!DOCTYPE svg PUBLIC "-//W3C//DTD SVG 1.1//EN"
 "http://www.w3.org/Graphics/SVG/1.1/DTD/svg11.dtd">
<!-- Generated by graphviz version 2.40.1 (20161225.0304)
 -->
<!-- Title: snakemake_dag Pages: 1 -->
<svg width="431pt" height="764pt"
 viewBox="0.00 0.00 431.00 764.00" xmlns="http://www.w3.org/2000/svg" xmlns:xlink="http://www.w3.org/1999/xlink">
<g id="graph0" class="graph" transform="scale(1 1) rotate(0) translate(4 760)">
<title>snakemake_dag</title>
<polygon fill="#ffffff" stroke="transparent" points="-4,4 -4,-760 427,-760 427,4 -4,4"/>
<!-- 0 -->
<g id="node1" class="node">
<title>0</title>
<path fill="none" stroke="#569ad8" stroke-width="2" d="M205,-36C205,-36 175,-36 175,-36 169,-36 163,-30 163,-24 163,-24 163,-12 163,-12 163,-6 169,0 175,0 175,0 205,0 205,0 211,0 217,-6 217,-12 217,-12 217,-24 217,-24 217,-30 211,-36 205,-36"/>
<text text-anchor="middle" x="190" y="-15.5" font-family="sans" font-size="10.00" fill="#000000">target</text>
</g>
<!-- 1 -->
<g id="node2" class="node">
<title>1</title>
<path fill="none" stroke="#56d892" stroke-width="2" d="M99,-252C99,-252 59,-252 59,-252 53,-252 47,-246 47,-240 47,-240 47,-228 47,-228 47,-222 53,-216 59,-216 59,-216 99,-216 99,-216 105,-216 111,-222 111,-228 111,-228 111,-240 111,-240 111,-246 105,-252 99,-252"/>
<text text-anchor="middle" x="79" y="-231.5" font-family="sans" font-size="10.00" fill="#000000">index_vcf</text>
</g>
<!-- 1&#45;&gt;0 -->
<g id="edge1" class="edge">
<title>1&#45;&gt;0</title>
<path fill="none" stroke="#c0c0c0" stroke-width="2" d="M69.2368,-215.9167C53.4488,-183.947 26.9613,-116.6164 57,-72 78.195,-40.5192 121.2375,-27.3834 152.6348,-21.9069"/>
<polygon fill="#c0c0c0" stroke="#c0c0c0" stroke-width="2" points="153.4444,-25.3231 162.7877,-20.3279 152.3686,-18.4063 153.4444,-25.3231"/>
</g>
<!-- 9 -->
<g id="node10" class="node">
<title>9</title>
<path fill="none" stroke="#56c9d8" stroke-width="2" d="M150.5,-180C150.5,-180 113.5,-180 113.5,-180 107.5,-180 101.5,-174 101.5,-168 101.5,-168 101.5,-156 101.5,-156 101.5,-150 107.5,-144 113.5,-144 113.5,-144 150.5,-144 150.5,-144 156.5,-144 162.5,-150 162.5,-156 162.5,-156 162.5,-168 162.5,-168 162.5,-174 156.5,-180 150.5,-180"/>
<text text-anchor="middle" x="132" y="-159.5" font-family="sans" font-size="10.00" fill="#000000">vcf_stats</text>
</g>
<!-- 1&#45;&gt;9 -->
<g id="edge15" class="edge">
<title>1&#45;&gt;9</title>
<path fill="none" stroke="#c0c0c0" stroke-width="2" d="M92.3741,-215.8314C98.4162,-207.6232 105.6763,-197.7606 112.3221,-188.7323"/>
<polygon fill="#c0c0c0" stroke="#c0c0c0" stroke-width="2" points="115.3363,-190.5415 118.4458,-180.4133 109.6989,-186.3918 115.3363,-190.5415"/>
</g>
<!-- 2 -->
<g id="node3" class="node">
<title>2</title>
<path fill="none" stroke="#56d8d0" stroke-width="2" d="M339.5,-180C339.5,-180 288.5,-180 288.5,-180 282.5,-180 276.5,-174 276.5,-168 276.5,-168 276.5,-156 276.5,-156 276.5,-150 282.5,-144 288.5,-144 288.5,-144 339.5,-144 339.5,-144 345.5,-144 351.5,-150 351.5,-156 351.5,-156 351.5,-168 351.5,-168 351.5,-174 345.5,-180 339.5,-180"/>
<text text-anchor="middle" x="314" y="-159.5" font-family="sans" font-size="10.00" fill="#000000">merge_bam</text>
</g>
<!-- 2&#45;&gt;0 -->
<g id="edge3" class="edge">
<title>2&#45;&gt;0</title>
<path fill="none" stroke="#c0c0c0" stroke-width="2" d="M313.3244,-143.908C311.722,-124.2784 306.5302,-92.945 290,-72 273.9938,-51.719 248.1984,-38.0572 226.816,-29.5494"/>
<polygon fill="#c0c0c0" stroke="#c0c0c0" stroke-width="2" points="227.9454,-26.235 217.3532,-25.9979 225.4857,-32.7886 227.9454,-26.235"/>
</g>
<!-- 3 -->
<g id="node4" class="node">
<title>3</title>
<path fill="none" stroke="#56d8b9" stroke-width="2" d="M411,-108C411,-108 349,-108 349,-108 343,-108 337,-102 337,-96 337,-96 337,-84 337,-84 337,-78 343,-72 349,-72 349,-72 411,-72 411,-72 417,-72 423,-78 423,-84 423,-84 423,-96 423,-96 423,-102 417,-108 411,-108"/>
<text text-anchor="middle" x="380" y="-87.5" font-family="sans" font-size="10.00" fill="#000000">index_bamfile</text>
</g>
<!-- 2&#45;&gt;3 -->
<g id="edge10" class="edge">
<title>2&#45;&gt;3</title>
<path fill="none" stroke="#c0c0c0" stroke-width="2" d="M330.6546,-143.8314C338.4114,-135.3694 347.7802,-125.1489 356.261,-115.8971"/>
<polygon fill="#c0c0c0" stroke="#c0c0c0" stroke-width="2" points="358.9439,-118.1499 363.1212,-108.4133 353.7838,-113.4198 358.9439,-118.1499"/>
</g>
<!-- 3&#45;&gt;0 -->
<g id="edge2" class="edge">
<title>3&#45;&gt;0</title>
<path fill="none" stroke="#c0c0c0" stroke-width="2" d="M336.8861,-73.6621C303.6906,-61.0828 258.3028,-43.8831 226.8025,-31.9462"/>
<polygon fill="#c0c0c0" stroke="#c0c0c0" stroke-width="2" points="227.6876,-28.5388 217.0962,-28.268 225.207,-35.0846 227.6876,-28.5388"/>
</g>
<!-- 4 -->
<g id="node5" class="node">
<title>4</title>
<path fill="none" stroke="#56d863" stroke-width="2" d="M185.5,-108C185.5,-108 78.5,-108 78.5,-108 72.5,-108 66.5,-102 66.5,-96 66.5,-96 66.5,-84 66.5,-84 66.5,-78 72.5,-72 78.5,-72 78.5,-72 185.5,-72 185.5,-72 191.5,-72 197.5,-78 197.5,-84 197.5,-84 197.5,-96 197.5,-96 197.5,-102 191.5,-108 185.5,-108"/>
<text text-anchor="middle" x="132" y="-87.5" font-family="sans" font-size="10.00" fill="#000000">calculate_ldepth_cutoff</text>
</g>
<!-- 4&#45;&gt;0 -->
<g id="edge6" class="edge">
<title>4&#45;&gt;0</title>
<path fill="none" stroke="#c0c0c0" stroke-width="2" d="M146.6358,-71.8314C153.3161,-63.5386 161.3568,-53.557 168.6904,-44.4533"/>
<polygon fill="#c0c0c0" stroke="#c0c0c0" stroke-width="2" points="171.6194,-46.3965 175.1671,-36.4133 166.1681,-42.0052 171.6194,-46.3965"/>
</g>
<!-- 5 -->
<g id="node6" class="node">
<title>5</title>
<path fill="none" stroke="#61d856" stroke-width="2" d="M268.5,-108C268.5,-108 227.5,-108 227.5,-108 221.5,-108 215.5,-102 215.5,-96 215.5,-96 215.5,-84 215.5,-84 215.5,-78 221.5,-72 227.5,-72 227.5,-72 268.5,-72 268.5,-72 274.5,-72 280.5,-78 280.5,-84 280.5,-84 280.5,-96 280.5,-96 280.5,-102 274.5,-108 268.5,-108"/>
<text text-anchor="middle" x="248" y="-87.5" font-family="sans" font-size="10.00" fill="#000000">plot_stats</text>
</g>
<!-- 5&#45;&gt;0 -->
<g id="edge5" class="edge">
<title>5&#45;&gt;0</title>
<path fill="none" stroke="#c0c0c0" stroke-width="2" d="M233.3642,-71.8314C226.6839,-63.5386 218.6432,-53.557 211.3096,-44.4533"/>
<polygon fill="#c0c0c0" stroke="#c0c0c0" stroke-width="2" points="213.8319,-42.0052 204.8329,-36.4133 208.3806,-46.3965 213.8319,-42.0052"/>
</g>
<!-- 6 -->
<g id="node7" class="node">
<title>6</title>
<path fill="none" stroke="#56b1d8" stroke-width="2" d="M57.5,-684C57.5,-684 22.5,-684 22.5,-684 16.5,-684 10.5,-678 10.5,-672 10.5,-672 10.5,-660 10.5,-660 10.5,-654 16.5,-648 22.5,-648 22.5,-648 57.5,-648 57.5,-648 63.5,-648 69.5,-654 69.5,-660 69.5,-660 69.5,-672 69.5,-672 69.5,-678 63.5,-684 57.5,-684"/>
<text text-anchor="middle" x="40" y="-663.5" font-family="sans" font-size="10.00" fill="#000000">fa_index</text>
</g>
<!-- 6&#45;&gt;0 -->
<g id="edge4" class="edge">
<title>6&#45;&gt;0</title>
<path fill="none" stroke="#c0c0c0" stroke-width="2" d="M31.517,-647.81C19.7754,-620.9218 0,-568.7039 0,-522 0,-522 0,-522 0,-162 0,-118.0449 8.7044,-101.8169 41,-72 72.1022,-43.2849 119.6356,-29.5807 152.6175,-23.2161"/>
<polygon fill="#c0c0c0" stroke="#c0c0c0" stroke-width="2" points="153.5485,-26.6051 162.7753,-21.3978 152.315,-19.7147 153.5485,-26.6051"/>
</g>
<!-- 16 -->
<g id="node17" class="node">
<title>16</title>
<path fill="none" stroke="#d89c56" stroke-width="2" d="M117.5,-612C117.5,-612 40.5,-612 40.5,-612 34.5,-612 28.5,-606 28.5,-600 28.5,-600 28.5,-588 28.5,-588 28.5,-582 34.5,-576 40.5,-576 40.5,-576 117.5,-576 117.5,-576 123.5,-576 129.5,-582 129.5,-588 129.5,-588 129.5,-600 129.5,-600 129.5,-606 123.5,-612 117.5,-612"/>
<text text-anchor="middle" x="79" y="-591.5" font-family="sans" font-size="10.00" fill="#000000">generate_regions</text>
</g>
<!-- 6&#45;&gt;16 -->
<g id="edge23" class="edge">
<title>6&#45;&gt;16</title>
<path fill="none" stroke="#c0c0c0" stroke-width="2" d="M49.8413,-647.8314C54.1957,-639.7925 59.4098,-630.1666 64.2169,-621.2918"/>
<polygon fill="#c0c0c0" stroke="#c0c0c0" stroke-width="2" points="67.3408,-622.8732 69.0261,-612.4133 61.1857,-619.5392 67.3408,-622.8732"/>
</g>
<!-- 7 -->
<g id="node8" class="node">
<title>7</title>
<path fill="none" stroke="#a7d856" stroke-width="2" d="M94,-324C94,-324 64,-324 64,-324 58,-324 52,-318 52,-312 52,-312 52,-300 52,-300 52,-294 58,-288 64,-288 64,-288 94,-288 94,-288 100,-288 106,-294 106,-300 106,-300 106,-312 106,-312 106,-318 100,-324 94,-324"/>
<text text-anchor="middle" x="79" y="-303.5" font-family="sans" font-size="10.00" fill="#000000">vcfuniq</text>
</g>
<!-- 7&#45;&gt;1 -->
<g id="edge7" class="edge">
<title>7&#45;&gt;1</title>
<path fill="none" stroke="#c0c0c0" stroke-width="2" d="M79,-287.8314C79,-280.131 79,-270.9743 79,-262.4166"/>
<polygon fill="#c0c0c0" stroke="#c0c0c0" stroke-width="2" points="82.5001,-262.4132 79,-252.4133 75.5001,-262.4133 82.5001,-262.4132"/>
</g>
<!-- 8 -->
<g id="node9" class="node">
<title>8</title>
<path fill="none" stroke="#bed856" stroke-width="2" d="M365,-252C365,-252 329,-252 329,-252 323,-252 317,-246 317,-240 317,-240 317,-228 317,-228 317,-222 323,-216 329,-216 329,-216 365,-216 365,-216 371,-216 377,-222 377,-228 377,-228 377,-240 377,-240 377,-246 371,-252 365,-252"/>
<text text-anchor="middle" x="347" y="-231.5" font-family="sans" font-size="10.00" fill="#000000">markdup</text>
</g>
<!-- 8&#45;&gt;2 -->
<g id="edge8" class="edge">
<title>8&#45;&gt;2</title>
<path fill="none" stroke="#c0c0c0" stroke-width="2" d="M338.6727,-215.8314C335.027,-207.8771 330.6691,-198.369 326.6373,-189.5723"/>
<polygon fill="#c0c0c0" stroke="#c0c0c0" stroke-width="2" points="329.7877,-188.0456 322.4394,-180.4133 323.4243,-190.9622 329.7877,-188.0456"/>
</g>
<!-- 8&#45;&gt;3 -->
<g id="edge9" class="edge">
<title>8&#45;&gt;3</title>
<path fill="none" stroke="#c0c0c0" stroke-width="2" d="M352.0039,-215.5573C354.7726,-205.1463 358.2077,-191.8793 361,-180 365.8341,-159.4341 370.746,-136.0893 374.3642,-118.3299"/>
<polygon fill="#c0c0c0" stroke="#c0c0c0" stroke-width="2" points="377.8357,-118.821 376.3861,-108.3258 370.9744,-117.4342 377.8357,-118.821"/>
</g>
<!-- 9&#45;&gt;4 -->
<g id="edge11" class="edge">
<title>9&#45;&gt;4</title>
<path fill="none" stroke="#c0c0c0" stroke-width="2" d="M132,-143.8314C132,-136.131 132,-126.9743 132,-118.4166"/>
<polygon fill="#c0c0c0" stroke="#c0c0c0" stroke-width="2" points="135.5001,-118.4132 132,-108.4133 128.5001,-118.4133 135.5001,-118.4132"/>
</g>
<!-- 9&#45;&gt;5 -->
<g id="edge12" class="edge">
<title>9&#45;&gt;5</title>
<path fill="none" stroke="#c0c0c0" stroke-width="2" d="M161.2717,-143.8314C176.1088,-134.6221 194.3015,-123.3301 210.1862,-113.4706"/>
<polygon fill="#c0c0c0" stroke="#c0c0c0" stroke-width="2" points="212.087,-116.4102 218.7377,-108.1628 208.3955,-110.4628 212.087,-116.4102"/>
</g>
<!-- 10 -->
<g id="node11" class="node">
<title>10</title>
<path fill="none" stroke="#d86e56" stroke-width="2" d="M109.5,-396C109.5,-396 48.5,-396 48.5,-396 42.5,-396 36.5,-390 36.5,-384 36.5,-384 36.5,-372 36.5,-372 36.5,-366 42.5,-360 48.5,-360 48.5,-360 109.5,-360 109.5,-360 115.5,-360 121.5,-366 121.5,-372 121.5,-372 121.5,-384 121.5,-384 121.5,-390 115.5,-396 109.5,-396"/>
<text text-anchor="middle" x="79" y="-375.5" font-family="sans" font-size="10.00" fill="#000000">vcfstreamsort</text>
</g>
<!-- 10&#45;&gt;7 -->
<g id="edge13" class="edge">
<title>10&#45;&gt;7</title>
<path fill="none" stroke="#c0c0c0" stroke-width="2" d="M79,-359.8314C79,-352.131 79,-342.9743 79,-334.4166"/>
<polygon fill="#c0c0c0" stroke="#c0c0c0" stroke-width="2" points="82.5001,-334.4132 79,-324.4133 75.5001,-334.4133 82.5001,-334.4132"/>
</g>
<!-- 11 -->
<g id="node12" class="node">
<title>11</title>
<path fill="none" stroke="#d6d856" stroke-width="2" d="M362,-324C362,-324 332,-324 332,-324 326,-324 320,-318 320,-312 320,-312 320,-300 320,-300 320,-294 326,-288 332,-288 332,-288 362,-288 362,-288 368,-288 374,-294 374,-300 374,-300 374,-312 374,-312 374,-318 368,-324 362,-324"/>
<text text-anchor="middle" x="347" y="-303.5" font-family="sans" font-size="10.00" fill="#000000">sort</text>
</g>
<!-- 11&#45;&gt;8 -->
<g id="edge14" class="edge">
<title>11&#45;&gt;8</title>
<path fill="none" stroke="#c0c0c0" stroke-width="2" d="M347,-287.8314C347,-280.131 347,-270.9743 347,-262.4166"/>
<polygon fill="#c0c0c0" stroke="#c0c0c0" stroke-width="2" points="350.5001,-262.4132 347,-252.4133 343.5001,-262.4133 350.5001,-262.4132"/>
</g>
<!-- 12 -->
<g id="node13" class="node">
<title>12</title>
<path fill="none" stroke="#d85656" stroke-width="2" d="M109.5,-468C109.5,-468 48.5,-468 48.5,-468 42.5,-468 36.5,-462 36.5,-456 36.5,-456 36.5,-444 36.5,-444 36.5,-438 42.5,-432 48.5,-432 48.5,-432 109.5,-432 109.5,-432 115.5,-432 121.5,-438 121.5,-444 121.5,-444 121.5,-456 121.5,-456 121.5,-462 115.5,-468 109.5,-468"/>
<text text-anchor="middle" x="79" y="-447.5" font-family="sans" font-size="10.00" fill="#000000">vcffirstheader</text>
</g>
<!-- 12&#45;&gt;10 -->
<g id="edge16" class="edge">
<title>12&#45;&gt;10</title>
<path fill="none" stroke="#c0c0c0" stroke-width="2" d="M79,-431.8314C79,-424.131 79,-414.9743 79,-406.4166"/>
<polygon fill="#c0c0c0" stroke="#c0c0c0" stroke-width="2" points="82.5001,-406.4132 79,-396.4133 75.5001,-406.4133 82.5001,-406.4132"/>
</g>
<!-- 13 -->
<g id="node14" class="node">
<title>13</title>
<path fill="none" stroke="#d8c356" stroke-width="2" d="M362.5,-396C362.5,-396 331.5,-396 331.5,-396 325.5,-396 319.5,-390 319.5,-384 319.5,-384 319.5,-372 319.5,-372 319.5,-366 325.5,-360 331.5,-360 331.5,-360 362.5,-360 362.5,-360 368.5,-360 374.5,-366 374.5,-372 374.5,-372 374.5,-384 374.5,-384 374.5,-390 368.5,-396 362.5,-396"/>
<text text-anchor="middle" x="347" y="-375.5" font-family="sans" font-size="10.00" fill="#000000">fixmate</text>
</g>
<!-- 13&#45;&gt;11 -->
<g id="edge17" class="edge">
<title>13&#45;&gt;11</title>
<path fill="none" stroke="#c0c0c0" stroke-width="2" d="M347,-359.8314C347,-352.131 347,-342.9743 347,-334.4166"/>
<polygon fill="#c0c0c0" stroke="#c0c0c0" stroke-width="2" points="350.5001,-334.4132 347,-324.4133 343.5001,-334.4133 350.5001,-334.4132"/>
</g>
<!-- 14 -->
<g id="node15" class="node">
<title>14</title>
<path fill="none" stroke="#d88556" stroke-width="2" d="M106.5,-540C106.5,-540 51.5,-540 51.5,-540 45.5,-540 39.5,-534 39.5,-528 39.5,-528 39.5,-516 39.5,-516 39.5,-510 45.5,-504 51.5,-504 51.5,-504 106.5,-504 106.5,-504 112.5,-504 118.5,-510 118.5,-516 118.5,-516 118.5,-528 118.5,-528 118.5,-534 112.5,-540 106.5,-540"/>
<text text-anchor="middle" x="79" y="-519.5" font-family="sans" font-size="10.00" fill="#000000">combine_vcf</text>
</g>
<!-- 14&#45;&gt;12 -->
<g id="edge18" class="edge">
<title>14&#45;&gt;12</title>
<path fill="none" stroke="#c0c0c0" stroke-width="2" d="M79,-503.8314C79,-496.131 79,-486.9743 79,-478.4166"/>
<polygon fill="#c0c0c0" stroke="#c0c0c0" stroke-width="2" points="82.5001,-478.4132 79,-468.4133 75.5001,-478.4133 82.5001,-478.4132"/>
</g>
<!-- 15 -->
<g id="node16" class="node">
<title>15</title>
<path fill="none" stroke="#5682d8" stroke-width="2" d="M367,-468C367,-468 327,-468 327,-468 321,-468 315,-462 315,-456 315,-456 315,-444 315,-444 315,-438 321,-432 327,-432 327,-432 367,-432 367,-432 373,-432 379,-438 379,-444 379,-444 379,-456 379,-456 379,-462 373,-468 367,-468"/>
<text text-anchor="middle" x="347" y="-447.5" font-family="sans" font-size="10.00" fill="#000000">bwa_map</text>
</g>
<!-- 15&#45;&gt;13 -->
<g id="edge19" class="edge">
<title>15&#45;&gt;13</title>
<path fill="none" stroke="#c0c0c0" stroke-width="2" d="M347,-431.8314C347,-424.131 347,-414.9743 347,-406.4166"/>
<polygon fill="#c0c0c0" stroke="#c0c0c0" stroke-width="2" points="350.5001,-406.4132 347,-396.4133 343.5001,-406.4133 350.5001,-406.4132"/>
</g>
<!-- 16&#45;&gt;14 -->
<g id="edge20" class="edge">
<title>16&#45;&gt;14</title>
<path fill="none" stroke="#c0c0c0" stroke-width="2" d="M79,-575.8314C79,-568.131 79,-558.9743 79,-550.4166"/>
<polygon fill="#c0c0c0" stroke="#c0c0c0" stroke-width="2" points="82.5001,-550.4132 79,-540.4133 75.5001,-550.4133 82.5001,-550.4132"/>
</g>
<!-- 17 -->
<g id="node18" class="node">
<title>17</title>
<path fill="none" stroke="#56d87b" stroke-width="2" d="M322,-540C322,-540 292,-540 292,-540 286,-540 280,-534 280,-528 280,-528 280,-516 280,-516 280,-510 286,-504 292,-504 292,-504 322,-504 322,-504 328,-504 334,-510 334,-516 334,-516 334,-528 334,-528 334,-534 328,-540 322,-540"/>
<text text-anchor="middle" x="307" y="-519.5" font-family="sans" font-size="10.00" fill="#000000">trim</text>
</g>
<!-- 17&#45;&gt;15 -->
<g id="edge21" class="edge">
<title>17&#45;&gt;15</title>
<path fill="none" stroke="#c0c0c0" stroke-width="2" d="M317.0937,-503.8314C321.5597,-495.7925 326.9075,-486.1666 331.8379,-477.2918"/>
<polygon fill="#c0c0c0" stroke="#c0c0c0" stroke-width="2" points="334.9735,-478.8546 336.7704,-468.4133 328.8544,-475.4551 334.9735,-478.8546"/>
</g>
<!-- 18 -->
<g id="node19" class="node">
<title>18</title>
<path fill="none" stroke="#78d856" stroke-width="2" d="M409.5,-540C409.5,-540 364.5,-540 364.5,-540 358.5,-540 352.5,-534 352.5,-528 352.5,-528 352.5,-516 352.5,-516 352.5,-510 358.5,-504 364.5,-504 364.5,-504 409.5,-504 409.5,-504 415.5,-504 421.5,-510 421.5,-516 421.5,-516 421.5,-528 421.5,-528 421.5,-534 415.5,-540 409.5,-540"/>
<text text-anchor="middle" x="387" y="-519.5" font-family="sans" font-size="10.00" fill="#000000">bwa_index</text>
</g>
<!-- 18&#45;&gt;15 -->
<g id="edge22" class="edge">
<title>18&#45;&gt;15</title>
<path fill="none" stroke="#c0c0c0" stroke-width="2" d="M376.9063,-503.8314C372.4403,-495.7925 367.0925,-486.1666 362.1621,-477.2918"/>
<polygon fill="#c0c0c0" stroke="#c0c0c0" stroke-width="2" points="365.1456,-475.4551 357.2296,-468.4133 359.0265,-478.8546 365.1456,-475.4551"/>
</g>
<!-- 19 -->
<g id="node20" class="node">
<title>19</title>
<path fill="none" stroke="#56d8a2" stroke-width="2" d="M322,-612C322,-612 292,-612 292,-612 286,-612 280,-606 280,-600 280,-600 280,-588 280,-588 280,-582 286,-576 292,-576 292,-576 322,-576 322,-576 328,-576 334,-582 334,-588 334,-588 334,-600 334,-600 334,-606 328,-612 322,-612"/>
<text text-anchor="middle" x="307" y="-591.5" font-family="sans" font-size="10.00" fill="#000000">filter</text>
</g>
<!-- 19&#45;&gt;17 -->
<g id="edge24" class="edge">
<title>19&#45;&gt;17</title>
<path fill="none" stroke="#c0c0c0" stroke-width="2" d="M307,-575.8314C307,-568.131 307,-558.9743 307,-550.4166"/>
<polygon fill="#c0c0c0" stroke="#c0c0c0" stroke-width="2" points="310.5001,-550.4132 307,-540.4133 303.5001,-550.4133 310.5001,-550.4132"/>
</g>
<!-- 20 -->
<g id="node21" class="node">
<title>20</title>
<path fill="none" stroke="#d8b456" stroke-width="2" d="M342.5,-684C342.5,-684 271.5,-684 271.5,-684 265.5,-684 259.5,-678 259.5,-672 259.5,-672 259.5,-660 259.5,-660 259.5,-654 265.5,-648 271.5,-648 271.5,-648 342.5,-648 342.5,-648 348.5,-648 354.5,-654 354.5,-660 354.5,-660 354.5,-672 354.5,-672 354.5,-678 348.5,-684 342.5,-684"/>
<text text-anchor="middle" x="307" y="-663.5" font-family="sans" font-size="10.00" fill="#000000">check_barcodes</text>
</g>
<!-- 20&#45;&gt;19 -->
<g id="edge25" class="edge">
<title>20&#45;&gt;19</title>
<path fill="none" stroke="#c0c0c0" stroke-width="2" d="M307,-647.8314C307,-640.131 307,-630.9743 307,-622.4166"/>
<polygon fill="#c0c0c0" stroke="#c0c0c0" stroke-width="2" points="310.5001,-622.4132 307,-612.4133 303.5001,-622.4133 310.5001,-622.4132"/>
</g>
<!-- 21 -->
<g id="node22" class="node">
<title>21</title>
<path fill="none" stroke="#566bd8" stroke-width="2" d="M337,-756C337,-756 277,-756 277,-756 271,-756 265,-750 265,-744 265,-744 265,-732 265,-732 265,-726 271,-720 277,-720 277,-720 337,-720 337,-720 343,-720 349,-726 349,-732 349,-732 349,-744 349,-744 349,-750 343,-756 337,-756"/>
<text text-anchor="middle" x="307" y="-735.5" font-family="sans" font-size="10.00" fill="#000000">check_pairing</text>
</g>
<!-- 21&#45;&gt;20 -->
<g id="edge26" class="edge">
<title>21&#45;&gt;20</title>
<path fill="none" stroke="#c0c0c0" stroke-width="2" d="M307,-719.8314C307,-712.131 307,-702.9743 307,-694.4166"/>
<polygon fill="#c0c0c0" stroke="#c0c0c0" stroke-width="2" points="310.5001,-694.4132 307,-684.4133 303.5001,-694.4133 310.5001,-694.4132"/>
</g>
</g>
</svg>
