<?xml version="1.0" encoding="UTF-8" standalone="no"?>
<!DOCTYPE svg PUBLIC "-//W3C//DTD SVG 1.1//EN"
 "http://www.w3.org/Graphics/SVG/1.1/DTD/svg11.dtd">
<!-- Generated by graphviz version 2.40.1 (20161225.0304)
 -->
<!-- Title: snakemake_dag Pages: 1 -->
<svg width="1099pt" height="846pt"
 viewBox="0.00 0.00 1098.50 846.00" xmlns="http://www.w3.org/2000/svg" xmlns:xlink="http://www.w3.org/1999/xlink">
<g id="graph0" class="graph" transform="scale(1 1) rotate(0) translate(4 842)">
<title>snakemake_dag</title>
<polygon fill="#ffffff" stroke="transparent" points="-4,4 -4,-842 1094.5,-842 1094.5,4 -4,4"/>
<!-- 0 -->
<g id="node1" class="node">
<title>0</title>
<path fill="none" stroke="#56d8d0" stroke-width="2" d="M470,-36C470,-36 440,-36 440,-36 434,-36 428,-30 428,-24 428,-24 428,-12 428,-12 428,-6 434,0 440,0 440,0 470,0 470,0 476,0 482,-6 482,-12 482,-12 482,-24 482,-24 482,-30 476,-36 470,-36"/>
<text text-anchor="middle" x="455" y="-15.5" font-family="sans" font-size="10.00" fill="#000000">target</text>
</g>
<!-- 1 -->
<g id="node2" class="node">
<title>1</title>
<path fill="none" stroke="#d85656" stroke-width="2" d="M685.5,-262C685.5,-262 642.5,-262 642.5,-262 636.5,-262 630.5,-256 630.5,-250 630.5,-250 630.5,-233 630.5,-233 630.5,-227 636.5,-221 642.5,-221 642.5,-221 685.5,-221 685.5,-221 691.5,-221 697.5,-227 697.5,-233 697.5,-233 697.5,-250 697.5,-250 697.5,-256 691.5,-262 685.5,-262"/>
<text text-anchor="middle" x="664" y="-250" font-family="sans" font-size="10.00" fill="#000000">index_vcf</text>
<text text-anchor="middle" x="664" y="-239" font-family="sans" font-size="10.00" fill="#000000">file: calls</text>
<text text-anchor="middle" x="664" y="-228" font-family="sans" font-size="10.00" fill="#000000">folder: out</text>
</g>
<!-- 1&#45;&gt;0 -->
<g id="edge1" class="edge">
<title>1&#45;&gt;0</title>
<path fill="none" stroke="#c0c0c0" stroke-width="2" d="M697.6395,-228.356C716.0969,-219.2016 737.3431,-205.0114 748,-185 757.3344,-167.4721 762.8898,-91.7841 746,-72 713.7113,-34.1783 563.8859,-22.6794 492.7238,-19.3202"/>
<polygon fill="#c0c0c0" stroke="#c0c0c0" stroke-width="2" points="492.5578,-15.8095 482.413,-18.8648 492.2488,-22.8027 492.5578,-15.8095"/>
</g>
<!-- 18 -->
<g id="node19" class="node">
<title>18</title>
<path fill="none" stroke="#56b9d8" stroke-width="2" d="M897,-185C897,-185 821,-185 821,-185 815,-185 809,-179 809,-173 809,-173 809,-161 809,-161 809,-155 815,-149 821,-149 821,-149 897,-149 897,-149 903,-149 909,-155 909,-161 909,-161 909,-173 909,-173 909,-179 903,-185 897,-185"/>
<text text-anchor="middle" x="859" y="-170" font-family="sans" font-size="10.00" fill="#000000">vcf_stats</text>
<text text-anchor="middle" x="859" y="-159" font-family="sans" font-size="10.00" fill="#000000">ext: ldepth.mean</text>
</g>
<!-- 1&#45;&gt;18 -->
<g id="edge32" class="edge">
<title>1&#45;&gt;18</title>
<path fill="none" stroke="#c0c0c0" stroke-width="2" d="M697.5217,-228.693C726.2874,-217.703 768.3555,-201.6308 802.342,-188.6463"/>
<polygon fill="#c0c0c0" stroke="#c0c0c0" stroke-width="2" points="803.6035,-191.9111 811.6958,-185.0726 801.1052,-185.3721 803.6035,-191.9111"/>
</g>
<!-- 19 -->
<g id="node20" class="node">
<title>19</title>
<path fill="none" stroke="#56b9d8" stroke-width="2" d="M1026.5,-185C1026.5,-185 989.5,-185 989.5,-185 983.5,-185 977.5,-179 977.5,-173 977.5,-173 977.5,-161 977.5,-161 977.5,-155 983.5,-149 989.5,-149 989.5,-149 1026.5,-149 1026.5,-149 1032.5,-149 1038.5,-155 1038.5,-161 1038.5,-161 1038.5,-173 1038.5,-173 1038.5,-179 1032.5,-185 1026.5,-185"/>
<text text-anchor="middle" x="1008" y="-170" font-family="sans" font-size="10.00" fill="#000000">vcf_stats</text>
<text text-anchor="middle" x="1008" y="-159" font-family="sans" font-size="10.00" fill="#000000">ext: frq</text>
</g>
<!-- 1&#45;&gt;19 -->
<g id="edge33" class="edge">
<title>1&#45;&gt;19</title>
<path fill="none" stroke="#c0c0c0" stroke-width="2" d="M697.6105,-234.221C761.129,-220.4648 898.5655,-190.7002 967.2322,-175.8291"/>
<polygon fill="#c0c0c0" stroke="#c0c0c0" stroke-width="2" points="968.2116,-179.1982 977.2442,-173.6608 966.7299,-172.3568 968.2116,-179.1982"/>
</g>
<!-- 20 -->
<g id="node21" class="node">
<title>20</title>
<path fill="none" stroke="#56b9d8" stroke-width="2" d="M479.5,-185C479.5,-185 434.5,-185 434.5,-185 428.5,-185 422.5,-179 422.5,-173 422.5,-173 422.5,-161 422.5,-161 422.5,-155 428.5,-149 434.5,-149 434.5,-149 479.5,-149 479.5,-149 485.5,-149 491.5,-155 491.5,-161 491.5,-161 491.5,-173 491.5,-173 491.5,-179 485.5,-185 479.5,-185"/>
<text text-anchor="middle" x="457" y="-170" font-family="sans" font-size="10.00" fill="#000000">vcf_stats</text>
<text text-anchor="middle" x="457" y="-159" font-family="sans" font-size="10.00" fill="#000000">ext: idepth</text>
</g>
<!-- 1&#45;&gt;20 -->
<g id="edge34" class="edge">
<title>1&#45;&gt;20</title>
<path fill="none" stroke="#c0c0c0" stroke-width="2" d="M630.4049,-230.4524C597.3129,-219.4302 545.4118,-201.767 501,-185 500.9035,-184.9636 500.8069,-184.927 500.7101,-184.8905"/>
<polygon fill="#c0c0c0" stroke="#c0c0c0" stroke-width="2" points="502.1057,-181.6777 491.5167,-181.3286 499.5768,-188.205 502.1057,-181.6777"/>
</g>
<!-- 21 -->
<g id="node22" class="node">
<title>21</title>
<path fill="none" stroke="#56b9d8" stroke-width="2" d="M560,-185C560,-185 522,-185 522,-185 516,-185 510,-179 510,-173 510,-173 510,-161 510,-161 510,-155 516,-149 522,-149 522,-149 560,-149 560,-149 566,-149 572,-155 572,-161 572,-161 572,-173 572,-173 572,-179 566,-185 560,-185"/>
<text text-anchor="middle" x="541" y="-170" font-family="sans" font-size="10.00" fill="#000000">vcf_stats</text>
<text text-anchor="middle" x="541" y="-159" font-family="sans" font-size="10.00" fill="#000000">ext: lqual</text>
</g>
<!-- 1&#45;&gt;21 -->
<g id="edge35" class="edge">
<title>1&#45;&gt;21</title>
<path fill="none" stroke="#c0c0c0" stroke-width="2" d="M630.3897,-221.1425C614.6658,-211.6187 595.8559,-200.2257 579.5561,-190.3531"/>
<polygon fill="#c0c0c0" stroke="#c0c0c0" stroke-width="2" points="581.1611,-187.2333 570.7945,-185.0463 577.5346,-193.2207 581.1611,-187.2333"/>
</g>
<!-- 22 -->
<g id="node23" class="node">
<title>22</title>
<path fill="none" stroke="#56b9d8" stroke-width="2" d="M643.5,-185C643.5,-185 602.5,-185 602.5,-185 596.5,-185 590.5,-179 590.5,-173 590.5,-173 590.5,-161 590.5,-161 590.5,-155 596.5,-149 602.5,-149 602.5,-149 643.5,-149 643.5,-149 649.5,-149 655.5,-155 655.5,-161 655.5,-161 655.5,-173 655.5,-173 655.5,-179 649.5,-185 643.5,-185"/>
<text text-anchor="middle" x="623" y="-170" font-family="sans" font-size="10.00" fill="#000000">vcf_stats</text>
<text text-anchor="middle" x="623" y="-159" font-family="sans" font-size="10.00" fill="#000000">ext: imiss</text>
</g>
<!-- 1&#45;&gt;22 -->
<g id="edge36" class="edge">
<title>1&#45;&gt;22</title>
<path fill="none" stroke="#c0c0c0" stroke-width="2" d="M652.5792,-220.7476C648.0069,-212.4394 642.6795,-202.7591 637.8156,-193.9211"/>
<polygon fill="#c0c0c0" stroke="#c0c0c0" stroke-width="2" points="640.8537,-192.1821 632.9658,-185.1087 634.721,-195.5571 640.8537,-192.1821"/>
</g>
<!-- 23 -->
<g id="node24" class="node">
<title>23</title>
<path fill="none" stroke="#56b9d8" stroke-width="2" d="M726.5,-185C726.5,-185 685.5,-185 685.5,-185 679.5,-185 673.5,-179 673.5,-173 673.5,-173 673.5,-161 673.5,-161 673.5,-155 679.5,-149 685.5,-149 685.5,-149 726.5,-149 726.5,-149 732.5,-149 738.5,-155 738.5,-161 738.5,-161 738.5,-173 738.5,-173 738.5,-179 732.5,-185 726.5,-185"/>
<text text-anchor="middle" x="706" y="-170" font-family="sans" font-size="10.00" fill="#000000">vcf_stats</text>
<text text-anchor="middle" x="706" y="-159" font-family="sans" font-size="10.00" fill="#000000">ext: lmiss</text>
</g>
<!-- 1&#45;&gt;23 -->
<g id="edge37" class="edge">
<title>1&#45;&gt;23</title>
<path fill="none" stroke="#c0c0c0" stroke-width="2" d="M675.6993,-220.7476C680.3832,-212.4394 685.8405,-202.7591 690.823,-193.9211"/>
<polygon fill="#c0c0c0" stroke="#c0c0c0" stroke-width="2" points="693.929,-195.5386 695.7911,-185.1087 687.8312,-192.1009 693.929,-195.5386"/>
</g>
<!-- 2 -->
<g id="node3" class="node">
<title>2</title>
<path fill="none" stroke="#d86e56" stroke-width="2" d="M120.5,-185C120.5,-185 69.5,-185 69.5,-185 63.5,-185 57.5,-179 57.5,-173 57.5,-173 57.5,-161 57.5,-161 57.5,-155 63.5,-149 69.5,-149 69.5,-149 120.5,-149 120.5,-149 126.5,-149 132.5,-155 132.5,-161 132.5,-161 132.5,-173 132.5,-173 132.5,-179 126.5,-185 120.5,-185"/>
<text text-anchor="middle" x="95" y="-164.5" font-family="sans" font-size="10.00" fill="#000000">merge_bam</text>
</g>
<!-- 2&#45;&gt;0 -->
<g id="edge2" class="edge">
<title>2&#45;&gt;0</title>
<path fill="none" stroke="#c0c0c0" stroke-width="2" d="M96.963,-148.8383C100.3379,-127.043 109.3468,-91.058 133,-72 176.2793,-37.1288 342.2052,-23.995 417.4772,-19.7581"/>
<polygon fill="#c0c0c0" stroke="#c0c0c0" stroke-width="2" points="418.1027,-23.2296 427.8997,-19.196 417.7257,-16.2397 418.1027,-23.2296"/>
</g>
<!-- 3 -->
<g id="node4" class="node">
<title>3</title>
<path fill="none" stroke="#56d8b9" stroke-width="2" d="M74,-113C74,-113 12,-113 12,-113 6,-113 0,-107 0,-101 0,-101 0,-84 0,-84 0,-78 6,-72 12,-72 12,-72 74,-72 74,-72 80,-72 86,-78 86,-84 86,-84 86,-101 86,-101 86,-107 80,-113 74,-113"/>
<text text-anchor="middle" x="43" y="-101" font-family="sans" font-size="10.00" fill="#000000">index_bamfile</text>
<text text-anchor="middle" x="43" y="-90" font-family="sans" font-size="10.00" fill="#000000">file: merged</text>
<text text-anchor="middle" x="43" y="-79" font-family="sans" font-size="10.00" fill="#000000">folder: out</text>
</g>
<!-- 2&#45;&gt;3 -->
<g id="edge18" class="edge">
<title>2&#45;&gt;3</title>
<path fill="none" stroke="#c0c0c0" stroke-width="2" d="M82.4123,-148.9656C76.659,-140.723 69.6992,-130.7518 63.2391,-121.4964"/>
<polygon fill="#c0c0c0" stroke="#c0c0c0" stroke-width="2" points="66.0893,-119.4647 57.4957,-113.2679 60.3492,-123.4712 66.0893,-119.4647"/>
</g>
<!-- 3&#45;&gt;0 -->
<g id="edge3" class="edge">
<title>3&#45;&gt;0</title>
<path fill="none" stroke="#c0c0c0" stroke-width="2" d="M86.2989,-75.9463C90.887,-74.4875 95.5145,-73.1363 100,-72 213.918,-43.1424 352.5543,-27.5039 417.7384,-21.2637"/>
<polygon fill="#c0c0c0" stroke="#c0c0c0" stroke-width="2" points="418.2955,-24.7269 427.9249,-20.3083 417.6418,-17.7575 418.2955,-24.7269"/>
</g>
<!-- 4 -->
<g id="node5" class="node">
<title>4</title>
<path fill="none" stroke="#8fd856" stroke-width="2" d="M912.5,-110.5C912.5,-110.5 805.5,-110.5 805.5,-110.5 799.5,-110.5 793.5,-104.5 793.5,-98.5 793.5,-98.5 793.5,-86.5 793.5,-86.5 793.5,-80.5 799.5,-74.5 805.5,-74.5 805.5,-74.5 912.5,-74.5 912.5,-74.5 918.5,-74.5 924.5,-80.5 924.5,-86.5 924.5,-86.5 924.5,-98.5 924.5,-98.5 924.5,-104.5 918.5,-110.5 912.5,-110.5"/>
<text text-anchor="middle" x="859" y="-90" font-family="sans" font-size="10.00" fill="#000000">calculate_ldepth_cutoff</text>
</g>
<!-- 4&#45;&gt;0 -->
<g id="edge4" class="edge">
<title>4&#45;&gt;0</title>
<path fill="none" stroke="#c0c0c0" stroke-width="2" d="M793.1838,-75.1583C788.3947,-74.0429 783.6294,-72.9771 779,-72 675.8327,-50.2262 552.6751,-31.7355 492.2217,-23.1439"/>
<polygon fill="#c0c0c0" stroke="#c0c0c0" stroke-width="2" points="492.4197,-19.6372 482.0286,-21.7048 491.4411,-26.5685 492.4197,-19.6372"/>
</g>
<!-- 5 -->
<g id="node6" class="node">
<title>5</title>
<path fill="none" stroke="#d8bc56" stroke-width="2" d="M1078.5,-110.5C1078.5,-110.5 1037.5,-110.5 1037.5,-110.5 1031.5,-110.5 1025.5,-104.5 1025.5,-98.5 1025.5,-98.5 1025.5,-86.5 1025.5,-86.5 1025.5,-80.5 1031.5,-74.5 1037.5,-74.5 1037.5,-74.5 1078.5,-74.5 1078.5,-74.5 1084.5,-74.5 1090.5,-80.5 1090.5,-86.5 1090.5,-86.5 1090.5,-98.5 1090.5,-98.5 1090.5,-104.5 1084.5,-110.5 1078.5,-110.5"/>
<text text-anchor="middle" x="1058" y="-90" font-family="sans" font-size="10.00" fill="#000000">plot_stats</text>
</g>
<!-- 5&#45;&gt;0 -->
<g id="edge5" class="edge">
<title>5&#45;&gt;0</title>
<path fill="none" stroke="#c0c0c0" stroke-width="2" d="M1025.3052,-74.8546C1022.5436,-73.7649 1019.7536,-72.791 1017,-72 917.7353,-43.4862 601.0746,-25.3248 492.191,-19.7935"/>
<polygon fill="#c0c0c0" stroke="#c0c0c0" stroke-width="2" points="492.1834,-16.2888 482.0205,-19.2831 491.8324,-23.28 492.1834,-16.2888"/>
</g>
<!-- 6 -->
<g id="node7" class="node">
<title>6</title>
<path fill="none" stroke="#d8bc56" stroke-width="2" d="M475.5,-110.5C475.5,-110.5 434.5,-110.5 434.5,-110.5 428.5,-110.5 422.5,-104.5 422.5,-98.5 422.5,-98.5 422.5,-86.5 422.5,-86.5 422.5,-80.5 428.5,-74.5 434.5,-74.5 434.5,-74.5 475.5,-74.5 475.5,-74.5 481.5,-74.5 487.5,-80.5 487.5,-86.5 487.5,-86.5 487.5,-98.5 487.5,-98.5 487.5,-104.5 481.5,-110.5 475.5,-110.5"/>
<text text-anchor="middle" x="455" y="-90" font-family="sans" font-size="10.00" fill="#000000">plot_stats</text>
</g>
<!-- 6&#45;&gt;0 -->
<g id="edge6" class="edge">
<title>6&#45;&gt;0</title>
<path fill="none" stroke="#c0c0c0" stroke-width="2" d="M455,-74.4656C455,-66.0178 455,-55.7542 455,-46.3064"/>
<polygon fill="#c0c0c0" stroke="#c0c0c0" stroke-width="2" points="458.5001,-46.1265 455,-36.1265 451.5001,-46.1265 458.5001,-46.1265"/>
</g>
<!-- 7 -->
<g id="node8" class="node">
<title>7</title>
<path fill="none" stroke="#d8bc56" stroke-width="2" d="M995.5,-110.5C995.5,-110.5 954.5,-110.5 954.5,-110.5 948.5,-110.5 942.5,-104.5 942.5,-98.5 942.5,-98.5 942.5,-86.5 942.5,-86.5 942.5,-80.5 948.5,-74.5 954.5,-74.5 954.5,-74.5 995.5,-74.5 995.5,-74.5 1001.5,-74.5 1007.5,-80.5 1007.5,-86.5 1007.5,-86.5 1007.5,-98.5 1007.5,-98.5 1007.5,-104.5 1001.5,-110.5 995.5,-110.5"/>
<text text-anchor="middle" x="975" y="-90" font-family="sans" font-size="10.00" fill="#000000">plot_stats</text>
</g>
<!-- 7&#45;&gt;0 -->
<g id="edge7" class="edge">
<title>7&#45;&gt;0</title>
<path fill="none" stroke="#c0c0c0" stroke-width="2" d="M942.2905,-74.9048C939.5322,-73.8038 936.747,-72.8136 934,-72 851.0639,-47.4355 589.74,-27.332 492.1993,-20.5021"/>
<polygon fill="#c0c0c0" stroke="#c0c0c0" stroke-width="2" points="492.4241,-17.0094 482.2058,-19.8088 491.9396,-23.9926 492.4241,-17.0094"/>
</g>
<!-- 8 -->
<g id="node9" class="node">
<title>8</title>
<path fill="none" stroke="#d8bc56" stroke-width="2" d="M558.5,-110.5C558.5,-110.5 517.5,-110.5 517.5,-110.5 511.5,-110.5 505.5,-104.5 505.5,-98.5 505.5,-98.5 505.5,-86.5 505.5,-86.5 505.5,-80.5 511.5,-74.5 517.5,-74.5 517.5,-74.5 558.5,-74.5 558.5,-74.5 564.5,-74.5 570.5,-80.5 570.5,-86.5 570.5,-86.5 570.5,-98.5 570.5,-98.5 570.5,-104.5 564.5,-110.5 558.5,-110.5"/>
<text text-anchor="middle" x="538" y="-90" font-family="sans" font-size="10.00" fill="#000000">plot_stats</text>
</g>
<!-- 8&#45;&gt;0 -->
<g id="edge8" class="edge">
<title>8&#45;&gt;0</title>
<path fill="none" stroke="#c0c0c0" stroke-width="2" d="M517.908,-74.4656C507.3831,-65.0186 494.3285,-53.3009 482.8441,-42.9926"/>
<polygon fill="#c0c0c0" stroke="#c0c0c0" stroke-width="2" points="484.9744,-40.2016 475.1946,-36.1265 480.2986,-45.4109 484.9744,-40.2016"/>
</g>
<!-- 9 -->
<g id="node10" class="node">
<title>9</title>
<path fill="none" stroke="#d8bc56" stroke-width="2" d="M641.5,-110.5C641.5,-110.5 600.5,-110.5 600.5,-110.5 594.5,-110.5 588.5,-104.5 588.5,-98.5 588.5,-98.5 588.5,-86.5 588.5,-86.5 588.5,-80.5 594.5,-74.5 600.5,-74.5 600.5,-74.5 641.5,-74.5 641.5,-74.5 647.5,-74.5 653.5,-80.5 653.5,-86.5 653.5,-86.5 653.5,-98.5 653.5,-98.5 653.5,-104.5 647.5,-110.5 641.5,-110.5"/>
<text text-anchor="middle" x="621" y="-90" font-family="sans" font-size="10.00" fill="#000000">plot_stats</text>
</g>
<!-- 9&#45;&gt;0 -->
<g id="edge9" class="edge">
<title>9&#45;&gt;0</title>
<path fill="none" stroke="#c0c0c0" stroke-width="2" d="M588.4062,-75.9977C585.5726,-74.6255 582.7416,-73.2764 580,-72 550.4854,-58.2592 516.5507,-43.6747 491.4933,-33.1308"/>
<polygon fill="#c0c0c0" stroke="#c0c0c0" stroke-width="2" points="492.5907,-29.7958 482.0151,-29.157 489.8841,-36.2513 492.5907,-29.7958"/>
</g>
<!-- 10 -->
<g id="node11" class="node">
<title>10</title>
<path fill="none" stroke="#d8bc56" stroke-width="2" d="M724.5,-110.5C724.5,-110.5 683.5,-110.5 683.5,-110.5 677.5,-110.5 671.5,-104.5 671.5,-98.5 671.5,-98.5 671.5,-86.5 671.5,-86.5 671.5,-80.5 677.5,-74.5 683.5,-74.5 683.5,-74.5 724.5,-74.5 724.5,-74.5 730.5,-74.5 736.5,-80.5 736.5,-86.5 736.5,-86.5 736.5,-98.5 736.5,-98.5 736.5,-104.5 730.5,-110.5 724.5,-110.5"/>
<text text-anchor="middle" x="704" y="-90" font-family="sans" font-size="10.00" fill="#000000">plot_stats</text>
</g>
<!-- 10&#45;&gt;0 -->
<g id="edge10" class="edge">
<title>10&#45;&gt;0</title>
<path fill="none" stroke="#c0c0c0" stroke-width="2" d="M671.1476,-75.3313C668.4213,-74.1346 665.6825,-73.0061 663,-72 604.7505,-50.1527 534.134,-33.8554 491.9758,-25.1474"/>
<polygon fill="#c0c0c0" stroke="#c0c0c0" stroke-width="2" points="492.6479,-21.7125 482.151,-23.1494 491.2528,-28.5721 492.6479,-21.7125"/>
</g>
<!-- 11 -->
<g id="node12" class="node">
<title>11</title>
<path fill="none" stroke="#56d0d8" stroke-width="2" d="M411.5,-694C411.5,-694 376.5,-694 376.5,-694 370.5,-694 364.5,-688 364.5,-682 364.5,-682 364.5,-670 364.5,-670 364.5,-664 370.5,-658 376.5,-658 376.5,-658 411.5,-658 411.5,-658 417.5,-658 423.5,-664 423.5,-670 423.5,-670 423.5,-682 423.5,-682 423.5,-688 417.5,-694 411.5,-694"/>
<text text-anchor="middle" x="394" y="-673.5" font-family="sans" font-size="10.00" fill="#000000">fa_index</text>
</g>
<!-- 11&#45;&gt;0 -->
<g id="edge11" class="edge">
<title>11&#45;&gt;0</title>
<path fill="none" stroke="#c0c0c0" stroke-width="2" d="M394,-657.8146C394,-630.4983 394,-577.25 394,-532 394,-532 394,-532 394,-167 394,-123.8522 396.0738,-111.2477 414,-72 418.4747,-62.203 424.9885,-52.5108 431.512,-44.1001"/>
<polygon fill="#c0c0c0" stroke="#c0c0c0" stroke-width="2" points="434.3738,-46.1282 437.9637,-36.1601 428.9412,-41.7139 434.3738,-46.1282"/>
</g>
<!-- 24 -->
<g id="node25" class="node">
<title>24</title>
<path fill="none" stroke="#d89556" stroke-width="2" d="M353.5,-185C353.5,-185 290.5,-185 290.5,-185 284.5,-185 278.5,-179 278.5,-173 278.5,-173 278.5,-161 278.5,-161 278.5,-155 284.5,-149 290.5,-149 290.5,-149 353.5,-149 353.5,-149 359.5,-149 365.5,-155 365.5,-161 365.5,-161 365.5,-173 365.5,-173 365.5,-179 359.5,-185 353.5,-185"/>
<text text-anchor="middle" x="322" y="-164.5" font-family="sans" font-size="10.00" fill="#000000">freebayes_csd</text>
</g>
<!-- 11&#45;&gt;24 -->
<g id="edge40" class="edge">
<title>11&#45;&gt;24</title>
<path fill="none" stroke="#c0c0c0" stroke-width="2" d="M385.9412,-657.7668C374.7866,-630.8248 356,-578.5405 356,-532 356,-532 356,-532 356,-316 356,-272.8031 342.249,-224.2873 332.2371,-194.6883"/>
<polygon fill="#c0c0c0" stroke="#c0c0c0" stroke-width="2" points="335.474,-193.3405 328.8804,-185.0474 328.8633,-195.6423 335.474,-193.3405"/>
</g>
<!-- 31 -->
<g id="node32" class="node">
<title>31</title>
<path fill="none" stroke="#59d856" stroke-width="2" d="M586.5,-622C586.5,-622 509.5,-622 509.5,-622 503.5,-622 497.5,-616 497.5,-610 497.5,-610 497.5,-598 497.5,-598 497.5,-592 503.5,-586 509.5,-586 509.5,-586 586.5,-586 586.5,-586 592.5,-586 598.5,-592 598.5,-598 598.5,-598 598.5,-610 598.5,-610 598.5,-616 592.5,-622 586.5,-622"/>
<text text-anchor="middle" x="548" y="-601.5" font-family="sans" font-size="10.00" fill="#000000">generate_regions</text>
</g>
<!-- 11&#45;&gt;31 -->
<g id="edge48" class="edge">
<title>11&#45;&gt;31</title>
<path fill="none" stroke="#c0c0c0" stroke-width="2" d="M423.6927,-662.1177C445.3159,-652.0081 475.0654,-638.0993 500.0396,-626.423"/>
<polygon fill="#c0c0c0" stroke="#c0c0c0" stroke-width="2" points="501.774,-629.4758 509.3505,-622.0699 498.8093,-623.1347 501.774,-629.4758"/>
</g>
<!-- 12 -->
<g id="node13" class="node">
<title>12</title>
<path fill="none" stroke="#56d8b9" stroke-width="2" d="M277.5,-262C277.5,-262 186.5,-262 186.5,-262 180.5,-262 174.5,-256 174.5,-250 174.5,-250 174.5,-233 174.5,-233 174.5,-227 180.5,-221 186.5,-221 186.5,-221 277.5,-221 277.5,-221 283.5,-221 289.5,-227 289.5,-233 289.5,-233 289.5,-250 289.5,-250 289.5,-256 283.5,-262 277.5,-262"/>
<text text-anchor="middle" x="232" y="-250" font-family="sans" font-size="10.00" fill="#000000">index_bamfile</text>
<text text-anchor="middle" x="232" y="-239" font-family="sans" font-size="10.00" fill="#000000">file: my_sample</text>
<text text-anchor="middle" x="232" y="-228" font-family="sans" font-size="10.00" fill="#000000">folder: out/020_map</text>
</g>
<!-- 12&#45;&gt;0 -->
<g id="edge12" class="edge">
<title>12&#45;&gt;0</title>
<path fill="none" stroke="#c0c0c0" stroke-width="2" d="M233.1251,-220.95C236.1657,-185.6134 247.414,-113.1764 289,-72 307.3421,-53.8386 374.7732,-35.9373 417.8439,-25.9912"/>
<polygon fill="#c0c0c0" stroke="#c0c0c0" stroke-width="2" points="418.7172,-29.3821 427.6951,-23.7565 417.1686,-22.5555 418.7172,-29.3821"/>
</g>
<!-- 12&#45;&gt;24 -->
<g id="edge39" class="edge">
<title>12&#45;&gt;24</title>
<path fill="none" stroke="#c0c0c0" stroke-width="2" d="M257.07,-220.7476C267.952,-211.7398 280.7824,-201.119 292.152,-191.7076"/>
<polygon fill="#c0c0c0" stroke="#c0c0c0" stroke-width="2" points="294.6523,-194.1814 300.1238,-185.1087 290.1887,-188.7891 294.6523,-194.1814"/>
</g>
<!-- 13 -->
<g id="node14" class="node">
<title>13</title>
<path fill="none" stroke="#56a9d8" stroke-width="2" d="M193,-185C193,-185 163,-185 163,-185 157,-185 151,-179 151,-173 151,-173 151,-161 151,-161 151,-155 157,-149 163,-149 163,-149 193,-149 193,-149 199,-149 205,-155 205,-161 205,-161 205,-173 205,-173 205,-179 199,-185 193,-185"/>
<text text-anchor="middle" x="178" y="-164.5" font-family="sans" font-size="10.00" fill="#000000">ihist</text>
</g>
<!-- 13&#45;&gt;0 -->
<g id="edge13" class="edge">
<title>13&#45;&gt;0</title>
<path fill="none" stroke="#c0c0c0" stroke-width="2" d="M190.8694,-148.7893C208.5724,-124.2147 240.0529,-82.3155 256,-72 306.1541,-39.5575 375.4702,-26.4655 417.6617,-21.2817"/>
<polygon fill="#c0c0c0" stroke="#c0c0c0" stroke-width="2" points="418.2373,-24.7388 427.7758,-20.1272 417.4433,-17.784 418.2373,-24.7388"/>
</g>
<!-- 14 -->
<g id="node15" class="node">
<title>14</title>
<path fill="none" stroke="#d87d56" stroke-width="2" d="M192,-110.5C192,-110.5 154,-110.5 154,-110.5 148,-110.5 142,-104.5 142,-98.5 142,-98.5 142,-86.5 142,-86.5 142,-80.5 148,-74.5 154,-74.5 154,-74.5 192,-74.5 192,-74.5 198,-74.5 204,-80.5 204,-86.5 204,-86.5 204,-98.5 204,-98.5 204,-104.5 198,-110.5 192,-110.5"/>
<text text-anchor="middle" x="173" y="-90" font-family="sans" font-size="10.00" fill="#000000">plot_ihist</text>
</g>
<!-- 13&#45;&gt;14 -->
<g id="edge28" class="edge">
<title>13&#45;&gt;14</title>
<path fill="none" stroke="#c0c0c0" stroke-width="2" d="M176.7896,-148.9656C176.2227,-140.5178 175.5338,-130.2542 174.8998,-120.8064"/>
<polygon fill="#c0c0c0" stroke="#c0c0c0" stroke-width="2" points="178.3784,-120.3697 174.2165,-110.6265 171.3941,-120.8385 178.3784,-120.3697"/>
</g>
<!-- 14&#45;&gt;0 -->
<g id="edge14" class="edge">
<title>14&#45;&gt;0</title>
<path fill="none" stroke="#c0c0c0" stroke-width="2" d="M204.1421,-77.3308C208.7299,-75.3849 213.4452,-73.5385 218,-72 286.9503,-48.7102 370.5574,-32.293 417.7829,-24.0582"/>
<polygon fill="#c0c0c0" stroke="#c0c0c0" stroke-width="2" points="418.5874,-27.4714 427.8516,-22.3308 417.4037,-20.5722 418.5874,-27.4714"/>
</g>
<!-- 15 -->
<g id="node16" class="node">
<title>15</title>
<path fill="none" stroke="#d85656" stroke-width="2" d="M353.5,-113C353.5,-113 310.5,-113 310.5,-113 304.5,-113 298.5,-107 298.5,-101 298.5,-101 298.5,-84 298.5,-84 298.5,-78 304.5,-72 310.5,-72 310.5,-72 353.5,-72 353.5,-72 359.5,-72 365.5,-78 365.5,-84 365.5,-84 365.5,-101 365.5,-101 365.5,-107 359.5,-113 353.5,-113"/>
<text text-anchor="middle" x="332" y="-101" font-family="sans" font-size="10.00" fill="#000000">index_vcf</text>
<text text-anchor="middle" x="332" y="-90" font-family="sans" font-size="10.00" fill="#000000">file: csd</text>
<text text-anchor="middle" x="332" y="-79" font-family="sans" font-size="10.00" fill="#000000">folder: out</text>
</g>
<!-- 15&#45;&gt;0 -->
<g id="edge15" class="edge">
<title>15&#45;&gt;0</title>
<path fill="none" stroke="#c0c0c0" stroke-width="2" d="M365.6103,-72.1425C382.0544,-62.1825 401.8736,-50.1782 418.6672,-40.0065"/>
<polygon fill="#c0c0c0" stroke="#c0c0c0" stroke-width="2" points="420.9049,-42.7431 427.645,-34.5687 417.2784,-36.7557 420.9049,-42.7431"/>
</g>
<!-- 16 -->
<g id="node17" class="node">
<title>16</title>
<path fill="none" stroke="#56d86b" stroke-width="2" d="M671,-334C671,-334 641,-334 641,-334 635,-334 629,-328 629,-322 629,-322 629,-310 629,-310 629,-304 635,-298 641,-298 641,-298 671,-298 671,-298 677,-298 683,-304 683,-310 683,-310 683,-322 683,-322 683,-328 677,-334 671,-334"/>
<text text-anchor="middle" x="656" y="-313.5" font-family="sans" font-size="10.00" fill="#000000">vcfuniq</text>
</g>
<!-- 16&#45;&gt;1 -->
<g id="edge16" class="edge">
<title>16&#45;&gt;1</title>
<path fill="none" stroke="#c0c0c0" stroke-width="2" d="M657.9366,-297.9656C658.7585,-290.3118 659.7404,-281.1674 660.6722,-272.4898"/>
<polygon fill="#c0c0c0" stroke="#c0c0c0" stroke-width="2" points="664.1821,-272.5844 661.7699,-262.2679 657.2221,-271.837 664.1821,-272.5844"/>
</g>
<!-- 17 -->
<g id="node18" class="node">
<title>17</title>
<path fill="none" stroke="#567bd8" stroke-width="2" d="M202,-334C202,-334 166,-334 166,-334 160,-334 154,-328 154,-322 154,-322 154,-310 154,-310 154,-304 160,-298 166,-298 166,-298 202,-298 202,-298 208,-298 214,-304 214,-310 214,-310 214,-322 214,-322 214,-328 208,-334 202,-334"/>
<text text-anchor="middle" x="184" y="-313.5" font-family="sans" font-size="10.00" fill="#000000">markdup</text>
</g>
<!-- 17&#45;&gt;2 -->
<g id="edge17" class="edge">
<title>17&#45;&gt;2</title>
<path fill="none" stroke="#c0c0c0" stroke-width="2" d="M173.0869,-297.7297C157.6067,-271.8135 129.1625,-224.1934 111.2108,-194.1394"/>
<polygon fill="#c0c0c0" stroke="#c0c0c0" stroke-width="2" points="114.1352,-192.21 106.0024,-185.4198 108.1257,-195.7997 114.1352,-192.21"/>
</g>
<!-- 17&#45;&gt;12 -->
<g id="edge26" class="edge">
<title>17&#45;&gt;12</title>
<path fill="none" stroke="#c0c0c0" stroke-width="2" d="M195.6195,-297.9656C200.8759,-289.8071 207.2235,-279.9551 213.1351,-270.7799"/>
<polygon fill="#c0c0c0" stroke="#c0c0c0" stroke-width="2" points="216.1454,-272.5698 218.6194,-262.2679 210.261,-268.7785 216.1454,-272.5698"/>
</g>
<!-- 17&#45;&gt;13 -->
<g id="edge27" class="edge">
<title>17&#45;&gt;13</title>
<path fill="none" stroke="#c0c0c0" stroke-width="2" d="M175.9083,-297.9165C171.7439,-287.6179 167.1082,-274.3436 165,-262 161.1692,-239.5707 165.1353,-214.0098 169.6644,-195.0556"/>
<polygon fill="#c0c0c0" stroke="#c0c0c0" stroke-width="2" points="173.0806,-195.8247 172.1925,-185.2671 166.303,-194.0741 173.0806,-195.8247"/>
</g>
<!-- 17&#45;&gt;24 -->
<g id="edge38" class="edge">
<title>17&#45;&gt;24</title>
<path fill="none" stroke="#c0c0c0" stroke-width="2" d="M214.1811,-309.3808C240.1603,-302.1184 276.7251,-287.8858 298,-262 313.4525,-243.1985 319.1293,-215.7425 321.1307,-195.1766"/>
<polygon fill="#c0c0c0" stroke="#c0c0c0" stroke-width="2" points="324.6263,-195.3636 321.8745,-185.1324 317.6454,-194.8466 324.6263,-195.3636"/>
</g>
<!-- 18&#45;&gt;4 -->
<g id="edge19" class="edge">
<title>18&#45;&gt;4</title>
<path fill="none" stroke="#c0c0c0" stroke-width="2" d="M859,-148.9656C859,-140.5178 859,-130.2542 859,-120.8064"/>
<polygon fill="#c0c0c0" stroke="#c0c0c0" stroke-width="2" points="862.5001,-120.6265 859,-110.6265 855.5001,-120.6265 862.5001,-120.6265"/>
</g>
<!-- 18&#45;&gt;7 -->
<g id="edge22" class="edge">
<title>18&#45;&gt;7</title>
<path fill="none" stroke="#c0c0c0" stroke-width="2" d="M887.0804,-148.9656C902.3556,-139.1552 921.4436,-126.8961 937.9273,-116.3096"/>
<polygon fill="#c0c0c0" stroke="#c0c0c0" stroke-width="2" points="940.2534,-118.9754 946.7762,-110.6265 936.4706,-113.0855 940.2534,-118.9754"/>
</g>
<!-- 19&#45;&gt;5 -->
<g id="edge20" class="edge">
<title>19&#45;&gt;5</title>
<path fill="none" stroke="#c0c0c0" stroke-width="2" d="M1020.1036,-148.9656C1026.1391,-139.9728 1033.5555,-128.9223 1040.2223,-118.9887"/>
<polygon fill="#c0c0c0" stroke="#c0c0c0" stroke-width="2" points="1043.168,-120.8803 1045.8346,-110.6265 1037.3557,-116.9794 1043.168,-120.8803"/>
</g>
<!-- 20&#45;&gt;6 -->
<g id="edge21" class="edge">
<title>20&#45;&gt;6</title>
<path fill="none" stroke="#c0c0c0" stroke-width="2" d="M456.5159,-148.9656C456.2891,-140.5178 456.0135,-130.2542 455.7599,-120.8064"/>
<polygon fill="#c0c0c0" stroke="#c0c0c0" stroke-width="2" points="459.2538,-120.5289 455.4866,-110.6265 452.2563,-120.7169 459.2538,-120.5289"/>
</g>
<!-- 21&#45;&gt;8 -->
<g id="edge23" class="edge">
<title>21&#45;&gt;8</title>
<path fill="none" stroke="#c0c0c0" stroke-width="2" d="M540.2738,-148.9656C539.9336,-140.5178 539.5203,-130.2542 539.1399,-120.8064"/>
<polygon fill="#c0c0c0" stroke="#c0c0c0" stroke-width="2" points="542.6295,-120.4776 538.7299,-110.6265 535.6352,-120.7593 542.6295,-120.4776"/>
</g>
<!-- 22&#45;&gt;9 -->
<g id="edge24" class="edge">
<title>22&#45;&gt;9</title>
<path fill="none" stroke="#c0c0c0" stroke-width="2" d="M622.5159,-148.9656C622.2891,-140.5178 622.0135,-130.2542 621.7599,-120.8064"/>
<polygon fill="#c0c0c0" stroke="#c0c0c0" stroke-width="2" points="625.2538,-120.5289 621.4866,-110.6265 618.2563,-120.7169 625.2538,-120.5289"/>
</g>
<!-- 23&#45;&gt;10 -->
<g id="edge25" class="edge">
<title>23&#45;&gt;10</title>
<path fill="none" stroke="#c0c0c0" stroke-width="2" d="M705.5159,-148.9656C705.2891,-140.5178 705.0135,-130.2542 704.7599,-120.8064"/>
<polygon fill="#c0c0c0" stroke="#c0c0c0" stroke-width="2" points="708.2538,-120.5289 704.4866,-110.6265 701.2563,-120.7169 708.2538,-120.5289"/>
</g>
<!-- 24&#45;&gt;15 -->
<g id="edge29" class="edge">
<title>24&#45;&gt;15</title>
<path fill="none" stroke="#c0c0c0" stroke-width="2" d="M324.4207,-148.9656C325.4594,-141.2277 326.7025,-131.9663 327.8787,-123.2038"/>
<polygon fill="#c0c0c0" stroke="#c0c0c0" stroke-width="2" points="331.3508,-123.6446 329.2124,-113.2679 324.413,-122.7133 331.3508,-123.6446"/>
</g>
<!-- 25 -->
<g id="node26" class="node">
<title>25</title>
<path fill="none" stroke="#56d87b" stroke-width="2" d="M628.5,-406C628.5,-406 567.5,-406 567.5,-406 561.5,-406 555.5,-400 555.5,-394 555.5,-394 555.5,-382 555.5,-382 555.5,-376 561.5,-370 567.5,-370 567.5,-370 628.5,-370 628.5,-370 634.5,-370 640.5,-376 640.5,-382 640.5,-382 640.5,-394 640.5,-394 640.5,-400 634.5,-406 628.5,-406"/>
<text text-anchor="middle" x="598" y="-385.5" font-family="sans" font-size="10.00" fill="#000000">vcfstreamsort</text>
</g>
<!-- 25&#45;&gt;16 -->
<g id="edge30" class="edge">
<title>25&#45;&gt;16</title>
<path fill="none" stroke="#c0c0c0" stroke-width="2" d="M612.6358,-369.8314C619.3161,-361.5386 627.3568,-351.557 634.6904,-342.4533"/>
<polygon fill="#c0c0c0" stroke="#c0c0c0" stroke-width="2" points="637.6194,-344.3965 641.1671,-334.4133 632.1681,-340.0052 637.6194,-344.3965"/>
</g>
<!-- 26 -->
<g id="node27" class="node">
<title>26</title>
<path fill="none" stroke="#566bd8" stroke-width="2" d="M199,-406C199,-406 169,-406 169,-406 163,-406 157,-400 157,-394 157,-394 157,-382 157,-382 157,-376 163,-370 169,-370 169,-370 199,-370 199,-370 205,-370 211,-376 211,-382 211,-382 211,-394 211,-394 211,-400 205,-406 199,-406"/>
<text text-anchor="middle" x="184" y="-385.5" font-family="sans" font-size="10.00" fill="#000000">sort</text>
</g>
<!-- 26&#45;&gt;17 -->
<g id="edge31" class="edge">
<title>26&#45;&gt;17</title>
<path fill="none" stroke="#c0c0c0" stroke-width="2" d="M184,-369.8314C184,-362.131 184,-352.9743 184,-344.4166"/>
<polygon fill="#c0c0c0" stroke="#c0c0c0" stroke-width="2" points="187.5001,-344.4132 184,-334.4133 180.5001,-344.4133 187.5001,-344.4132"/>
</g>
<!-- 27 -->
<g id="node28" class="node">
<title>27</title>
<path fill="none" stroke="#68d856" stroke-width="2" d="M599.5,-478C599.5,-478 538.5,-478 538.5,-478 532.5,-478 526.5,-472 526.5,-466 526.5,-466 526.5,-454 526.5,-454 526.5,-448 532.5,-442 538.5,-442 538.5,-442 599.5,-442 599.5,-442 605.5,-442 611.5,-448 611.5,-454 611.5,-454 611.5,-466 611.5,-466 611.5,-472 605.5,-478 599.5,-478"/>
<text text-anchor="middle" x="569" y="-457.5" font-family="sans" font-size="10.00" fill="#000000">vcffirstheader</text>
</g>
<!-- 27&#45;&gt;25 -->
<g id="edge41" class="edge">
<title>27&#45;&gt;25</title>
<path fill="none" stroke="#c0c0c0" stroke-width="2" d="M576.3179,-441.8314C579.4876,-433.9617 583.27,-424.5712 586.7813,-415.8533"/>
<polygon fill="#c0c0c0" stroke="#c0c0c0" stroke-width="2" points="590.0939,-416.9968 590.5835,-406.4133 583.6008,-414.3815 590.0939,-416.9968"/>
</g>
<!-- 28 -->
<g id="node29" class="node">
<title>28</title>
<path fill="none" stroke="#b6d856" stroke-width="2" d="M199.5,-478C199.5,-478 168.5,-478 168.5,-478 162.5,-478 156.5,-472 156.5,-466 156.5,-466 156.5,-454 156.5,-454 156.5,-448 162.5,-442 168.5,-442 168.5,-442 199.5,-442 199.5,-442 205.5,-442 211.5,-448 211.5,-454 211.5,-454 211.5,-466 211.5,-466 211.5,-472 205.5,-478 199.5,-478"/>
<text text-anchor="middle" x="184" y="-457.5" font-family="sans" font-size="10.00" fill="#000000">fixmate</text>
</g>
<!-- 28&#45;&gt;26 -->
<g id="edge42" class="edge">
<title>28&#45;&gt;26</title>
<path fill="none" stroke="#c0c0c0" stroke-width="2" d="M184,-441.8314C184,-434.131 184,-424.9743 184,-416.4166"/>
<polygon fill="#c0c0c0" stroke="#c0c0c0" stroke-width="2" points="187.5001,-416.4132 184,-406.4133 180.5001,-416.4133 187.5001,-416.4132"/>
</g>
<!-- 29 -->
<g id="node30" class="node">
<title>29</title>
<path fill="none" stroke="#80d856" stroke-width="2" d="M582.5,-550C582.5,-550 527.5,-550 527.5,-550 521.5,-550 515.5,-544 515.5,-538 515.5,-538 515.5,-526 515.5,-526 515.5,-520 521.5,-514 527.5,-514 527.5,-514 582.5,-514 582.5,-514 588.5,-514 594.5,-520 594.5,-526 594.5,-526 594.5,-538 594.5,-538 594.5,-544 588.5,-550 582.5,-550"/>
<text text-anchor="middle" x="555" y="-529.5" font-family="sans" font-size="10.00" fill="#000000">combine_vcf</text>
</g>
<!-- 29&#45;&gt;27 -->
<g id="edge43" class="edge">
<title>29&#45;&gt;27</title>
<path fill="none" stroke="#c0c0c0" stroke-width="2" d="M558.5328,-513.8314C560.0301,-506.131 561.8105,-496.9743 563.4745,-488.4166"/>
<polygon fill="#c0c0c0" stroke="#c0c0c0" stroke-width="2" points="566.9465,-488.8975 565.4196,-478.4133 560.0752,-487.5614 566.9465,-488.8975"/>
</g>
<!-- 30 -->
<g id="node31" class="node">
<title>30</title>
<path fill="none" stroke="#a7d856" stroke-width="2" d="M204,-550C204,-550 164,-550 164,-550 158,-550 152,-544 152,-538 152,-538 152,-526 152,-526 152,-520 158,-514 164,-514 164,-514 204,-514 204,-514 210,-514 216,-520 216,-526 216,-526 216,-538 216,-538 216,-544 210,-550 204,-550"/>
<text text-anchor="middle" x="184" y="-529.5" font-family="sans" font-size="10.00" fill="#000000">bwa_map</text>
</g>
<!-- 30&#45;&gt;28 -->
<g id="edge44" class="edge">
<title>30&#45;&gt;28</title>
<path fill="none" stroke="#c0c0c0" stroke-width="2" d="M184,-513.8314C184,-506.131 184,-496.9743 184,-488.4166"/>
<polygon fill="#c0c0c0" stroke="#c0c0c0" stroke-width="2" points="187.5001,-488.4132 184,-478.4133 180.5001,-488.4133 187.5001,-488.4132"/>
</g>
<!-- 31&#45;&gt;29 -->
<g id="edge45" class="edge">
<title>31&#45;&gt;29</title>
<path fill="none" stroke="#c0c0c0" stroke-width="2" d="M549.7664,-585.8314C550.515,-578.131 551.4053,-568.9743 552.2373,-560.4166"/>
<polygon fill="#c0c0c0" stroke="#c0c0c0" stroke-width="2" points="555.7256,-560.7051 553.2098,-550.4133 548.7585,-560.0276 555.7256,-560.7051"/>
</g>
<!-- 32 -->
<g id="node33" class="node">
<title>32</title>
<path fill="none" stroke="#d8cb56" stroke-width="2" d="M190,-622C190,-622 160,-622 160,-622 154,-622 148,-616 148,-610 148,-610 148,-598 148,-598 148,-592 154,-586 160,-586 160,-586 190,-586 190,-586 196,-586 202,-592 202,-598 202,-598 202,-610 202,-610 202,-616 196,-622 190,-622"/>
<text text-anchor="middle" x="175" y="-601.5" font-family="sans" font-size="10.00" fill="#000000">trim</text>
</g>
<!-- 32&#45;&gt;30 -->
<g id="edge46" class="edge">
<title>32&#45;&gt;30</title>
<path fill="none" stroke="#c0c0c0" stroke-width="2" d="M177.2711,-585.8314C178.2336,-578.131 179.3782,-568.9743 180.4479,-560.4166"/>
<polygon fill="#c0c0c0" stroke="#c0c0c0" stroke-width="2" points="183.9309,-560.7702 181.6983,-550.4133 176.9849,-559.9019 183.9309,-560.7702"/>
</g>
<!-- 33 -->
<g id="node34" class="node">
<title>33</title>
<path fill="none" stroke="#ced856" stroke-width="2" d="M277.5,-622C277.5,-622 232.5,-622 232.5,-622 226.5,-622 220.5,-616 220.5,-610 220.5,-610 220.5,-598 220.5,-598 220.5,-592 226.5,-586 232.5,-586 232.5,-586 277.5,-586 277.5,-586 283.5,-586 289.5,-592 289.5,-598 289.5,-598 289.5,-610 289.5,-610 289.5,-616 283.5,-622 277.5,-622"/>
<text text-anchor="middle" x="255" y="-601.5" font-family="sans" font-size="10.00" fill="#000000">bwa_index</text>
</g>
<!-- 33&#45;&gt;30 -->
<g id="edge47" class="edge">
<title>33&#45;&gt;30</title>
<path fill="none" stroke="#c0c0c0" stroke-width="2" d="M237.0837,-585.8314C228.6558,-577.2848 218.459,-566.9443 209.264,-557.6198"/>
<polygon fill="#c0c0c0" stroke="#c0c0c0" stroke-width="2" points="211.6711,-555.0761 202.1575,-550.4133 206.6869,-559.9912 211.6711,-555.0761"/>
</g>
<!-- 34 -->
<g id="node35" class="node">
<title>34</title>
<path fill="none" stroke="#d8a456" stroke-width="2" d="M190,-694C190,-694 160,-694 160,-694 154,-694 148,-688 148,-682 148,-682 148,-670 148,-670 148,-664 154,-658 160,-658 160,-658 190,-658 190,-658 196,-658 202,-664 202,-670 202,-670 202,-682 202,-682 202,-688 196,-694 190,-694"/>
<text text-anchor="middle" x="175" y="-673.5" font-family="sans" font-size="10.00" fill="#000000">filter</text>
</g>
<!-- 34&#45;&gt;32 -->
<g id="edge49" class="edge">
<title>34&#45;&gt;32</title>
<path fill="none" stroke="#c0c0c0" stroke-width="2" d="M175,-657.8314C175,-650.131 175,-640.9743 175,-632.4166"/>
<polygon fill="#c0c0c0" stroke="#c0c0c0" stroke-width="2" points="178.5001,-632.4132 175,-622.4133 171.5001,-632.4133 178.5001,-632.4132"/>
</g>
<!-- 35 -->
<g id="node36" class="node">
<title>35</title>
<path fill="none" stroke="#56d892" stroke-width="2" d="M210.5,-766C210.5,-766 139.5,-766 139.5,-766 133.5,-766 127.5,-760 127.5,-754 127.5,-754 127.5,-742 127.5,-742 127.5,-736 133.5,-730 139.5,-730 139.5,-730 210.5,-730 210.5,-730 216.5,-730 222.5,-736 222.5,-742 222.5,-742 222.5,-754 222.5,-754 222.5,-760 216.5,-766 210.5,-766"/>
<text text-anchor="middle" x="175" y="-745.5" font-family="sans" font-size="10.00" fill="#000000">check_barcodes</text>
</g>
<!-- 35&#45;&gt;34 -->
<g id="edge50" class="edge">
<title>35&#45;&gt;34</title>
<path fill="none" stroke="#c0c0c0" stroke-width="2" d="M175,-729.8314C175,-722.131 175,-712.9743 175,-704.4166"/>
<polygon fill="#c0c0c0" stroke="#c0c0c0" stroke-width="2" points="178.5001,-704.4132 175,-694.4133 171.5001,-704.4133 178.5001,-704.4132"/>
</g>
<!-- 36 -->
<g id="node37" class="node">
<title>36</title>
<path fill="none" stroke="#56d8a9" stroke-width="2" d="M237.5,-838C237.5,-838 112.5,-838 112.5,-838 106.5,-838 100.5,-832 100.5,-826 100.5,-826 100.5,-814 100.5,-814 100.5,-808 106.5,-802 112.5,-802 112.5,-802 237.5,-802 237.5,-802 243.5,-802 249.5,-808 249.5,-814 249.5,-814 249.5,-826 249.5,-826 249.5,-832 243.5,-838 237.5,-838"/>
<text text-anchor="middle" x="175" y="-823" font-family="sans" font-size="10.00" fill="#000000">check_pairing</text>
<text text-anchor="middle" x="175" y="-812" font-family="sans" font-size="10.00" fill="#000000">sample_name: my_sample</text>
</g>
<!-- 36&#45;&gt;35 -->
<g id="edge51" class="edge">
<title>36&#45;&gt;35</title>
<path fill="none" stroke="#c0c0c0" stroke-width="2" d="M175,-801.8314C175,-794.131 175,-784.9743 175,-776.4166"/>
<polygon fill="#c0c0c0" stroke="#c0c0c0" stroke-width="2" points="178.5001,-776.4132 175,-766.4133 171.5001,-776.4133 178.5001,-776.4132"/>
</g>
</g>
</svg>
