<?xml version="1.0" encoding="UTF-8" standalone="no"?>
<!DOCTYPE svg PUBLIC "-//W3C//DTD SVG 1.1//EN"
 "http://www.w3.org/Graphics/SVG/1.1/DTD/svg11.dtd">
<!-- Generated by graphviz version 2.43.0 (0)
 -->
<!-- Title: snakemake_dag Pages: 1 -->
<svg width="782pt" height="1144pt"
 viewBox="0.00 0.00 782.00 1144.00" xmlns="http://www.w3.org/2000/svg" xmlns:xlink="http://www.w3.org/1999/xlink">
<g id="graph0" class="graph" transform="scale(1 1) rotate(0) translate(4 1140)">
<title>snakemake_dag</title>
<polygon fill="white" stroke="transparent" points="-4,4 -4,-1140 778,-1140 778,4 -4,4"/>
<!-- 1 -->
<g id="node1" class="node">
<title>1</title>
<path fill="none" stroke="#d8d356" stroke-width="2" d="M418.5,-185C418.5,-185 375.5,-185 375.5,-185 369.5,-185 363.5,-179 363.5,-173 363.5,-173 363.5,-156 363.5,-156 363.5,-150 369.5,-144 375.5,-144 375.5,-144 418.5,-144 418.5,-144 424.5,-144 430.5,-150 430.5,-156 430.5,-156 430.5,-173 430.5,-173 430.5,-179 424.5,-185 418.5,-185"/>
<text text-anchor="middle" x="397" y="-173" font-family="sans" font-size="10.00">index_vcf</text>
<text text-anchor="middle" x="397" y="-162" font-family="sans" font-size="10.00">file: calls</text>
<text text-anchor="middle" x="397" y="-151" font-family="sans" font-size="10.00">folder: out</text>
</g>
<!-- 18 -->
<g id="node18" class="node">
<title>18</title>
<path fill="none" stroke="#88d856" stroke-width="2" d="M211,-108C211,-108 135,-108 135,-108 129,-108 123,-102 123,-96 123,-96 123,-84 123,-84 123,-78 129,-72 135,-72 135,-72 211,-72 211,-72 217,-72 223,-78 223,-84 223,-84 223,-96 223,-96 223,-102 217,-108 211,-108"/>
<text text-anchor="middle" x="173" y="-93" font-family="sans" font-size="10.00">vcf_stats</text>
<text text-anchor="middle" x="173" y="-82" font-family="sans" font-size="10.00">ext: ldepth.mean</text>
</g>
<!-- 1&#45;&gt;18 -->
<g id="edge17" class="edge">
<title>1&#45;&gt;18</title>
<path fill="none" stroke="grey" stroke-width="2" d="M363.46,-152.65C329.04,-141.51 274.75,-123.93 232.92,-110.4"/>
<polygon fill="grey" stroke="grey" stroke-width="2" points="233.98,-107.06 223.39,-107.31 231.83,-113.72 233.98,-107.06"/>
</g>
<!-- 19 -->
<g id="node19" class="node">
<title>19</title>
<path fill="none" stroke="#88d856" stroke-width="2" d="M290.5,-108C290.5,-108 253.5,-108 253.5,-108 247.5,-108 241.5,-102 241.5,-96 241.5,-96 241.5,-84 241.5,-84 241.5,-78 247.5,-72 253.5,-72 253.5,-72 290.5,-72 290.5,-72 296.5,-72 302.5,-78 302.5,-84 302.5,-84 302.5,-96 302.5,-96 302.5,-102 296.5,-108 290.5,-108"/>
<text text-anchor="middle" x="272" y="-93" font-family="sans" font-size="10.00">vcf_stats</text>
<text text-anchor="middle" x="272" y="-82" font-family="sans" font-size="10.00">ext: frq</text>
</g>
<!-- 1&#45;&gt;19 -->
<g id="edge18" class="edge">
<title>1&#45;&gt;19</title>
<path fill="none" stroke="grey" stroke-width="2" d="M363.17,-143.88C346.95,-134.47 327.43,-123.15 310.62,-113.4"/>
<polygon fill="grey" stroke="grey" stroke-width="2" points="312,-110.16 301.6,-108.17 308.49,-116.21 312,-110.16"/>
</g>
<!-- 20 -->
<g id="node20" class="node">
<title>20</title>
<path fill="none" stroke="#88d856" stroke-width="2" d="M377.5,-108C377.5,-108 332.5,-108 332.5,-108 326.5,-108 320.5,-102 320.5,-96 320.5,-96 320.5,-84 320.5,-84 320.5,-78 326.5,-72 332.5,-72 332.5,-72 377.5,-72 377.5,-72 383.5,-72 389.5,-78 389.5,-84 389.5,-84 389.5,-96 389.5,-96 389.5,-102 383.5,-108 377.5,-108"/>
<text text-anchor="middle" x="355" y="-93" font-family="sans" font-size="10.00">vcf_stats</text>
<text text-anchor="middle" x="355" y="-82" font-family="sans" font-size="10.00">ext: idepth</text>
</g>
<!-- 1&#45;&gt;20 -->
<g id="edge19" class="edge">
<title>1&#45;&gt;20</title>
<path fill="none" stroke="grey" stroke-width="2" d="M385.52,-143.69C380.76,-135.47 375.18,-125.83 370.09,-117.05"/>
<polygon fill="grey" stroke="grey" stroke-width="2" points="373.07,-115.22 365.03,-108.32 367.02,-118.73 373.07,-115.22"/>
</g>
<!-- 21 -->
<g id="node21" class="node">
<title>21</title>
<path fill="none" stroke="#88d856" stroke-width="2" d="M458,-108C458,-108 420,-108 420,-108 414,-108 408,-102 408,-96 408,-96 408,-84 408,-84 408,-78 414,-72 420,-72 420,-72 458,-72 458,-72 464,-72 470,-78 470,-84 470,-84 470,-96 470,-96 470,-102 464,-108 458,-108"/>
<text text-anchor="middle" x="439" y="-93" font-family="sans" font-size="10.00">vcf_stats</text>
<text text-anchor="middle" x="439" y="-82" font-family="sans" font-size="10.00">ext: lqual</text>
</g>
<!-- 1&#45;&gt;21 -->
<g id="edge20" class="edge">
<title>1&#45;&gt;21</title>
<path fill="none" stroke="grey" stroke-width="2" d="M408.48,-143.69C413.24,-135.47 418.82,-125.83 423.91,-117.05"/>
<polygon fill="grey" stroke="grey" stroke-width="2" points="426.98,-118.73 428.97,-108.32 420.93,-115.22 426.98,-118.73"/>
</g>
<!-- 22 -->
<g id="node22" class="node">
<title>22</title>
<path fill="none" stroke="#88d856" stroke-width="2" d="M541.5,-108C541.5,-108 500.5,-108 500.5,-108 494.5,-108 488.5,-102 488.5,-96 488.5,-96 488.5,-84 488.5,-84 488.5,-78 494.5,-72 500.5,-72 500.5,-72 541.5,-72 541.5,-72 547.5,-72 553.5,-78 553.5,-84 553.5,-84 553.5,-96 553.5,-96 553.5,-102 547.5,-108 541.5,-108"/>
<text text-anchor="middle" x="521" y="-93" font-family="sans" font-size="10.00">vcf_stats</text>
<text text-anchor="middle" x="521" y="-82" font-family="sans" font-size="10.00">ext: imiss</text>
</g>
<!-- 1&#45;&gt;22 -->
<g id="edge21" class="edge">
<title>1&#45;&gt;22</title>
<path fill="none" stroke="grey" stroke-width="2" d="M430.56,-143.88C446.65,-134.47 466.02,-123.15 482.69,-113.4"/>
<polygon fill="grey" stroke="grey" stroke-width="2" points="484.77,-116.24 491.64,-108.17 481.24,-110.19 484.77,-116.24"/>
</g>
<!-- 23 -->
<g id="node23" class="node">
<title>23</title>
<path fill="none" stroke="#88d856" stroke-width="2" d="M624.5,-108C624.5,-108 583.5,-108 583.5,-108 577.5,-108 571.5,-102 571.5,-96 571.5,-96 571.5,-84 571.5,-84 571.5,-78 577.5,-72 583.5,-72 583.5,-72 624.5,-72 624.5,-72 630.5,-72 636.5,-78 636.5,-84 636.5,-84 636.5,-96 636.5,-96 636.5,-102 630.5,-108 624.5,-108"/>
<text text-anchor="middle" x="604" y="-93" font-family="sans" font-size="10.00">vcf_stats</text>
<text text-anchor="middle" x="604" y="-82" font-family="sans" font-size="10.00">ext: lmiss</text>
</g>
<!-- 1&#45;&gt;23 -->
<g id="edge22" class="edge">
<title>1&#45;&gt;23</title>
<path fill="none" stroke="grey" stroke-width="2" d="M430.71,-152.82C462.24,-142.68 510.82,-126.7 561.56,-108.06"/>
<polygon fill="grey" stroke="grey" stroke-width="2" points="562.89,-111.3 571.06,-104.55 560.46,-104.74 562.89,-111.3"/>
</g>
<!-- 2 -->
<g id="node2" class="node">
<title>2</title>
<path fill="none" stroke="#56d8c9" stroke-width="2" d="M679.5,-557.5C679.5,-557.5 628.5,-557.5 628.5,-557.5 622.5,-557.5 616.5,-551.5 616.5,-545.5 616.5,-545.5 616.5,-533.5 616.5,-533.5 616.5,-527.5 622.5,-521.5 628.5,-521.5 628.5,-521.5 679.5,-521.5 679.5,-521.5 685.5,-521.5 691.5,-527.5 691.5,-533.5 691.5,-533.5 691.5,-545.5 691.5,-545.5 691.5,-551.5 685.5,-557.5 679.5,-557.5"/>
<text text-anchor="middle" x="654" y="-537" font-family="sans" font-size="10.00">merge_bam</text>
</g>
<!-- 3 -->
<g id="node3" class="node">
<title>3</title>
<path fill="none" stroke="#d85656" stroke-width="2" d="M682,-483C682,-483 620,-483 620,-483 614,-483 608,-477 608,-471 608,-471 608,-454 608,-454 608,-448 614,-442 620,-442 620,-442 682,-442 682,-442 688,-442 694,-448 694,-454 694,-454 694,-471 694,-471 694,-477 688,-483 682,-483"/>
<text text-anchor="middle" x="651" y="-471" font-family="sans" font-size="10.00">index_bamfile</text>
<text text-anchor="middle" x="651" y="-460" font-family="sans" font-size="10.00">file: merged</text>
<text text-anchor="middle" x="651" y="-449" font-family="sans" font-size="10.00">folder: out</text>
</g>
<!-- 2&#45;&gt;3 -->
<g id="edge3" class="edge">
<title>2&#45;&gt;3</title>
<path fill="none" stroke="grey" stroke-width="2" d="M653.32,-521.48C652.98,-513.1 652.57,-502.76 652.19,-493.13"/>
<polygon fill="grey" stroke="grey" stroke-width="2" points="655.68,-492.95 651.78,-483.1 648.69,-493.23 655.68,-492.95"/>
</g>
<!-- 4 -->
<g id="node4" class="node">
<title>4</title>
<path fill="none" stroke="#61d856" stroke-width="2" d="M118,-36C118,-36 12,-36 12,-36 6,-36 0,-30 0,-24 0,-24 0,-12 0,-12 0,-6 6,0 12,0 12,0 118,0 118,0 124,0 130,-6 130,-12 130,-12 130,-24 130,-24 130,-30 124,-36 118,-36"/>
<text text-anchor="middle" x="65" y="-15.5" font-family="sans" font-size="10.00">calculate_ldepth_cutoff</text>
</g>
<!-- 5 -->
<g id="node5" class="node">
<title>5</title>
<path fill="none" stroke="#d89556" stroke-width="2" d="M292.5,-36C292.5,-36 251.5,-36 251.5,-36 245.5,-36 239.5,-30 239.5,-24 239.5,-24 239.5,-12 239.5,-12 239.5,-6 245.5,0 251.5,0 251.5,0 292.5,0 292.5,0 298.5,0 304.5,-6 304.5,-12 304.5,-12 304.5,-24 304.5,-24 304.5,-30 298.5,-36 292.5,-36"/>
<text text-anchor="middle" x="272" y="-15.5" font-family="sans" font-size="10.00">plot_stats</text>
</g>
<!-- 6 -->
<g id="node6" class="node">
<title>6</title>
<path fill="none" stroke="#d89556" stroke-width="2" d="M375.5,-36C375.5,-36 334.5,-36 334.5,-36 328.5,-36 322.5,-30 322.5,-24 322.5,-24 322.5,-12 322.5,-12 322.5,-6 328.5,0 334.5,0 334.5,0 375.5,0 375.5,0 381.5,0 387.5,-6 387.5,-12 387.5,-12 387.5,-24 387.5,-24 387.5,-30 381.5,-36 375.5,-36"/>
<text text-anchor="middle" x="355" y="-15.5" font-family="sans" font-size="10.00">plot_stats</text>
</g>
<!-- 7 -->
<g id="node7" class="node">
<title>7</title>
<path fill="none" stroke="#d89556" stroke-width="2" d="M201.5,-36C201.5,-36 160.5,-36 160.5,-36 154.5,-36 148.5,-30 148.5,-24 148.5,-24 148.5,-12 148.5,-12 148.5,-6 154.5,0 160.5,0 160.5,0 201.5,0 201.5,0 207.5,0 213.5,-6 213.5,-12 213.5,-12 213.5,-24 213.5,-24 213.5,-30 207.5,-36 201.5,-36"/>
<text text-anchor="middle" x="181" y="-15.5" font-family="sans" font-size="10.00">plot_stats</text>
</g>
<!-- 8 -->
<g id="node8" class="node">
<title>8</title>
<path fill="none" stroke="#d89556" stroke-width="2" d="M458.5,-36C458.5,-36 417.5,-36 417.5,-36 411.5,-36 405.5,-30 405.5,-24 405.5,-24 405.5,-12 405.5,-12 405.5,-6 411.5,0 417.5,0 417.5,0 458.5,0 458.5,0 464.5,0 470.5,-6 470.5,-12 470.5,-12 470.5,-24 470.5,-24 470.5,-30 464.5,-36 458.5,-36"/>
<text text-anchor="middle" x="438" y="-15.5" font-family="sans" font-size="10.00">plot_stats</text>
</g>
<!-- 9 -->
<g id="node9" class="node">
<title>9</title>
<path fill="none" stroke="#d89556" stroke-width="2" d="M541.5,-36C541.5,-36 500.5,-36 500.5,-36 494.5,-36 488.5,-30 488.5,-24 488.5,-24 488.5,-12 488.5,-12 488.5,-6 494.5,0 500.5,0 500.5,0 541.5,0 541.5,0 547.5,0 553.5,-6 553.5,-12 553.5,-12 553.5,-24 553.5,-24 553.5,-30 547.5,-36 541.5,-36"/>
<text text-anchor="middle" x="521" y="-15.5" font-family="sans" font-size="10.00">plot_stats</text>
</g>
<!-- 10 -->
<g id="node10" class="node">
<title>10</title>
<path fill="none" stroke="#d89556" stroke-width="2" d="M624.5,-36C624.5,-36 583.5,-36 583.5,-36 577.5,-36 571.5,-30 571.5,-24 571.5,-24 571.5,-12 571.5,-12 571.5,-6 577.5,0 583.5,0 583.5,0 624.5,0 624.5,0 630.5,0 636.5,-6 636.5,-12 636.5,-12 636.5,-24 636.5,-24 636.5,-30 630.5,-36 624.5,-36"/>
<text text-anchor="middle" x="604" y="-15.5" font-family="sans" font-size="10.00">plot_stats</text>
</g>
<!-- 11 -->
<g id="node11" class="node">
<title>11</title>
<path fill="none" stroke="#5682d8" stroke-width="2" d="M414.5,-557.5C414.5,-557.5 379.5,-557.5 379.5,-557.5 373.5,-557.5 367.5,-551.5 367.5,-545.5 367.5,-545.5 367.5,-533.5 367.5,-533.5 367.5,-527.5 373.5,-521.5 379.5,-521.5 379.5,-521.5 414.5,-521.5 414.5,-521.5 420.5,-521.5 426.5,-527.5 426.5,-533.5 426.5,-533.5 426.5,-545.5 426.5,-545.5 426.5,-551.5 420.5,-557.5 414.5,-557.5"/>
<text text-anchor="middle" x="397" y="-537" font-family="sans" font-size="10.00">fa_index</text>
</g>
<!-- 24 -->
<g id="node24" class="node">
<title>24</title>
<path fill="none" stroke="#56d8b1" stroke-width="2" d="M533.5,-480.5C533.5,-480.5 470.5,-480.5 470.5,-480.5 464.5,-480.5 458.5,-474.5 458.5,-468.5 458.5,-468.5 458.5,-456.5 458.5,-456.5 458.5,-450.5 464.5,-444.5 470.5,-444.5 470.5,-444.5 533.5,-444.5 533.5,-444.5 539.5,-444.5 545.5,-450.5 545.5,-456.5 545.5,-456.5 545.5,-468.5 545.5,-468.5 545.5,-474.5 539.5,-480.5 533.5,-480.5"/>
<text text-anchor="middle" x="502" y="-460" font-family="sans" font-size="10.00">freebayes_csd</text>
</g>
<!-- 11&#45;&gt;24 -->
<g id="edge25" class="edge">
<title>11&#45;&gt;24</title>
<path fill="none" stroke="grey" stroke-width="2" d="M420.83,-521.48C435.22,-511.2 453.77,-497.95 469.5,-486.71"/>
<polygon fill="grey" stroke="grey" stroke-width="2" points="471.8,-489.37 477.9,-480.71 467.73,-483.68 471.8,-489.37"/>
</g>
<!-- 29 -->
<g id="node29" class="node">
<title>29</title>
<path fill="none" stroke="#c6d856" stroke-width="2" d="M424.5,-480.5C424.5,-480.5 369.5,-480.5 369.5,-480.5 363.5,-480.5 357.5,-474.5 357.5,-468.5 357.5,-468.5 357.5,-456.5 357.5,-456.5 357.5,-450.5 363.5,-444.5 369.5,-444.5 369.5,-444.5 424.5,-444.5 424.5,-444.5 430.5,-444.5 436.5,-450.5 436.5,-456.5 436.5,-456.5 436.5,-468.5 436.5,-468.5 436.5,-474.5 430.5,-480.5 424.5,-480.5"/>
<text text-anchor="middle" x="397" y="-460" font-family="sans" font-size="10.00">combine_vcf</text>
</g>
<!-- 11&#45;&gt;29 -->
<g id="edge30" class="edge">
<title>11&#45;&gt;29</title>
<path fill="none" stroke="grey" stroke-width="2" d="M397,-521.48C397,-512.44 397,-501.1 397,-490.85"/>
<polygon fill="grey" stroke="grey" stroke-width="2" points="400.5,-490.71 397,-480.71 393.5,-490.71 400.5,-490.71"/>
</g>
<!-- 12 -->
<g id="node12" class="node">
<title>12</title>
<path fill="none" stroke="#d85656" stroke-width="2" d="M547.5,-560C547.5,-560 456.5,-560 456.5,-560 450.5,-560 444.5,-554 444.5,-548 444.5,-548 444.5,-531 444.5,-531 444.5,-525 450.5,-519 456.5,-519 456.5,-519 547.5,-519 547.5,-519 553.5,-519 559.5,-525 559.5,-531 559.5,-531 559.5,-548 559.5,-548 559.5,-554 553.5,-560 547.5,-560"/>
<text text-anchor="middle" x="502" y="-548" font-family="sans" font-size="10.00">index_bamfile</text>
<text text-anchor="middle" x="502" y="-537" font-family="sans" font-size="10.00">file: my_sample</text>
<text text-anchor="middle" x="502" y="-526" font-family="sans" font-size="10.00">folder: out/020_map</text>
</g>
<!-- 12&#45;&gt;24 -->
<g id="edge24" class="edge">
<title>12&#45;&gt;24</title>
<path fill="none" stroke="grey" stroke-width="2" d="M502,-518.79C502,-510.31 502,-500.24 502,-491.04"/>
<polygon fill="grey" stroke="grey" stroke-width="2" points="505.5,-490.78 502,-480.78 498.5,-490.78 505.5,-490.78"/>
</g>
<!-- 13 -->
<g id="node13" class="node">
<title>13</title>
<path fill="none" stroke="#56d8a2" stroke-width="2" d="M756,-557.5C756,-557.5 726,-557.5 726,-557.5 720,-557.5 714,-551.5 714,-545.5 714,-545.5 714,-533.5 714,-533.5 714,-527.5 720,-521.5 726,-521.5 726,-521.5 756,-521.5 756,-521.5 762,-521.5 768,-527.5 768,-533.5 768,-533.5 768,-545.5 768,-545.5 768,-551.5 762,-557.5 756,-557.5"/>
<text text-anchor="middle" x="741" y="-537" font-family="sans" font-size="10.00">ihist</text>
</g>
<!-- 14 -->
<g id="node14" class="node">
<title>14</title>
<path fill="none" stroke="#56d88a" stroke-width="2" d="M762,-480.5C762,-480.5 724,-480.5 724,-480.5 718,-480.5 712,-474.5 712,-468.5 712,-468.5 712,-456.5 712,-456.5 712,-450.5 718,-444.5 724,-444.5 724,-444.5 762,-444.5 762,-444.5 768,-444.5 774,-450.5 774,-456.5 774,-456.5 774,-468.5 774,-468.5 774,-474.5 768,-480.5 762,-480.5"/>
<text text-anchor="middle" x="743" y="-460" font-family="sans" font-size="10.00">plot_ihist</text>
</g>
<!-- 13&#45;&gt;14 -->
<g id="edge13" class="edge">
<title>13&#45;&gt;14</title>
<path fill="none" stroke="grey" stroke-width="2" d="M741.45,-521.48C741.7,-512.44 742,-501.1 742.27,-490.85"/>
<polygon fill="grey" stroke="grey" stroke-width="2" points="745.77,-490.8 742.54,-480.71 738.78,-490.61 745.77,-490.8"/>
</g>
<!-- 15 -->
<g id="node15" class="node">
<title>15</title>
<path fill="none" stroke="#d8d356" stroke-width="2" d="M523.5,-406C523.5,-406 480.5,-406 480.5,-406 474.5,-406 468.5,-400 468.5,-394 468.5,-394 468.5,-377 468.5,-377 468.5,-371 474.5,-365 480.5,-365 480.5,-365 523.5,-365 523.5,-365 529.5,-365 535.5,-371 535.5,-377 535.5,-377 535.5,-394 535.5,-394 535.5,-400 529.5,-406 523.5,-406"/>
<text text-anchor="middle" x="502" y="-394" font-family="sans" font-size="10.00">index_vcf</text>
<text text-anchor="middle" x="502" y="-383" font-family="sans" font-size="10.00">file: csd</text>
<text text-anchor="middle" x="502" y="-372" font-family="sans" font-size="10.00">folder: out</text>
</g>
<!-- 16 -->
<g id="node16" class="node">
<title>16</title>
<path fill="none" stroke="#d87d56" stroke-width="2" d="M412,-257C412,-257 382,-257 382,-257 376,-257 370,-251 370,-245 370,-245 370,-233 370,-233 370,-227 376,-221 382,-221 382,-221 412,-221 412,-221 418,-221 424,-227 424,-233 424,-233 424,-245 424,-245 424,-251 418,-257 412,-257"/>
<text text-anchor="middle" x="397" y="-236.5" font-family="sans" font-size="10.00">vcfuniq</text>
</g>
<!-- 16&#45;&gt;1 -->
<g id="edge1" class="edge">
<title>16&#45;&gt;1</title>
<path fill="none" stroke="grey" stroke-width="2" d="M397,-220.82C397,-213.2 397,-204 397,-195.32"/>
<polygon fill="grey" stroke="grey" stroke-width="2" points="400.5,-195.12 397,-185.12 393.5,-195.12 400.5,-195.12"/>
</g>
<!-- 17 -->
<g id="node17" class="node">
<title>17</title>
<path fill="none" stroke="#56c1d8" stroke-width="2" d="M639,-632C639,-632 603,-632 603,-632 597,-632 591,-626 591,-620 591,-620 591,-608 591,-608 591,-602 597,-596 603,-596 603,-596 639,-596 639,-596 645,-596 651,-602 651,-608 651,-608 651,-620 651,-620 651,-626 645,-632 639,-632"/>
<text text-anchor="middle" x="621" y="-611.5" font-family="sans" font-size="10.00">markdup</text>
</g>
<!-- 17&#45;&gt;2 -->
<g id="edge2" class="edge">
<title>17&#45;&gt;2</title>
<path fill="none" stroke="grey" stroke-width="2" d="M628.82,-595.82C632.77,-587.15 637.64,-576.45 642.04,-566.78"/>
<polygon fill="grey" stroke="grey" stroke-width="2" points="645.28,-568.11 646.24,-557.56 638.91,-565.21 645.28,-568.11"/>
</g>
<!-- 17&#45;&gt;12 -->
<g id="edge11" class="edge">
<title>17&#45;&gt;12</title>
<path fill="none" stroke="grey" stroke-width="2" d="M592.8,-595.82C577.95,-586.77 559.47,-575.52 543.07,-565.52"/>
<polygon fill="grey" stroke="grey" stroke-width="2" points="544.56,-562.33 534.2,-560.12 540.92,-568.31 544.56,-562.33"/>
</g>
<!-- 17&#45;&gt;13 -->
<g id="edge12" class="edge">
<title>17&#45;&gt;13</title>
<path fill="none" stroke="grey" stroke-width="2" d="M649.44,-595.82C665.96,-585.83 686.96,-573.15 704.67,-562.45"/>
<polygon fill="grey" stroke="grey" stroke-width="2" points="706.84,-565.23 713.59,-557.06 703.22,-559.23 706.84,-565.23"/>
</g>
<!-- 17&#45;&gt;24 -->
<g id="edge23" class="edge">
<title>17&#45;&gt;24</title>
<path fill="none" stroke="grey" stroke-width="2" d="M613.64,-595.9C604.64,-576.14 588.1,-543.22 568,-519 558.31,-507.32 545.94,-496.18 534.54,-486.99"/>
<polygon fill="grey" stroke="grey" stroke-width="2" points="536.49,-484.08 526.46,-480.67 532.17,-489.59 536.49,-484.08"/>
</g>
<!-- 18&#45;&gt;4 -->
<g id="edge4" class="edge">
<title>18&#45;&gt;4</title>
<path fill="none" stroke="grey" stroke-width="2" d="M146.58,-71.88C132.59,-62.81 115.22,-51.55 100.11,-41.76"/>
<polygon fill="grey" stroke="grey" stroke-width="2" points="101.82,-38.69 91.52,-36.19 98.01,-44.57 101.82,-38.69"/>
</g>
<!-- 18&#45;&gt;7 -->
<g id="edge7" class="edge">
<title>18&#45;&gt;7</title>
<path fill="none" stroke="grey" stroke-width="2" d="M174.98,-71.7C175.86,-63.98 176.92,-54.71 177.9,-46.11"/>
<polygon fill="grey" stroke="grey" stroke-width="2" points="181.39,-46.44 179.05,-36.1 174.43,-45.64 181.39,-46.44"/>
</g>
<!-- 19&#45;&gt;5 -->
<g id="edge5" class="edge">
<title>19&#45;&gt;5</title>
<path fill="none" stroke="grey" stroke-width="2" d="M272,-71.7C272,-63.98 272,-54.71 272,-46.11"/>
<polygon fill="grey" stroke="grey" stroke-width="2" points="275.5,-46.1 272,-36.1 268.5,-46.1 275.5,-46.1"/>
</g>
<!-- 20&#45;&gt;6 -->
<g id="edge6" class="edge">
<title>20&#45;&gt;6</title>
<path fill="none" stroke="grey" stroke-width="2" d="M355,-71.7C355,-63.98 355,-54.71 355,-46.11"/>
<polygon fill="grey" stroke="grey" stroke-width="2" points="358.5,-46.1 355,-36.1 351.5,-46.1 358.5,-46.1"/>
</g>
<!-- 21&#45;&gt;8 -->
<g id="edge8" class="edge">
<title>21&#45;&gt;8</title>
<path fill="none" stroke="grey" stroke-width="2" d="M438.75,-71.7C438.64,-63.98 438.51,-54.71 438.39,-46.11"/>
<polygon fill="grey" stroke="grey" stroke-width="2" points="441.89,-46.05 438.24,-36.1 434.89,-46.15 441.89,-46.05"/>
</g>
<!-- 22&#45;&gt;9 -->
<g id="edge9" class="edge">
<title>22&#45;&gt;9</title>
<path fill="none" stroke="grey" stroke-width="2" d="M521,-71.7C521,-63.98 521,-54.71 521,-46.11"/>
<polygon fill="grey" stroke="grey" stroke-width="2" points="524.5,-46.1 521,-36.1 517.5,-46.1 524.5,-46.1"/>
</g>
<!-- 23&#45;&gt;10 -->
<g id="edge10" class="edge">
<title>23&#45;&gt;10</title>
<path fill="none" stroke="grey" stroke-width="2" d="M604,-71.7C604,-63.98 604,-54.71 604,-46.11"/>
<polygon fill="grey" stroke="grey" stroke-width="2" points="607.5,-46.1 604,-36.1 600.5,-46.1 607.5,-46.1"/>
</g>
<!-- 24&#45;&gt;15 -->
<g id="edge14" class="edge">
<title>24&#45;&gt;15</title>
<path fill="none" stroke="grey" stroke-width="2" d="M502,-444.48C502,-436.1 502,-425.76 502,-416.13"/>
<polygon fill="grey" stroke="grey" stroke-width="2" points="505.5,-416.1 502,-406.1 498.5,-416.1 505.5,-416.1"/>
</g>
<!-- 25 -->
<g id="node25" class="node">
<title>25</title>
<path fill="none" stroke="#56d873" stroke-width="2" d="M427.5,-329C427.5,-329 366.5,-329 366.5,-329 360.5,-329 354.5,-323 354.5,-317 354.5,-317 354.5,-305 354.5,-305 354.5,-299 360.5,-293 366.5,-293 366.5,-293 427.5,-293 427.5,-293 433.5,-293 439.5,-299 439.5,-305 439.5,-305 439.5,-317 439.5,-317 439.5,-323 433.5,-329 427.5,-329"/>
<text text-anchor="middle" x="397" y="-308.5" font-family="sans" font-size="10.00">vcfstreamsort</text>
</g>
<!-- 25&#45;&gt;16 -->
<g id="edge15" class="edge">
<title>25&#45;&gt;16</title>
<path fill="none" stroke="grey" stroke-width="2" d="M397,-292.7C397,-284.98 397,-275.71 397,-267.11"/>
<polygon fill="grey" stroke="grey" stroke-width="2" points="400.5,-267.1 397,-257.1 393.5,-267.1 400.5,-267.1"/>
</g>
<!-- 26 -->
<g id="node26" class="node">
<title>26</title>
<path fill="none" stroke="#56d863" stroke-width="2" d="M636,-704C636,-704 606,-704 606,-704 600,-704 594,-698 594,-692 594,-692 594,-680 594,-680 594,-674 600,-668 606,-668 606,-668 636,-668 636,-668 642,-668 648,-674 648,-680 648,-680 648,-692 648,-692 648,-698 642,-704 636,-704"/>
<text text-anchor="middle" x="621" y="-683.5" font-family="sans" font-size="10.00">sort</text>
</g>
<!-- 26&#45;&gt;17 -->
<g id="edge16" class="edge">
<title>26&#45;&gt;17</title>
<path fill="none" stroke="grey" stroke-width="2" d="M621,-667.7C621,-659.98 621,-650.71 621,-642.11"/>
<polygon fill="grey" stroke="grey" stroke-width="2" points="624.5,-642.1 621,-632.1 617.5,-642.1 624.5,-642.1"/>
</g>
<!-- 27 -->
<g id="node27" class="node">
<title>27</title>
<path fill="none" stroke="#56a9d8" stroke-width="2" d="M427,-403.5C427,-403.5 367,-403.5 367,-403.5 361,-403.5 355,-397.5 355,-391.5 355,-391.5 355,-379.5 355,-379.5 355,-373.5 361,-367.5 367,-367.5 367,-367.5 427,-367.5 427,-367.5 433,-367.5 439,-373.5 439,-379.5 439,-379.5 439,-391.5 439,-391.5 439,-397.5 433,-403.5 427,-403.5"/>
<text text-anchor="middle" x="397" y="-383" font-family="sans" font-size="10.00">vcffirstheader</text>
</g>
<!-- 27&#45;&gt;25 -->
<g id="edge26" class="edge">
<title>27&#45;&gt;25</title>
<path fill="none" stroke="grey" stroke-width="2" d="M397,-367.32C397,-358.92 397,-348.62 397,-339.19"/>
<polygon fill="grey" stroke="grey" stroke-width="2" points="400.5,-339.06 397,-329.06 393.5,-339.06 400.5,-339.06"/>
</g>
<!-- 28 -->
<g id="node28" class="node">
<title>28</title>
<path fill="none" stroke="#566bd8" stroke-width="2" d="M636,-776C636,-776 606,-776 606,-776 600,-776 594,-770 594,-764 594,-764 594,-752 594,-752 594,-746 600,-740 606,-740 606,-740 636,-740 636,-740 642,-740 648,-746 648,-752 648,-752 648,-764 648,-764 648,-770 642,-776 636,-776"/>
<text text-anchor="middle" x="621" y="-755.5" font-family="sans" font-size="10.00">fixmate</text>
</g>
<!-- 28&#45;&gt;26 -->
<g id="edge27" class="edge">
<title>28&#45;&gt;26</title>
<path fill="none" stroke="grey" stroke-width="2" d="M621,-739.7C621,-731.98 621,-722.71 621,-714.11"/>
<polygon fill="grey" stroke="grey" stroke-width="2" points="624.5,-714.1 621,-704.1 617.5,-714.1 624.5,-714.1"/>
</g>
<!-- 29&#45;&gt;27 -->
<g id="edge28" class="edge">
<title>29&#45;&gt;27</title>
<path fill="none" stroke="grey" stroke-width="2" d="M397,-444.48C397,-435.44 397,-424.1 397,-413.85"/>
<polygon fill="grey" stroke="grey" stroke-width="2" points="400.5,-413.71 397,-403.71 393.5,-413.71 400.5,-413.71"/>
</g>
<!-- 30 -->
<g id="node30" class="node">
<title>30</title>
<path fill="none" stroke="#d86e56" stroke-width="2" d="M641,-848C641,-848 601,-848 601,-848 595,-848 589,-842 589,-836 589,-836 589,-824 589,-824 589,-818 595,-812 601,-812 601,-812 641,-812 641,-812 647,-812 653,-818 653,-824 653,-824 653,-836 653,-836 653,-842 647,-848 641,-848"/>
<text text-anchor="middle" x="621" y="-827.5" font-family="sans" font-size="10.00">bwa_map</text>
</g>
<!-- 30&#45;&gt;28 -->
<g id="edge29" class="edge">
<title>30&#45;&gt;28</title>
<path fill="none" stroke="grey" stroke-width="2" d="M621,-811.7C621,-803.98 621,-794.71 621,-786.11"/>
<polygon fill="grey" stroke="grey" stroke-width="2" points="624.5,-786.1 621,-776.1 617.5,-786.1 624.5,-786.1"/>
</g>
<!-- 31 -->
<g id="node31" class="node">
<title>31</title>
<path fill="none" stroke="#78d856" stroke-width="2" d="M596,-920C596,-920 566,-920 566,-920 560,-920 554,-914 554,-908 554,-908 554,-896 554,-896 554,-890 560,-884 566,-884 566,-884 596,-884 596,-884 602,-884 608,-890 608,-896 608,-896 608,-908 608,-908 608,-914 602,-920 596,-920"/>
<text text-anchor="middle" x="581" y="-899.5" font-family="sans" font-size="10.00">trim</text>
</g>
<!-- 31&#45;&gt;30 -->
<g id="edge31" class="edge">
<title>31&#45;&gt;30</title>
<path fill="none" stroke="grey" stroke-width="2" d="M590.89,-883.7C595.49,-875.64 601.06,-865.89 606.15,-856.98"/>
<polygon fill="grey" stroke="grey" stroke-width="2" points="609.3,-858.52 611.23,-848.1 603.23,-855.05 609.3,-858.52"/>
</g>
<!-- 32 -->
<g id="node32" class="node">
<title>32</title>
<path fill="none" stroke="#b6d856" stroke-width="2" d="M683.5,-920C683.5,-920 638.5,-920 638.5,-920 632.5,-920 626.5,-914 626.5,-908 626.5,-908 626.5,-896 626.5,-896 626.5,-890 632.5,-884 638.5,-884 638.5,-884 683.5,-884 683.5,-884 689.5,-884 695.5,-890 695.5,-896 695.5,-896 695.5,-908 695.5,-908 695.5,-914 689.5,-920 683.5,-920"/>
<text text-anchor="middle" x="661" y="-899.5" font-family="sans" font-size="10.00">bwa_index</text>
</g>
<!-- 32&#45;&gt;30 -->
<g id="edge32" class="edge">
<title>32&#45;&gt;30</title>
<path fill="none" stroke="grey" stroke-width="2" d="M651.11,-883.7C646.51,-875.64 640.94,-865.89 635.85,-856.98"/>
<polygon fill="grey" stroke="grey" stroke-width="2" points="638.77,-855.05 630.77,-848.1 632.7,-858.52 638.77,-855.05"/>
</g>
<!-- 33 -->
<g id="node33" class="node">
<title>33</title>
<path fill="none" stroke="#d8ac56" stroke-width="2" d="M596,-992C596,-992 566,-992 566,-992 560,-992 554,-986 554,-980 554,-980 554,-968 554,-968 554,-962 560,-956 566,-956 566,-956 596,-956 596,-956 602,-956 608,-962 608,-968 608,-968 608,-980 608,-980 608,-986 602,-992 596,-992"/>
<text text-anchor="middle" x="581" y="-971.5" font-family="sans" font-size="10.00">filter</text>
</g>
<!-- 33&#45;&gt;31 -->
<g id="edge33" class="edge">
<title>33&#45;&gt;31</title>
<path fill="none" stroke="grey" stroke-width="2" d="M581,-955.7C581,-947.98 581,-938.71 581,-930.11"/>
<polygon fill="grey" stroke="grey" stroke-width="2" points="584.5,-930.1 581,-920.1 577.5,-930.1 584.5,-930.1"/>
</g>
<!-- 34 -->
<g id="node34" class="node">
<title>34</title>
<path fill="none" stroke="#9fd856" stroke-width="2" d="M616.5,-1064C616.5,-1064 545.5,-1064 545.5,-1064 539.5,-1064 533.5,-1058 533.5,-1052 533.5,-1052 533.5,-1040 533.5,-1040 533.5,-1034 539.5,-1028 545.5,-1028 545.5,-1028 616.5,-1028 616.5,-1028 622.5,-1028 628.5,-1034 628.5,-1040 628.5,-1040 628.5,-1052 628.5,-1052 628.5,-1058 622.5,-1064 616.5,-1064"/>
<text text-anchor="middle" x="581" y="-1043.5" font-family="sans" font-size="10.00">check_barcodes</text>
</g>
<!-- 34&#45;&gt;33 -->
<g id="edge34" class="edge">
<title>34&#45;&gt;33</title>
<path fill="none" stroke="grey" stroke-width="2" d="M581,-1027.7C581,-1019.98 581,-1010.71 581,-1002.11"/>
<polygon fill="grey" stroke="grey" stroke-width="2" points="584.5,-1002.1 581,-992.1 577.5,-1002.1 584.5,-1002.1"/>
</g>
<!-- 35 -->
<g id="node35" class="node">
<title>35</title>
<path fill="none" stroke="#d8bc56" stroke-width="2" d="M643.5,-1136C643.5,-1136 518.5,-1136 518.5,-1136 512.5,-1136 506.5,-1130 506.5,-1124 506.5,-1124 506.5,-1112 506.5,-1112 506.5,-1106 512.5,-1100 518.5,-1100 518.5,-1100 643.5,-1100 643.5,-1100 649.5,-1100 655.5,-1106 655.5,-1112 655.5,-1112 655.5,-1124 655.5,-1124 655.5,-1130 649.5,-1136 643.5,-1136"/>
<text text-anchor="middle" x="581" y="-1121" font-family="sans" font-size="10.00">check_pairing</text>
<text text-anchor="middle" x="581" y="-1110" font-family="sans" font-size="10.00">sample_name: my_sample</text>
</g>
<!-- 35&#45;&gt;34 -->
<g id="edge35" class="edge">
<title>35&#45;&gt;34</title>
<path fill="none" stroke="grey" stroke-width="2" d="M581,-1099.7C581,-1091.98 581,-1082.71 581,-1074.11"/>
<polygon fill="grey" stroke="grey" stroke-width="2" points="584.5,-1074.1 581,-1064.1 577.5,-1074.1 584.5,-1074.1"/>
</g>
</g>
</svg>
